AnekKannada-CondensedThin.ufo
<glyph name="numbersign" format="2">
  <advance width="774"/>
  <unicode hex="0023"/>
  <outline>
    <contour>
      <point x="210" y="0" type="line"/>
      <point x="302" y="1278" type="line"/>
      <point x="267" y="1278" type="line"/>
      <point x="175" y="0" type="line"/>
    </contour>
    <contour>
      <point x="685" y="398" type="line"/>
      <point x="685" y="429" type="line"/>
      <point x="52" y="429" type="line"/>
      <point x="52" y="398" type="line"/>
    </contour>
    <contour>
      <point x="507" y="0" type="line"/>
      <point x="599" y="1278" type="line"/>
      <point x="564" y="1278" type="line"/>
      <point x="472" y="0" type="line"/>
    </contour>
    <contour>
      <point x="722" y="860" type="line"/>
      <point x="722" y="892" type="line"/>
      <point x="89" y="892" type="line"/>
      <point x="89" y="860" type="line"/>
    </contour>
  </outline>
</glyph>
<glyph name="dollar" format="2">
  <advance width="525"/>
  <unicode hex="0024"/>
  <outline>
    <component base="S"/>
    <contour>
      <point x="276" y="1454" type="line"/>
      <point x="241" y="1454" type="line"/>
      <point x="241" y="1278" type="line"/>
      <point x="276" y="1278" type="line"/>
    </contour>
    <contour>
      <point x="276" y="14" type="line"/>
      <point x="241" y="14" type="line"/>
      <point x="241" y="-185" type="line"/>
      <point x="276" y="-185" type="line"/>
    </contour>
  </outline>
</glyph>
<glyph name="period" format="2">
  <advance width="195"/>
  <unicode hex="002E"/>
  <outline>
    <contour>
      <point x="97" y="-9" type="curve" smooth="yes"/>
      <point x="119" y="-9"/>
      <point x="127" y="9"/>
      <point x="127" y="50" type="curve" smooth="yes"/>
      <point x="127" y="68" type="line" smooth="yes"/>
      <point x="127" y="108"/>
      <point x="119" y="127"/>
      <point x="97" y="127" type="curve" smooth="yes"/>
      <point x="75" y="127"/>
      <point x="68" y="108"/>
      <point x="68" y="68" type="curve" smooth="yes"/>
      <point x="68" y="50" type="line" smooth="yes"/>
      <point x="68" y="9"/>
      <point x="75" y="-9"/>
    </contour>
  </outline>
</glyph>
<glyph name="three" format="2">
  <advance width="506"/>
  <unicode hex="0033"/>
  <outline>
    <contour>
      <point x="215" y="-15" type="curve" smooth="yes"/>
      <point x="367" y="-15"/>
      <point x="426" y="87"/>
      <point x="426" y="260" type="curve" smooth="yes"/>
      <point x="426" y="413" type="line" smooth="yes"/>
      <point x="426" y="558"/>
      <point x="379" y="659"/>
      <point x="235" y="671" type="curve"/>
      <point x="235" y="669" type="line"/>
      <point x="235" y="667" type="line"/>
      <point x="377" y="675"/>
      <point x="420" y="779"/>
      <point x="420" y="914" type="curve" smooth="yes"/>
      <point x="420" y="1021" type="line" smooth="yes"/>
      <point x="420" y="1195"/>
      <point x="367" y="1293"/>
      <point x="220" y="1293" type="curve" smooth="yes"/>
      <point x="148" y="1293"/>
      <point x="91" y="1265"/>
      <point x="53" y="1229" type="curve"/>
      <point x="47" y="1188" type="line"/>
      <point x="96" y="1230"/>
      <point x="150" y="1258"/>
      <point x="220" y="1258" type="curve" smooth="yes"/>
      <point x="341" y="1258"/>
      <point x="382" y="1175"/>
      <point x="382" y="1021" type="curve" smooth="yes"/>
      <point x="382" y="913" type="line" smooth="yes"/>
      <point x="382" y="769"/>
      <point x="334" y="686"/>
      <point x="188" y="682" type="curve" smooth="yes"/>
      <point x="115" y="680" type="line"/>
      <point x="115" y="651" type="line"/>
      <point x="186" y="649" type="line" smooth="yes"/>
      <point x="327" y="645"/>
      <point x="388" y="577"/>
      <point x="388" y="413" type="curve" smooth="yes"/>
      <point x="388" y="260" type="line" smooth="yes"/>
      <point x="388" y="107"/>
      <point x="339" y="20"/>
      <point x="215" y="20" type="curve" smooth="yes"/>
      <point x="143" y="20"/>
      <point x="90" y="48"/>
      <point x="40" y="90" type="curve"/>
      <point x="46" y="47" type="line"/>
      <point x="81" y="15"/>
      <point x="141" y="-15"/>
    </contour>
  </outline>
</glyph>
<glyph name="six" format="2">
  <advance width="588"/>
  <unicode hex="0036"/>
  <outline>
    <contour>
      <point x="303" y="-20" type="curve" smooth="yes"/>
      <point x="439" y="-20"/>
      <point x="503" y="70"/>
      <point x="503" y="248" type="curve"/>
      <point x="503" y="517" type="line"/>
      <point x="503" y="691"/>
      <point x="439" y="792"/>
      <point x="315" y="792" type="curve" smooth="yes"/>
      <point x="194" y="792"/>
      <point x="129" y="706"/>
      <point x="128" y="561" type="curve"/>
      <point x="113" y="561" type="line"/>
      <point x="135" y="539" type="line"/>
      <point x="148" y="688"/>
      <point x="205" y="758"/>
      <point x="310" y="758" type="curve" smooth="yes"/>
      <point x="417" y="758"/>
      <point x="465" y="666"/>
      <point x="465" y="512" type="curve"/>
      <point x="465" y="245" type="line"/>
      <point x="465" y="93"/>
      <point x="414" y="14"/>
      <point x="303" y="14" type="curve" smooth="yes"/>
      <point x="192" y="14"/>
      <point x="140" y="93"/>
      <point x="140" y="245" type="curve" smooth="yes"/>
      <point x="140" y="1009" type="line" smooth="yes"/>
      <point x="140" y="1167"/>
      <point x="189" y="1257"/>
      <point x="319" y="1257" type="curve" smooth="yes"/>
      <point x="387" y="1257"/>
      <point x="438" y="1228"/>
      <point x="486" y="1187" type="curve"/>
      <point x="481" y="1229" type="line"/>
      <point x="446" y="1260"/>
      <point x="392" y="1293"/>
      <point x="319" y="1293" type="curve" smooth="yes"/>
      <point x="166" y="1293"/>
      <point x="102" y="1190"/>
      <point x="102" y="1009" type="curve" smooth="yes"/>
      <point x="102" y="248" type="line" smooth="yes"/>
      <point x="102" y="70"/>
      <point x="167" y="-20"/>
    </contour>
  </outline>
</glyph>
<glyph name="J" format="2">
  <advance width="443"/>
  <unicode hex="004A"/>
  <anchor x="222" y="0" name="bottom"/>
  <anchor x="307" y="1278" name="top"/>
  <outline>
    <contour>
      <point x="158" y="-17" type="curve" smooth="yes"/>
      <point x="282" y="-17"/>
      <point x="327" y="54"/>
      <point x="327" y="176" type="curve" smooth="yes"/>
      <point x="327" y="1278" type="line"/>
      <point x="288" y="1278" type="line"/>
      <point x="288" y="178" type="line" smooth="yes"/>
      <point x="288" y="75"/>
      <point x="258" y="19"/>
      <point x="160" y="19" type="curve" smooth="yes"/>
      <point x="116" y="19"/>
      <point x="81" y="29"/>
      <point x="44" y="46" type="curve"/>
      <point x="49" y="7" type="line"/>
      <point x="78" y="-7"/>
      <point x="118" y="-17"/>
    </contour>
  </outline>
</glyph>
<glyph name="K" format="2">
  <advance width="621"/>
  <unicode hex="004B"/>
  <anchor x="330" y="0" name="bottom"/>
  <anchor x="330" y="1278" name="top"/>
  <outline>
    <contour>
      <point x="581" y="0" type="line"/>
      <point x="284" y="667" type="line"/>
      <point x="286" y="651" type="line"/>
      <point x="574" y="1278" type="line"/>
      <point x="532" y="1278" type="line"/>
      <point x="254" y="671" type="line"/>
      <point x="156" y="671" type="line"/>
      <point x="156" y="636" type="line"/>
      <point x="256" y="636" type="line"/>
      <point x="539" y="0" type="line"/>
    </contour>
    <contour>
      <point x="160" y="0" type="line"/>
      <point x="160" y="1278" type="line"/>
      <point x="121" y="1278" type="line"/>
      <point x="121" y="0" type="line"/>
    </contour>
  </outline>
</glyph>
<glyph name="X" format="2">
  <advance width="597"/>
  <unicode hex="0058"/>
  <anchor x="299" y="0" name="bottom"/>
  <anchor x="299" y="1278" name="top"/>
  <outline>
    <contour>
      <point x="95" y="0" type="line"/>
      <point x="295" y="640" type="line"/>
      <point x="302" y="640" type="line"/>
      <point x="502" y="0" type="line"/>
      <point x="541" y="0" type="line"/>
      <point x="326" y="676" type="line"/>
      <point x="326" y="654" type="line"/>
      <point x="537" y="1278" type="line"/>
      <point x="498" y="1278" type="line"/>
      <point x="302" y="687" type="line"/>
      <point x="295" y="687" type="line"/>
      <point x="99" y="1278" type="line"/>
      <point x="60" y="1278" type="line"/>
      <point x="271" y="654" type="line"/>
      <point x="271" y="676" type="line"/>
      <point x="56" y="0" type="line"/>
    </contour>
  </outline>
</glyph>
<glyph name="bracketleft" format="2">
  <advance width="384"/>
  <unicode hex="005B"/>
  <outline>
    <contour>
      <point x="352" y="-241" type="line"/>
      <point x="352" y="-210" type="line"/>
      <point x="160" y="-210" type="line"/>
      <point x="160" y="1321" type="line"/>
      <point x="352" y="1321" type="line"/>
      <point x="352" y="1352" type="line"/>
      <point x="123" y="1352" type="line"/>
      <point x="123" y="-241" type="line"/>
    </contour>
  </outline>
</glyph>
<glyph name="x" format="2">
  <advance width="534"/>
  <unicode hex="0078"/>
  <anchor x="267" y="0" name="bottom"/>
  <anchor x="267" y="990" name="top"/>
  <outline>
    <contour>
      <point x="95" y="0" type="line"/>
      <point x="264" y="497" type="line"/>
      <point x="270" y="497" type="line"/>
      <point x="439" y="0" type="line"/>
      <point x="478" y="0" type="line"/>
      <point x="292" y="532" type="line"/>
      <point x="292" y="510" type="line"/>
      <point x="474" y="990" type="line"/>
      <point x="436" y="990" type="line"/>
      <point x="270" y="541" type="line"/>
      <point x="264" y="541" type="line"/>
      <point x="98" y="990" type="line"/>
      <point x="60" y="990" type="line"/>
      <point x="242" y="510" type="line"/>
      <point x="242" y="532" type="line"/>
      <point x="56" y="0" type="line"/>
    </contour>
  </outline>
</glyph>
<glyph name="braceright" format="2">
  <advance width="450"/>
  <unicode hex="007D"/>
  <outline>
    <contour>
      <point x="32" y="1336" type="line"/>
      <point x="61" y="1347"/>
      <point x="89" y="1354"/>
      <point x="126" y="1354" type="curve" smooth="yes"/>
      <point x="227" y="1354"/>
      <point x="275" y="1290"/>
      <point x="275" y="1163" type="curve" smooth="yes"/>
      <point x="275" y="1038"/>
      <point x="262" y="872"/>
      <point x="262" y="773" type="curve" smooth="yes"/>
      <point x="262" y="651"/>
      <point x="291" y="592"/>
      <point x="394" y="581" type="curve"/>
      <point x="394" y="535" type="line"/>
      <point x="291" y="523"/>
      <point x="262" y="466"/>
      <point x="262" y="344" type="curve" smooth="yes"/>
      <point x="262" y="247"/>
      <point x="275" y="77"/>
      <point x="275" y="-52" type="curve" smooth="yes"/>
      <point x="275" y="-178"/>
      <point x="225" y="-243"/>
      <point x="126" y="-243" type="curve" smooth="yes"/>
      <point x="89" y="-243"/>
      <point x="61" y="-236"/>
      <point x="32" y="-224" type="curve"/>
      <point x="32" y="-190" type="line"/>
      <point x="54" y="-201"/>
      <point x="85" y="-210"/>
      <point x="124" y="-210" type="curve" smooth="yes"/>
      <point x="201" y="-210"/>
      <point x="238" y="-160"/>
      <point x="238" y="-50" type="curve" smooth="yes"/>
      <point x="238" y="64"/>
      <point x="225" y="234"/>
      <point x="225" y="346" type="curve" smooth="yes"/>
      <point x="225" y="470"/>
      <point x="263" y="540"/>
      <point x="366" y="559" type="curve"/>
      <point x="363" y="553" type="line"/>
      <point x="363" y="559" type="line"/>
      <point x="267" y="576"/>
      <point x="225" y="644"/>
      <point x="225" y="770" type="curve" smooth="yes"/>
      <point x="225" y="881"/>
      <point x="238" y="1049"/>
      <point x="238" y="1161" type="curve" smooth="yes"/>
      <point x="238" y="1271"/>
      <point x="201" y="1321"/>
      <point x="124" y="1321" type="curve" smooth="yes"/>
      <point x="85" y="1321"/>
      <point x="54" y="1312"/>
      <point x="32" y="1301" type="curve"/>
    </contour>
  </outline>
</glyph>
<glyph name="cent" format="2">
  <advance width="468"/>
  <unicode hex="00A2"/>
  <outline>
    <component base="c"/>
    <contour>
      <point x="287" y="1165" type="line"/>
      <point x="252" y="1165" type="line"/>
      <point x="252" y="980.835" type="line"/>
      <point x="287" y="980.835" type="line"/>
    </contour>
    <contour>
      <point x="287" y="10.8505" type="line"/>
      <point x="252" y="10.8505" type="line"/>
      <point x="252" y="-185" type="line"/>
      <point x="287" y="-185" type="line"/>
    </contour>
  </outline>
</glyph>
<glyph name="currency" format="2">
  <advance width="598"/>
  <unicode hex="00A4"/>
  <outline>
    <contour>
      <point x="299" y="287" type="curve" smooth="yes"/>
      <point x="429" y="287"/>
      <point x="499" y="379"/>
      <point x="499" y="554" type="curve"/>
      <point x="499" y="672" type="line"/>
      <point x="499" y="847"/>
      <point x="429" y="939"/>
      <point x="299" y="939" type="curve" smooth="yes"/>
      <point x="169" y="939"/>
      <point x="99" y="847"/>
      <point x="99" y="672" type="curve"/>
      <point x="99" y="554" type="line"/>
      <point x="99" y="379"/>
      <point x="169" y="287"/>
    </contour>
    <contour>
      <point x="299" y="320" type="curve" smooth="yes"/>
      <point x="191" y="320"/>
      <point x="136" y="401"/>
      <point x="136" y="554" type="curve" smooth="yes"/>
      <point x="136" y="672" type="line" smooth="yes"/>
      <point x="136" y="825"/>
      <point x="191" y="906"/>
      <point x="299" y="906" type="curve" smooth="yes"/>
      <point x="407" y="906"/>
      <point x="462" y="825"/>
      <point x="462" y="672" type="curve" smooth="yes"/>
      <point x="462" y="554" type="line" smooth="yes"/>
      <point x="462" y="401"/>
      <point x="407" y="320"/>
    </contour>
    <contour>
      <point x="410" y="336" type="line"/>
      <point x="523" y="153" type="line"/>
      <point x="552" y="171" type="line"/>
      <point x="436" y="360" type="line"/>
    </contour>
    <contour>
      <point x="165" y="365" type="line"/>
      <point x="46" y="171" type="line"/>
      <point x="75" y="153" type="line"/>
      <point x="190" y="341" type="line"/>
    </contour>
    <contour>
      <point x="189" y="885" type="line"/>
      <point x="74" y="1072" type="line"/>
      <point x="46" y="1055" type="line"/>
      <point x="163" y="864" type="line"/>
    </contour>
    <contour>
      <point x="434" y="862" type="line"/>
      <point x="552" y="1055" type="line"/>
      <point x="524" y="1072" type="line"/>
      <point x="408" y="884" type="line"/>
    </contour>
  </outline>
</glyph>
<glyph name="brokenbar" format="2">
  <advance width="319"/>
  <unicode hex="00A6"/>
  <outline>
    <contour>
      <point x="177" y="1426" type="line"/>
      <point x="142" y="1426" type="line"/>
      <point x="142" y="594" type="line"/>
      <point x="177" y="594" type="line"/>
    </contour>
    <contour>
      <point x="177" y="396" type="line"/>
      <point x="142" y="396" type="line"/>
      <point x="142" y="-436" type="line"/>
      <point x="177" y="-436" type="line"/>
    </contour>
  </outline>
</glyph>
<glyph name="questiondown" format="2">
  <advance width="446"/>
  <unicode hex="00BF"/>
  <outline>
    <contour>
      <point x="255" y="600" type="line" smooth="yes"/>
      <point x="135" y="512"/>
      <point x="89" y="431"/>
      <point x="89" y="245" type="curve" smooth="yes"/>
      <point x="89" y="-55" type="line" smooth="yes"/>
      <point x="89" y="-220"/>
      <point x="137" y="-303"/>
      <point x="262" y="-303" type="curve" smooth="yes"/>
      <point x="319" y="-303"/>
      <point x="371" y="-279"/>
      <point x="402" y="-255" type="curve"/>
      <point x="408" y="-216" type="line"/>
      <point x="365" y="-246"/>
      <point x="321" y="-268"/>
      <point x="262" y="-268" type="curve" smooth="yes"/>
      <point x="163" y="-268"/>
      <point x="126" y="-200"/>
      <point x="126" y="-53" type="curve" smooth="yes"/>
      <point x="126" y="247" type="line" smooth="yes"/>
      <point x="126" y="416"/>
      <point x="162" y="488"/>
      <point x="273" y="569" type="curve" smooth="yes"/>
      <point x="303" y="591" type="line"/>
      <point x="303" y="635" type="line"/>
    </contour>
    <contour>
      <point x="290" y="999" type="curve" smooth="yes"/>
      <point x="268" y="999"/>
      <point x="260" y="981"/>
      <point x="260" y="940" type="curve" smooth="yes"/>
      <point x="260" y="924" type="line" smooth="yes"/>
      <point x="260" y="884"/>
      <point x="268" y="865"/>
      <point x="290" y="865" type="curve" smooth="yes"/>
      <point x="312" y="865"/>
      <point x="319" y="884"/>
      <point x="319" y="924" type="curve" smooth="yes"/>
      <point x="319" y="940" type="line" smooth="yes"/>
      <point x="319" y="981"/>
      <point x="312" y="999"/>
    </contour>
  </outline>
</glyph>
<glyph name="AE" format="2">
  <advance width="889"/>
  <unicode hex="00C6"/>
  <anchor x="445" y="0" name="bottom"/>
  <anchor x="445" y="1278" name="top"/>
  <outline>
    <contour>
      <point x="98" y="0" type="line"/>
      <point x="415" y="1245" type="line"/>
      <point x="470" y="1245" type="line"/>
      <point x="470" y="1278" type="line"/>
      <point x="386" y="1278" type="line"/>
      <point x="58" y="0" type="line"/>
    </contour>
    <contour>
      <point x="484" y="452" type="line"/>
      <point x="484" y="485" type="line"/>
      <point x="198" y="485" type="line"/>
      <point x="198" y="452" type="line"/>
    </contour>
    <contour>
      <point x="823" y="0" type="line"/>
      <point x="823" y="35" type="line"/>
      <point x="472" y="35" type="line"/>
      <point x="472" y="0" type="line"/>
    </contour>
    <contour>
      <point x="507" y="0" type="line"/>
      <point x="507" y="1278" type="line"/>
      <point x="468" y="1278" type="line"/>
      <point x="468" y="0" type="line"/>
    </contour>
    <contour>
      <point x="819" y="641" type="line"/>
      <point x="819" y="675" type="line"/>
      <point x="486" y="675" type="line"/>
      <point x="486" y="641" type="line"/>
    </contour>
    <contour>
      <point x="823" y="1243" type="line"/>
      <point x="823" y="1278" type="line"/>
      <point x="468" y="1278" type="line"/>
      <point x="468" y="1243" type="line"/>
    </contour>
  </outline>
</glyph>
<glyph name="multiply" format="2">
  <advance width="593"/>
  <unicode hex="00D7"/>
  <outline>
    <contour>
      <point x="111" y="906" type="line"/>
      <point x="84" y="887" type="line"/>
      <point x="491" y="367" type="line"/>
      <point x="519" y="387" type="line"/>
    </contour>
    <contour>
      <point x="102" y="367" type="line"/>
      <point x="509" y="887" type="line"/>
      <point x="482" y="906" type="line"/>
      <point x="74" y="387" type="line"/>
    </contour>
  </outline>
</glyph>
<glyph name="divide" format="2">
  <advance width="608"/>
  <unicode hex="00F7"/>
  <outline>
    <component base="period" xOffset="207" yOffset="335"/>
    <component base="period" xOffset="207" yOffset="825"/>
    <contour>
      <point x="547" y="620" type="line"/>
      <point x="547" y="653" type="line"/>
      <point x="61" y="653" type="line"/>
      <point x="61" y="620" type="line"/>
    </contour>
  </outline>
</glyph>
<glyph name="Candrabindu_Spacing.ka" format="2">
  <advance width="740"/>
  <unicode hex="0C80"/>
  <unicode hex="0D04"/>
  <outline>
    <contour>
      <point x="370" y="780" type="curve" smooth="yes"/>
      <point x="385" y="780"/>
      <point x="392" y="770"/>
      <point x="392" y="750" type="curve" smooth="yes"/>
      <point x="392" y="521" type="line" smooth="yes"/>
      <point x="392" y="501"/>
      <point x="385" y="492"/>
      <point x="370" y="492" type="curve" smooth="yes"/>
      <point x="355" y="492"/>
      <point x="348" y="501"/>
      <point x="348" y="521" type="curve" smooth="yes"/>
      <point x="348" y="750" type="line" smooth="yes"/>
      <point x="348" y="770"/>
      <point x="355" y="780"/>
    </contour>
    <contour>
      <point x="370" y="194" type="curve" smooth="yes"/>
      <point x="554" y="194"/>
      <point x="640" y="308"/>
      <point x="640" y="531" type="curve" smooth="yes"/>
      <point x="640" y="563.379"/>
      <point x="640" y="671.254"/>
      <point x="640" y="698" type="curve"/>
      <point x="605" y="698" type="line"/>
      <point x="605" y="531" type="line" smooth="yes"/>
      <point x="605" y="328"/>
      <point x="530" y="227"/>
      <point x="370" y="227" type="curve" smooth="yes"/>
      <point x="210" y="227"/>
      <point x="134" y="328"/>
      <point x="134" y="531" type="curve" smooth="yes"/>
      <point x="134" y="698" type="line"/>
      <point x="99" y="698" type="line"/>
      <point x="99" y="671.254"/>
      <point x="99" y="563.379"/>
      <point x="99" y="531" type="curve" smooth="yes"/>
      <point x="99" y="308"/>
      <point x="186" y="194"/>
    </contour>
  </outline>
</glyph>
<glyph name="Candrabindu" format="2">
  <unicode hex="0C81"/>
  <unicode hex="0D01"/>
  <outline>
    <contour>
      <point x="-421" y="1340" type="curve" smooth="yes"/>
      <point x="-523" y="1340"/>
      <point x="-582" y="1392"/>
      <point x="-582" y="1493" type="curve" smooth="yes"/>
      <point x="-582" y="1512" type="line"/>
      <point x="-616" y="1512" type="line"/>
      <point x="-616" y="1493" type="line" smooth="yes"/>
      <point x="-616" y="1373"/>
      <point x="-545" y="1308"/>
      <point x="-421" y="1308" type="curve" smooth="yes"/>
      <point x="-297" y="1308"/>
      <point x="-227" y="1373"/>
      <point x="-227" y="1493" type="curve" smooth="yes"/>
      <point x="-227" y="1512" type="line"/>
      <point x="-260" y="1512" type="line"/>
      <point x="-260" y="1493" type="line" smooth="yes"/>
      <point x="-260" y="1392"/>
      <point x="-319" y="1340"/>
    </contour>
    <contour>
      <point x="-452" y="1518" type="line" smooth="yes"/>
      <point x="-452" y="1492"/>
      <point x="-443" y="1479"/>
      <point x="-421" y="1479" type="curve" smooth="yes"/>
      <point x="-399" y="1479"/>
      <point x="-390" y="1492"/>
      <point x="-390" y="1518" type="curve" smooth="yes"/>
      <point x="-390" y="1529" type="line" smooth="yes"/>
      <point x="-390" y="1555"/>
      <point x="-399" y="1568"/>
      <point x="-421" y="1568" type="curve" smooth="yes"/>
      <point x="-443" y="1568"/>
      <point x="-452" y="1555"/>
      <point x="-452" y="1529" type="curve" smooth="yes"/>
    </contour>
  </outline>
</glyph>
<glyph name="Visarga.kn" format="2">
  <advance width="458"/>
  <unicode hex="0C83"/>
  <outline>
    <contour>
      <point x="229" y="23" type="curve" smooth="yes"/>
      <point x="328" y="23"/>
      <point x="379" y="86"/>
      <point x="379" y="205" type="curve" smooth="yes"/>
      <point x="379" y="341" type="line" smooth="yes"/>
      <point x="379" y="461"/>
      <point x="328" y="523"/>
      <point x="229" y="523" type="curve" smooth="yes"/>
      <point x="130" y="523"/>
      <point x="79" y="461"/>
      <point x="79" y="341" type="curve" smooth="yes"/>
      <point x="79" y="205" type="line" smooth="yes"/>
      <point x="79" y="86"/>
      <point x="130" y="23"/>
    </contour>
    <contour>
      <point x="229" y="491" type="curve" smooth="yes"/>
      <point x="305" y="491"/>
      <point x="345" y="439"/>
      <point x="345" y="341" type="curve" smooth="yes"/>
      <point x="345" y="205" type="line" smooth="yes"/>
      <point x="345" y="107"/>
      <point x="305" y="55"/>
      <point x="229" y="55" type="curve" smooth="yes"/>
      <point x="153" y="55"/>
      <point x="113" y="107"/>
      <point x="113" y="205" type="curve" smooth="yes"/>
      <point x="113" y="341" type="line" smooth="yes"/>
      <point x="113" y="439"/>
      <point x="153" y="491"/>
    </contour>
    <contour>
      <point x="229" y="626" type="curve" smooth="yes"/>
      <point x="328" y="626"/>
      <point x="379" y="689"/>
      <point x="379" y="808" type="curve" smooth="yes"/>
      <point x="379" y="944" type="line" smooth="yes"/>
      <point x="379" y="1064"/>
      <point x="328" y="1126"/>
      <point x="229" y="1126" type="curve" smooth="yes"/>
      <point x="130" y="1126"/>
      <point x="79" y="1064"/>
      <point x="79" y="944" type="curve" smooth="yes"/>
      <point x="79" y="808" type="line" smooth="yes"/>
      <point x="79" y="689"/>
      <point x="130" y="626"/>
    </contour>
    <contour>
      <point x="229" y="1094" type="curve" smooth="yes"/>
      <point x="305" y="1094"/>
      <point x="345" y="1042"/>
      <point x="345" y="944" type="curve" smooth="yes"/>
      <point x="345" y="808" type="line" smooth="yes"/>
      <point x="345" y="710"/>
      <point x="305" y="658"/>
      <point x="229" y="658" type="curve" smooth="yes"/>
      <point x="153" y="658"/>
      <point x="113" y="710"/>
      <point x="113" y="808" type="curve" smooth="yes"/>
      <point x="113" y="944" type="line" smooth="yes"/>
      <point x="113" y="1042"/>
      <point x="153" y="1094"/>
    </contour>
  </outline>
</glyph>
<glyph name="vowelA.kn" format="2">
  <advance width="994"/>
  <unicode hex="0C85"/>
  <outline>
    <contour>
      <point x="758" y="479" type="line"/>
      <point x="758" y="510" type="line"/>
      <point x="405" y="510" type="line"/>
      <point x="405" y="479" type="line"/>
    </contour>
    <contour>
      <point x="727" y="1196" type="curve" smooth="yes"/>
      <point x="619" y="1196"/>
      <point x="567" y="1125"/>
      <point x="567" y="979" type="curve" smooth="yes"/>
      <point x="567" y="674" type="line" smooth="yes"/>
      <point x="567" y="572"/>
      <point x="605" y="529"/>
      <point x="655" y="511" type="curve"/>
      <point x="655" y="500" type="line"/>
      <point x="737" y="500" type="line"/>
      <point x="737" y="510" type="line"/>
      <point x="651" y="510"/>
      <point x="602" y="565"/>
      <point x="602" y="674" type="curve" smooth="yes"/>
      <point x="602" y="976" type="line" smooth="yes"/>
      <point x="602" y="1102"/>
      <point x="642" y="1163"/>
      <point x="727" y="1163" type="curve" smooth="yes"/>
      <point x="812" y="1163"/>
      <point x="852" y="1102"/>
      <point x="852" y="976" type="curve" smooth="yes"/>
      <point x="852" y="461" type="line" smooth="yes"/>
      <point x="852" y="159"/>
      <point x="729" y="17"/>
      <point x="498" y="17" type="curve" smooth="yes"/>
      <point x="258" y="17"/>
      <point x="142" y="165"/>
      <point x="142" y="463" type="curve" smooth="yes"/>
      <point x="142" y="624" type="line"/>
      <point x="107" y="624" type="line"/>
      <point x="107" y="461" type="line" smooth="yes"/>
      <point x="107" y="145"/>
      <point x="237" y="-16"/>
      <point x="498" y="-16" type="curve" smooth="yes"/>
      <point x="750" y="-16"/>
      <point x="887" y="139"/>
      <point x="887" y="459" type="curve" smooth="yes"/>
      <point x="887" y="979" type="line" smooth="yes"/>
      <point x="887" y="1125"/>
      <point x="835" y="1196"/>
    </contour>
    <contour>
      <point x="268" y="1196" type="curve" smooth="yes"/>
      <point x="159" y="1196"/>
      <point x="107" y="1125"/>
      <point x="107" y="978" type="curve" smooth="yes"/>
      <point x="107" y="613" type="line"/>
      <point x="142" y="613" type="line"/>
      <point x="142" y="975" type="line" smooth="yes"/>
      <point x="142" y="1102"/>
      <point x="182" y="1163"/>
      <point x="268" y="1163" type="curve" smooth="yes"/>
      <point x="354" y="1163"/>
      <point x="394" y="1102"/>
      <point x="394" y="975" type="curve" smooth="yes"/>
      <point x="394" y="696" type="line" smooth="yes"/>
      <point x="394" y="567"/>
      <point x="348" y="530"/>
      <point x="280" y="530" type="curve" smooth="yes"/>
      <point x="193.831" y="530"/>
      <point x="152.225" y="583.873"/>
      <point x="136" y="680" type="curve"/>
      <point x="136" y="591" type="line"/>
      <point x="143" y="591" type="line"/>
      <point x="160" y="540"/>
      <point x="201" y="497"/>
      <point x="280" y="497" type="curve" smooth="yes"/>
      <point x="381" y="497"/>
      <point x="429" y="558"/>
      <point x="429" y="696" type="curve" smooth="yes"/>
      <point x="429" y="978" type="line" smooth="yes"/>
      <point x="429" y="1125"/>
      <point x="377" y="1196"/>
    </contour>
  </outline>
</glyph>
<glyph name="vowelAa.kn" format="2">
  <advance width="984"/>
  <unicode hex="0C86"/>
  <outline>
    <contour>
      <point x="718" y="479" type="line" smooth="yes"/>
      <point x="788" y="479"/>
      <point x="827" y="430"/>
      <point x="827" y="325" type="curve" smooth="yes"/>
      <point x="827" y="304" type="line" smooth="yes"/>
      <point x="827" y="109"/>
      <point x="718" y="17"/>
      <point x="516" y="17" type="curve" smooth="yes"/>
      <point x="264" y="17"/>
      <point x="142" y="163"/>
      <point x="142" y="461" type="curve" smooth="yes"/>
      <point x="142" y="615" type="line"/>
      <point x="107" y="615" type="line"/>
      <point x="107" y="459" type="line" smooth="yes"/>
      <point x="107" y="143"/>
      <point x="243" y="-16"/>
      <point x="516" y="-16" type="curve" smooth="yes"/>
      <point x="740" y="-16"/>
      <point x="862" y="87"/>
      <point x="862" y="303" type="curve" smooth="yes"/>
      <point x="862" y="325" type="line" smooth="yes"/>
      <point x="862" y="415"/>
      <point x="833" y="476"/>
      <point x="774" y="491" type="curve"/>
      <point x="774" y="492" type="line"/>
      <point x="850" y="511"/>
      <point x="887" y="579"/>
      <point x="887" y="695" type="curve" smooth="yes"/>
      <point x="887" y="979" type="line" smooth="yes"/>
      <point x="887" y="1125"/>
      <point x="835" y="1196"/>
      <point x="727" y="1196" type="curve" smooth="yes"/>
      <point x="619" y="1196"/>
      <point x="567" y="1125"/>
      <point x="567" y="979" type="curve" smooth="yes"/>
      <point x="567" y="698" type="line" smooth="yes"/>
      <point x="567" y="582"/>
      <point x="602" y="531"/>
      <point x="650" y="511" type="curve"/>
      <point x="650" y="510" type="line"/>
      <point x="405" y="510" type="line"/>
      <point x="405" y="479" type="line"/>
    </contour>
    <contour>
      <point x="852" y="698" type="line" smooth="yes"/>
      <point x="852" y="572"/>
      <point x="813" y="511"/>
      <point x="731" y="511" type="curve" smooth="yes"/>
      <point x="643" y="511"/>
      <point x="602" y="572"/>
      <point x="602" y="698" type="curve" smooth="yes"/>
      <point x="602" y="976" type="line" smooth="yes"/>
      <point x="602" y="1102"/>
      <point x="642" y="1163"/>
      <point x="727" y="1163" type="curve" smooth="yes"/>
      <point x="812" y="1163"/>
      <point x="852" y="1102"/>
      <point x="852" y="976" type="curve" smooth="yes"/>
    </contour>
    <contour>
      <point x="268" y="1196" type="curve" smooth="yes"/>
      <point x="159" y="1196"/>
      <point x="107" y="1125"/>
      <point x="107" y="978" type="curve" smooth="yes"/>
      <point x="107" y="613" type="line"/>
      <point x="142" y="613" type="line"/>
      <point x="142" y="975" type="line" smooth="yes"/>
      <point x="142" y="1102"/>
      <point x="182" y="1163"/>
      <point x="268" y="1163" type="curve" smooth="yes"/>
      <point x="354" y="1163"/>
      <point x="394" y="1102"/>
      <point x="394" y="975" type="curve" smooth="yes"/>
      <point x="394" y="696" type="line" smooth="yes"/>
      <point x="394" y="567"/>
      <point x="348" y="530"/>
      <point x="280" y="530" type="curve" smooth="yes"/>
      <point x="193.831" y="530"/>
      <point x="152.225" y="583.873"/>
      <point x="136" y="680" type="curve"/>
      <point x="136" y="591" type="line"/>
      <point x="143" y="591" type="line"/>
      <point x="160" y="540"/>
      <point x="201" y="497"/>
      <point x="280" y="497" type="curve" smooth="yes"/>
      <point x="381" y="497"/>
      <point x="429" y="558"/>
      <point x="429" y="696" type="curve" smooth="yes"/>
      <point x="429" y="978" type="line" smooth="yes"/>
      <point x="429" y="1125"/>
      <point x="377" y="1196"/>
    </contour>
  </outline>
</glyph>
<glyph name="vowelI.kn" format="2">
  <advance width="820"/>
  <unicode hex="0C87"/>
  <outline>
    <contour>
      <point x="749" y="-157" type="line"/>
      <point x="726" y="-29"/>
      <point x="698" y="120"/>
      <point x="673" y="248" type="curve"/>
      <point x="655" y="203" type="line"/>
      <point x="669" y="94"/>
      <point x="696" y="-48"/>
      <point x="713" y="-157" type="curve"/>
    </contour>
    <contour>
      <point x="698" y="517" type="curve" smooth="yes"/>
      <point x="698" y="972" type="line" smooth="yes"/>
      <point x="698" y="1126"/>
      <point x="644" y="1196"/>
      <point x="535" y="1196" type="curve" smooth="yes"/>
      <point x="449" y="1196"/>
      <point x="398" y="1148"/>
      <point x="389" y="1057" type="curve"/>
      <point x="387" y="1057" type="line"/>
      <point x="378" y="1148"/>
      <point x="328" y="1196"/>
      <point x="243" y="1196" type="curve" smooth="yes"/>
      <point x="136" y="1196"/>
      <point x="82" y="1129"/>
      <point x="82" y="978" type="curve" smooth="yes"/>
      <point x="82" y="910" type="line" smooth="yes"/>
      <point x="82" y="801"/>
      <point x="97" y="734"/>
      <point x="122" y="680" type="curve"/>
      <point x="159" y="680" type="line"/>
      <point x="133" y="733"/>
      <point x="117" y="801"/>
      <point x="117" y="912" type="curve" smooth="yes"/>
      <point x="117" y="977" type="line" smooth="yes"/>
      <point x="117" y="1106"/>
      <point x="160" y="1163"/>
      <point x="243" y="1163" type="curve" smooth="yes"/>
      <point x="329" y="1163"/>
      <point x="369" y="1103"/>
      <point x="370" y="972" type="curve" smooth="yes"/>
      <point x="372" y="706" type="line"/>
      <point x="404" y="706" type="line"/>
      <point x="406" y="972" type="line" smooth="yes"/>
      <point x="407" y="1103"/>
      <point x="448" y="1163"/>
      <point x="535" y="1163" type="curve" smooth="yes"/>
      <point x="620" y="1163"/>
      <point x="663" y="1103"/>
      <point x="663" y="971" type="curve" smooth="yes"/>
      <point x="663" y="515" type="line" smooth="yes"/>
      <point x="663" y="425"/>
      <point x="660" y="333"/>
      <point x="649" y="264" type="curve"/>
      <point x="646" y="256" type="line"/>
      <point x="616" y="132"/>
      <point x="551" y="19"/>
      <point x="390" y="19" type="curve" smooth="yes"/>
      <point x="246" y="19"/>
      <point x="171" y="92"/>
      <point x="171" y="233" type="curve" smooth="yes"/>
      <point x="171" y="241" type="line" smooth="yes"/>
      <point x="171" y="382"/>
      <point x="244" y="455"/>
      <point x="385" y="455" type="curve" smooth="yes"/>
      <point x="518" y="455"/>
      <point x="599" y="383"/>
      <point x="644" y="234" type="curve"/>
      <point x="657" y="273" type="line"/>
      <point x="626" y="404"/>
      <point x="532" y="488"/>
      <point x="387" y="488" type="curve" smooth="yes"/>
      <point x="221" y="488"/>
      <point x="136" y="404"/>
      <point x="136" y="241" type="curve" smooth="yes"/>
      <point x="136" y="233" type="line" smooth="yes"/>
      <point x="136" y="70"/>
      <point x="222" y="-14"/>
      <point x="390" y="-14" type="curve" smooth="yes"/>
      <point x="552" y="-14"/>
      <point x="631" y="91"/>
      <point x="665" y="209" type="curve"/>
      <point x="672" y="224" type="line"/>
      <point x="692" y="304"/>
      <point x="698" y="415"/>
    </contour>
  </outline>
</glyph>
<glyph name="vowelII.kn" format="2">
  <advance width="1013"/>
  <unicode hex="0C88"/>
  <outline>
    <contour>
      <point x="273" y="1160" type="line"/>
      <point x="273" y="1144" type="line"/>
      <point x="187" y="1110"/>
      <point x="141" y="1019"/>
      <point x="141" y="865" type="curve" smooth="yes"/>
      <point x="141" y="296" type="line" smooth="yes"/>
      <point x="141" y="87"/>
      <point x="224" y="-18"/>
      <point x="387" y="-18" type="curve" smooth="yes"/>
      <point x="550" y="-18"/>
      <point x="633" y="87"/>
      <point x="633" y="296" type="curve" smooth="yes"/>
      <point x="633" y="865" type="line" smooth="yes"/>
      <point x="633" y="1019"/>
      <point x="586" y="1110"/>
      <point x="500" y="1144" type="curve"/>
      <point x="500" y="1160" type="line"/>
    </contour>
    <contour>
      <point x="387" y="15" type="curve" smooth="yes"/>
      <point x="248" y="15"/>
      <point x="176" y="110"/>
      <point x="176" y="296" type="curve" smooth="yes"/>
      <point x="176" y="865" type="line" smooth="yes"/>
      <point x="176" y="1051"/>
      <point x="248" y="1146"/>
      <point x="387" y="1146" type="curve" smooth="yes"/>
      <point x="526" y="1146"/>
      <point x="598" y="1051"/>
      <point x="598" y="865" type="curve" smooth="yes"/>
      <point x="598" y="296" type="line" smooth="yes"/>
      <point x="598" y="110"/>
      <point x="526" y="15"/>
    </contour>
    <contour>
      <point x="510" y="1146" type="line"/>
      <point x="510" y="1178" type="line"/>
      <point x="111" y="1178" type="line"/>
      <point x="111" y="1146" type="line"/>
    </contour>
    <contour>
      <point x="881" y="200" type="line" smooth="yes"/>
      <point x="881" y="75"/>
      <point x="845" y="29"/>
      <point x="763" y="29" type="curve" smooth="yes"/>
      <point x="734" y="29"/>
      <point x="706" y="34"/>
      <point x="684" y="43" type="curve"/>
      <point x="689" y="9" type="line"/>
      <point x="707" y="2"/>
      <point x="736" y="-4"/>
      <point x="763" y="-4" type="curve" smooth="yes"/>
      <point x="870" y="-4"/>
      <point x="916" y="52"/>
      <point x="916" y="199" type="curve" smooth="yes"/>
      <point x="916" y="402" type="line" smooth="yes"/>
      <point x="916" y="497"/>
      <point x="898" y="558"/>
      <point x="846" y="581" type="curve"/>
      <point x="846" y="590" type="line"/>
      <point x="732" y="590" type="line"/>
      <point x="732" y="582" type="line"/>
      <point x="767" y="582" type="line" smooth="yes"/>
      <point x="851" y="582"/>
      <point x="881" y="526"/>
      <point x="881" y="402" type="curve" smooth="yes"/>
    </contour>
    <contour>
      <point x="832" y="582" type="line"/>
      <point x="865" y="582" type="line" smooth="yes"/>
      <point x="899" y="582"/>
      <point x="912" y="599"/>
      <point x="912" y="643" type="curve" smooth="yes"/>
      <point x="912" y="697"/>
      <point x="895" y="950"/>
      <point x="884" y="1058" type="curve"/>
      <point x="857" y="1058" type="line"/>
      <point x="857" y="613" type="line"/>
      <point x="618" y="613" type="line"/>
      <point x="611" y="613" type="line"/>
      <point x="164" y="613" type="line"/>
      <point x="152" y="613" type="line"/>
      <point x="22" y="613" type="line"/>
      <point x="22" y="582" type="line"/>
      <point x="152" y="582" type="line"/>
      <point x="164" y="582" type="line"/>
      <point x="611" y="582" type="line"/>
      <point x="618" y="582" type="line"/>
      <point x="822" y="582" type="line"/>
    </contour>
    <contour>
      <point x="597" y="1511" type="line"/>
      <point x="628" y="1442"/>
      <point x="647" y="1367"/>
      <point x="647" y="1296" type="curve" smooth="yes"/>
      <point x="647" y="1214"/>
      <point x="614" y="1178"/>
      <point x="536" y="1178" type="curve" smooth="yes"/>
      <point x="474" y="1178" type="line"/>
      <point x="474" y="1146" type="line"/>
      <point x="538" y="1146" type="line" smooth="yes"/>
      <point x="637" y="1146"/>
      <point x="682" y="1193"/>
      <point x="682" y="1296" type="curve" smooth="yes"/>
      <point x="682" y="1372"/>
      <point x="661" y="1446"/>
      <point x="632" y="1511" type="curve"/>
    </contour>
  </outline>
  <guideline angle="90" x="1743" y="0"/>
  <guideline angle="0" x="0" y="583"/>
</glyph>
<glyph name="vowelUu.kn" format="2">
  <advance width="1864"/>
  <unicode hex="0C8A"/>
  <outline>
    <contour>
      <point x="1239" y="596.936" type="line"/>
      <point x="1239" y="193" type="line" smooth="yes"/>
      <point x="1239" y="57"/>
      <point x="1183" y="-14"/>
      <point x="1075" y="-14" type="curve" smooth="yes"/>
      <point x="966" y="-14"/>
      <point x="911" y="57"/>
      <point x="911" y="193" type="curve" smooth="yes"/>
      <point x="911" y="664" type="line"/>
      <point x="946" y="664" type="line"/>
      <point x="946" y="193" type="line" smooth="yes"/>
      <point x="946" y="80"/>
      <point x="990" y="19"/>
      <point x="1075" y="19" type="curve" smooth="yes"/>
      <point x="1159" y="19"/>
      <point x="1204" y="80"/>
      <point x="1204" y="193" type="curve" smooth="yes"/>
      <point x="1204" y="596.936" type="line"/>
    </contour>
    <contour>
      <point x="274" y="1196" type="curve" smooth="yes"/>
      <point x="384" y="1196"/>
      <point x="436" y="1125"/>
      <point x="436" y="977" type="curve" smooth="yes"/>
      <point x="436" y="697" type="line" smooth="yes"/>
      <point x="436" y="558.307"/>
      <point x="387.678" y="497"/>
      <point x="286" y="497" type="curve" smooth="yes"/>
      <point x="206.423" y="497"/>
      <point x="165.124" y="540"/>
      <point x="148" y="591" type="curve"/>
      <point x="141" y="591" type="line"/>
      <point x="141" y="680" type="line"/>
      <point x="157.338" y="583.873"/>
      <point x="199.233" y="530"/>
      <point x="286" y="530" type="curve" smooth="yes"/>
      <point x="354.596" y="530"/>
      <point x="401" y="567.223"/>
      <point x="401" y="697" type="curve" smooth="yes"/>
      <point x="401" y="974" type="line" smooth="yes"/>
      <point x="401" y="1102"/>
      <point x="361" y="1163"/>
      <point x="274" y="1163" type="curve" smooth="yes"/>
      <point x="187" y="1163"/>
      <point x="147" y="1102"/>
      <point x="147" y="974" type="curve" smooth="yes"/>
      <point x="147" y="617.308" type="line"/>
      <point x="112" y="617.118" type="line"/>
      <point x="112" y="977" type="line" smooth="yes"/>
      <point x="112" y="1125"/>
      <point x="164" y="1196"/>
    </contour>
    <contour>
      <point x="147" y="302" type="line" smooth="yes"/>
      <point x="147" y="115.319"/>
      <point x="224.319" y="19"/>
      <point x="374" y="19" type="curve" smooth="yes"/>
      <point x="525.67" y="19"/>
      <point x="602" y="115.319"/>
      <point x="602" y="302" type="curve" smooth="yes"/>
      <point x="602" y="983" type="line" smooth="yes"/>
      <point x="602" y="1128"/>
      <point x="659" y="1196"/>
      <point x="774" y="1196" type="curve" smooth="yes"/>
      <point x="888" y="1196"/>
      <point x="946" y="1128"/>
      <point x="946" y="983" type="curve" smooth="yes"/>
      <point x="946" y="587" type="line"/>
      <point x="911" y="587" type="line"/>
      <point x="911" y="982" type="line" smooth="yes"/>
      <point x="911" y="1104"/>
      <point x="866" y="1163"/>
      <point x="774" y="1163" type="curve" smooth="yes"/>
      <point x="681" y="1163"/>
      <point x="637" y="1104"/>
      <point x="637" y="982" type="curve" smooth="yes"/>
      <point x="637" y="303" type="line" smooth="yes"/>
      <point x="637" y="93.3229"/>
      <point x="548.672" y="-14"/>
      <point x="374" y="-14" type="curve" smooth="yes"/>
      <point x="201.318" y="-14"/>
      <point x="112" y="93.3229"/>
      <point x="112" y="303" type="curve" smooth="yes"/>
      <point x="112" y="627.118" type="line"/>
      <point x="147" y="627.308" type="line"/>
    </contour>
    <contour>
      <point x="1478" y="1196" type="curve" smooth="yes"/>
      <point x="1660" y="1196"/>
      <point x="1752" y="1089"/>
      <point x="1752" y="877" type="curve" smooth="yes"/>
      <point x="1752" y="545.294" type="line"/>
      <point x="1717" y="547.25" type="line"/>
      <point x="1717" y="876" type="line" smooth="yes"/>
      <point x="1717" y="1064"/>
      <point x="1636" y="1163"/>
      <point x="1478" y="1163" type="curve" smooth="yes"/>
      <point x="1319" y="1163"/>
      <point x="1239" y="1065"/>
      <point x="1239" y="877" type="curve" smooth="yes"/>
      <point x="1239" y="579.006" type="line"/>
      <point x="1204" y="579.006" type="line"/>
      <point x="1204" y="877" type="line" smooth="yes"/>
      <point x="1204" y="1089"/>
      <point x="1295" y="1196"/>
    </contour>
    <contour>
      <point x="1752" y="205" type="line" smooth="yes"/>
      <point x="1752" y="57"/>
      <point x="1699" y="-14"/>
      <point x="1589" y="-14" type="curve" smooth="yes"/>
      <point x="1479" y="-14"/>
      <point x="1426" y="57"/>
      <point x="1426" y="205" type="curve" smooth="yes"/>
      <point x="1426" y="473" type="line" smooth="yes"/>
      <point x="1426" y="613"/>
      <point x="1477" y="675"/>
      <point x="1582" y="675" type="curve" smooth="yes"/>
      <point x="1659" y="675"/>
      <point x="1700" y="631"/>
      <point x="1716" y="580" type="curve"/>
      <point x="1722" y="580" type="line"/>
      <point x="1722" y="489" type="line"/>
      <point x="1705.79" y="589.364"/>
      <point x="1665.18" y="642"/>
      <point x="1582" y="642" type="curve" smooth="yes"/>
      <point x="1510" y="642"/>
      <point x="1461" y="605"/>
      <point x="1461" y="473" type="curve" smooth="yes"/>
      <point x="1461" y="208" type="line" smooth="yes"/>
      <point x="1461" y="80"/>
      <point x="1502" y="19"/>
      <point x="1589" y="19" type="curve" smooth="yes"/>
      <point x="1676" y="19"/>
      <point x="1717" y="80"/>
      <point x="1717" y="208" type="curve" smooth="yes"/>
      <point x="1717" y="557.25" type="line"/>
      <point x="1752" y="555.294" type="line"/>
    </contour>
  </outline>
</glyph>
<glyph name="vowelE.kn" format="2">
  <advance width="858"/>
  <unicode hex="0C8E"/>
  <outline>
    <contour>
      <point x="583" y="-14" type="curve" smooth="yes"/>
      <point x="694" y="-14"/>
      <point x="749" y="57"/>
      <point x="749" y="213" type="curve" smooth="yes"/>
      <point x="749" y="577" type="line" smooth="yes"/>
      <point x="749" y="1023"/>
      <point x="625" y="1183"/>
      <point x="282" y="1183" type="curve" smooth="yes"/>
      <point x="275" y="1183"/>
      <point x="245.133" y="1183"/>
      <point x="240" y="1183" type="curve"/>
      <point x="231" y="1151" type="line"/>
      <point x="238.125" y="1151"/>
      <point x="273.07" y="1151"/>
      <point x="280" y="1151" type="curve" smooth="yes"/>
      <point x="600" y="1151"/>
      <point x="714" y="999"/>
      <point x="714" y="578" type="curve" smooth="yes"/>
      <point x="714" y="214" type="line" smooth="yes"/>
      <point x="714" y="83"/>
      <point x="672" y="19"/>
      <point x="582" y="19" type="curve" smooth="yes"/>
      <point x="492" y="19"/>
      <point x="449" y="80"/>
      <point x="448" y="213" type="curve" smooth="yes"/>
      <point x="446" y="425" type="line"/>
      <point x="416" y="425" type="line"/>
      <point x="414" y="220" type="line" smooth="yes"/>
      <point x="413" y="82"/>
      <point x="370" y="19"/>
      <point x="274" y="19" type="curve" smooth="yes"/>
      <point x="181" y="19"/>
      <point x="135" y="82"/>
      <point x="135" y="222" type="curve" smooth="yes"/>
      <point x="135" y="472" type="line" smooth="yes"/>
      <point x="135" y="577"/>
      <point x="167" y="626"/>
      <point x="236" y="626" type="curve" smooth="yes"/>
      <point x="274" y="626"/>
      <point x="302" y="614"/>
      <point x="333" y="591" type="curve"/>
      <point x="330" y="629" type="line"/>
      <point x="301" y="650"/>
      <point x="273" y="660"/>
      <point x="236" y="660" type="curve" smooth="yes"/>
      <point x="144" y="660"/>
      <point x="100" y="600"/>
      <point x="100" y="478" type="curve" smooth="yes"/>
      <point x="100" y="221" type="line" smooth="yes"/>
      <point x="100" y="59"/>
      <point x="157" y="-14"/>
      <point x="273" y="-14" type="curve" smooth="yes"/>
      <point x="364" y="-14"/>
      <point x="421" y="37"/>
      <point x="430" y="135" type="curve"/>
      <point x="431" y="135" type="line"/>
      <point x="437" y="37"/>
      <point x="493" y="-14"/>
    </contour>
  </outline>
</glyph>
<glyph name="vowelEe.kn" format="2">
  <advance width="858"/>
  <unicode hex="0C8F"/>
  <outline>
    <contour>
      <point x="714" y="578" type="curve" smooth="yes"/>
      <point x="714" y="214" type="line" smooth="yes"/>
      <point x="714" y="83"/>
      <point x="672" y="19"/>
      <point x="582" y="19" type="curve" smooth="yes"/>
      <point x="492" y="19"/>
      <point x="449" y="80"/>
      <point x="448" y="213" type="curve" smooth="yes"/>
      <point x="446" y="425" type="line"/>
      <point x="416" y="425" type="line"/>
      <point x="414" y="220" type="line" smooth="yes"/>
      <point x="413" y="82"/>
      <point x="370" y="19"/>
      <point x="274" y="19" type="curve" smooth="yes"/>
      <point x="181" y="19"/>
      <point x="135" y="82"/>
      <point x="135" y="222" type="curve" smooth="yes"/>
      <point x="135" y="472" type="line" smooth="yes"/>
      <point x="135" y="577"/>
      <point x="167" y="626"/>
      <point x="236" y="626" type="curve" smooth="yes"/>
      <point x="274" y="626"/>
      <point x="302" y="614"/>
      <point x="333" y="591" type="curve"/>
      <point x="330" y="629" type="line"/>
      <point x="301" y="650"/>
      <point x="273" y="660"/>
      <point x="236" y="660" type="curve" smooth="yes"/>
      <point x="144" y="660"/>
      <point x="100" y="600"/>
      <point x="100" y="478" type="curve" smooth="yes"/>
      <point x="100" y="221" type="line" smooth="yes"/>
      <point x="100" y="59"/>
      <point x="157" y="-14"/>
      <point x="273" y="-14" type="curve" smooth="yes"/>
      <point x="364" y="-14"/>
      <point x="421" y="37"/>
      <point x="430" y="135" type="curve"/>
      <point x="431" y="135" type="line"/>
      <point x="437" y="37"/>
      <point x="493" y="-14"/>
      <point x="583" y="-14" type="curve" smooth="yes"/>
      <point x="694" y="-14"/>
      <point x="749" y="57"/>
      <point x="749" y="213" type="curve" smooth="yes"/>
      <point x="749" y="577" type="line" smooth="yes"/>
      <point x="749" y="983"/>
      <point x="674" y="1155"/>
      <point x="471" y="1185" type="curve"/>
      <point x="476" y="1152" type="line"/>
      <point x="651" y="1122"/>
      <point x="714" y="955"/>
    </contour>
    <contour>
      <point x="329" y="928" type="curve" smooth="yes"/>
      <point x="446" y="928"/>
      <point x="506" y="1005"/>
      <point x="506" y="1153" type="curve"/>
      <point x="471" y="1185" type="line"/>
      <point x="471" y="1153" type="line" smooth="yes"/>
      <point x="471" y="1024"/>
      <point x="423" y="961"/>
      <point x="329" y="961" type="curve" smooth="yes"/>
      <point x="235" y="961"/>
      <point x="187" y="1024"/>
      <point x="187" y="1153" type="curve" smooth="yes"/>
      <point x="187" y="1193" type="line"/>
      <point x="152" y="1185" type="line"/>
      <point x="152" y="1153" type="line" smooth="yes"/>
      <point x="152" y="1005"/>
      <point x="212" y="928"/>
    </contour>
  </outline>
  <guideline angle="0" x="0" y="2372"/>
  <guideline angle="0" x="0" y="1204"/>
  <guideline angle="0" x="0" y="1464"/>
</glyph>
<glyph name="vowelAi.kn" format="2">
  <advance width="867"/>
  <unicode hex="0C90"/>
  <outline>
    <contour>
      <point x="587" y="1196" type="curve" smooth="yes"/>
      <point x="497" y="1196"/>
      <point x="444" y="1146"/>
      <point x="435" y="1051" type="curve"/>
      <point x="433" y="1051" type="line"/>
      <point x="424" y="1146"/>
      <point x="371" y="1196"/>
      <point x="282" y="1196" type="curve" smooth="yes"/>
      <point x="170" y="1196"/>
      <point x="114" y="1127"/>
      <point x="114" y="972" type="curve" smooth="yes"/>
      <point x="114" y="753" type="line"/>
      <point x="149" y="753" type="line"/>
      <point x="149" y="971" type="line" smooth="yes"/>
      <point x="149" y="1104"/>
      <point x="194" y="1163"/>
      <point x="282" y="1163" type="curve" smooth="yes"/>
      <point x="372" y="1163"/>
      <point x="415" y="1101"/>
      <point x="416" y="966" type="curve" smooth="yes"/>
      <point x="418" y="753" type="line"/>
      <point x="450" y="753" type="line"/>
      <point x="452" y="966" type="line" smooth="yes"/>
      <point x="453" y="1101"/>
      <point x="496" y="1163"/>
      <point x="587" y="1163" type="curve" smooth="yes"/>
      <point x="676" y="1163"/>
      <point x="720" y="1101"/>
      <point x="720" y="965" type="curve" smooth="yes"/>
      <point x="720" y="216" type="line" smooth="yes"/>
      <point x="720" y="84"/>
      <point x="677" y="19"/>
      <point x="587" y="19" type="curve" smooth="yes"/>
      <point x="496" y="19"/>
      <point x="453" y="79"/>
      <point x="452" y="215" type="curve" smooth="yes"/>
      <point x="450" y="425" type="line"/>
      <point x="420" y="425" type="line"/>
      <point x="418" y="220" type="line" smooth="yes"/>
      <point x="417" y="82"/>
      <point x="374" y="19"/>
      <point x="278" y="19" type="curve" smooth="yes"/>
      <point x="185" y="19"/>
      <point x="139" y="82"/>
      <point x="139" y="222" type="curve" smooth="yes"/>
      <point x="139" y="462" type="line" smooth="yes"/>
      <point x="139" y="567"/>
      <point x="171" y="616"/>
      <point x="240" y="616" type="curve" smooth="yes"/>
      <point x="278" y="616"/>
      <point x="306" y="604"/>
      <point x="337" y="581" type="curve"/>
      <point x="334" y="619" type="line"/>
      <point x="305" y="640"/>
      <point x="277" y="650"/>
      <point x="240" y="650" type="curve" smooth="yes"/>
      <point x="148" y="650"/>
      <point x="104" y="590"/>
      <point x="104" y="468" type="curve" smooth="yes"/>
      <point x="104" y="221" type="line" smooth="yes"/>
      <point x="104" y="59"/>
      <point x="161" y="-14"/>
      <point x="277" y="-14" type="curve" smooth="yes"/>
      <point x="368" y="-14"/>
      <point x="425" y="37"/>
      <point x="434" y="135" type="curve"/>
      <point x="435" y="135" type="line"/>
      <point x="441" y="37"/>
      <point x="497" y="-14"/>
      <point x="588" y="-14" type="curve" smooth="yes"/>
      <point x="699" y="-14"/>
      <point x="755" y="58"/>
      <point x="755" y="215" type="curve" smooth="yes"/>
      <point x="755" y="966" type="line" smooth="yes"/>
      <point x="755" y="1124"/>
      <point x="700" y="1196"/>
    </contour>
  </outline>
</glyph>
<glyph name="vowelAu.kn" format="2">
  <advance width="907"/>
  <unicode hex="0C94"/>
  <outline>
    <contour>
      <point x="713" y="253" type="curve" smooth="yes"/>
      <point x="713" y="216" type="line" smooth="yes"/>
      <point x="713" y="83"/>
      <point x="668" y="19"/>
      <point x="575" y="19" type="curve" smooth="yes"/>
      <point x="483" y="19"/>
      <point x="440" y="81"/>
      <point x="439" y="217" type="curve" smooth="yes"/>
      <point x="437" y="411" type="line"/>
      <point x="418" y="411" type="line"/>
      <point x="422" y="145" type="line"/>
      <point x="428" y="40"/>
      <point x="484" y="-14"/>
      <point x="576" y="-14" type="curve" smooth="yes"/>
      <point x="690" y="-14"/>
      <point x="748" y="57"/>
      <point x="748" y="215" type="curve" smooth="yes"/>
      <point x="748" y="252" type="line" smooth="yes"/>
      <point x="748" y="321"/>
      <point x="740" y="386"/>
      <point x="722" y="443" type="curve"/>
      <point x="687" y="443" type="line"/>
      <point x="705" y="386"/>
      <point x="713" y="321"/>
    </contour>
    <contour>
      <point x="266" y="1196" type="curve" smooth="yes"/>
      <point x="158" y="1196"/>
      <point x="103" y="1129"/>
      <point x="103" y="999" type="curve" smooth="yes"/>
      <point x="103" y="912" type="line" smooth="yes"/>
      <point x="103" y="829"/>
      <point x="120" y="748"/>
      <point x="143" y="701" type="curve"/>
      <point x="180" y="701" type="line"/>
      <point x="154" y="750"/>
      <point x="138" y="824"/>
      <point x="138" y="914" type="curve" smooth="yes"/>
      <point x="138" y="999" type="line" smooth="yes"/>
      <point x="138" y="1107"/>
      <point x="181" y="1163"/>
      <point x="266" y="1163" type="curve" smooth="yes"/>
      <point x="350" y="1163"/>
      <point x="394" y="1107"/>
      <point x="394" y="999" type="curve" smooth="yes"/>
      <point x="394" y="925" type="line" smooth="yes"/>
      <point x="394" y="797"/>
      <point x="354" y="725"/>
      <point x="280" y="641" type="curve" smooth="yes"/>
      <point x="211" y="562" type="line" smooth="yes"/>
      <point x="126" y="465"/>
      <point x="82" y="392"/>
      <point x="82" y="254" type="curve" smooth="yes"/>
      <point x="82" y="217" type="line" smooth="yes"/>
      <point x="82" y="58"/>
      <point x="141" y="-14"/>
      <point x="260" y="-14" type="curve" smooth="yes"/>
      <point x="355" y="-14"/>
      <point x="413" y="39"/>
      <point x="420" y="142" type="curve"/>
      <point x="424" y="142" type="line"/>
      <point x="424" y="411" type="line"/>
      <point x="405" y="411" type="line"/>
      <point x="403" y="217" type="line" smooth="yes"/>
      <point x="402" y="81"/>
      <point x="357" y="19"/>
      <point x="261" y="19" type="curve" smooth="yes"/>
      <point x="165" y="19"/>
      <point x="117" y="81"/>
      <point x="117" y="218" type="curve" smooth="yes"/>
      <point x="117" y="254" type="line" smooth="yes"/>
      <point x="117" y="378"/>
      <point x="156" y="448"/>
      <point x="237" y="540" type="curve" smooth="yes"/>
      <point x="305" y="618" type="line" smooth="yes"/>
      <point x="383" y="708"/>
      <point x="429" y="787"/>
      <point x="429" y="924" type="curve" smooth="yes"/>
      <point x="429" y="999" type="line" smooth="yes"/>
      <point x="429" y="1129"/>
      <point x="373" y="1196"/>
    </contour>
    <contour>
      <point x="279" y="1173" type="line" smooth="yes"/>
      <point x="380" y="1173"/>
      <point x="429" y="1230"/>
      <point x="429" y="1338" type="curve" smooth="yes"/>
      <point x="429" y="1350" type="line" smooth="yes"/>
      <point x="429" y="1427"/>
      <point x="401" y="1478"/>
      <point x="355" y="1489" type="curve"/>
      <point x="355" y="1506" type="line"/>
      <point x="275" y="1506" type="line"/>
      <point x="275" y="1490" type="line"/>
      <point x="355" y="1490"/>
      <point x="394" y="1441"/>
      <point x="394" y="1350" type="curve" smooth="yes"/>
      <point x="394" y="1340" type="line" smooth="yes"/>
      <point x="394" y="1245"/>
      <point x="355" y="1196"/>
      <point x="275" y="1196" type="curve" smooth="yes"/>
      <point x="266" y="1196" type="line"/>
      <point x="275" y="1173" type="line"/>
    </contour>
    <contour>
      <point x="854" y="1074.47" type="line"/>
      <point x="854" y="1154" type="line" smooth="yes"/>
      <point x="854" y="1408"/>
      <point x="758" y="1521"/>
      <point x="540" y="1521" type="curve" smooth="yes"/>
      <point x="149" y="1521" type="line"/>
      <point x="149" y="1490" type="line"/>
      <point x="538" y="1490" type="line" smooth="yes"/>
      <point x="733" y="1490"/>
      <point x="819" y="1390"/>
      <point x="819" y="1153" type="curve" smooth="yes"/>
      <point x="819" y="1076.7" type="line"/>
    </contour>
    <contour>
      <point x="819" y="1078.7" type="line"/>
      <point x="819" y="788" type="line" smooth="yes"/>
      <point x="819" y="675"/>
      <point x="784" y="621"/>
      <point x="709" y="621" type="curve" smooth="yes"/>
      <point x="634" y="621"/>
      <point x="599" y="675"/>
      <point x="599" y="788" type="curve" smooth="yes"/>
      <point x="599" y="998" type="line" smooth="yes"/>
      <point x="599" y="1109"/>
      <point x="643" y="1144"/>
      <point x="704" y="1144" type="curve" smooth="yes"/>
      <point x="775.153" y="1144"/>
      <point x="810.78" y="1097.72"/>
      <point x="824" y="1017" type="curve"/>
      <point x="824" y="1107" type="line"/>
      <point x="818" y="1107" type="line"/>
      <point x="804" y="1144"/>
      <point x="768" y="1177"/>
      <point x="704" y="1177" type="curve" smooth="yes"/>
      <point x="612" y="1177"/>
      <point x="564" y="1120"/>
      <point x="564" y="998" type="curve" smooth="yes"/>
      <point x="564" y="785" type="line" smooth="yes"/>
      <point x="564" y="652"/>
      <point x="611" y="588"/>
      <point x="709" y="588" type="curve" smooth="yes"/>
      <point x="807" y="588"/>
      <point x="854" y="652"/>
      <point x="854" y="785" type="curve" smooth="yes"/>
      <point x="854" y="1076.47" type="line"/>
    </contour>
  </outline>
</glyph>
<glyph name="Ka.kn" format="2">
  <advance width="690"/>
  <unicode hex="0C95"/>
  <outline>
    <contour>
      <point x="72" y="765" type="line"/>
      <point x="72" y="734" type="line"/>
      <point x="283" y="734" type="line"/>
      <point x="283" y="740" type="line"/>
      <point x="411" y="740" type="line"/>
      <point x="411" y="734" type="line"/>
      <point x="618" y="734" type="line"/>
      <point x="618" y="765" type="line"/>
    </contour>
    <contour>
      <point x="327" y="1157" type="line"/>
      <point x="327" y="760" type="line"/>
      <point x="362" y="760" type="line"/>
      <point x="362" y="1157" type="line"/>
    </contour>
    <contour>
      <point x="72" y="1178" type="line"/>
      <point x="72" y="1146" type="line"/>
      <point x="428" y="1146" type="line"/>
      <point x="428" y="1178" type="line"/>
    </contour>
    <contour>
      <point x="345" y="17" type="curve" smooth="yes"/>
      <point x="221" y="17"/>
      <point x="158" y="97"/>
      <point x="158" y="253" type="curve" smooth="yes"/>
      <point x="158" y="499" type="line" smooth="yes"/>
      <point x="158" y="655"/>
      <point x="221" y="736"/>
      <point x="345" y="736" type="curve" smooth="yes"/>
      <point x="468" y="736"/>
      <point x="532" y="655"/>
      <point x="532" y="499" type="curve" smooth="yes"/>
      <point x="532" y="253" type="line" smooth="yes"/>
      <point x="532" y="97"/>
      <point x="469" y="17"/>
    </contour>
    <contour>
      <point x="232" y="742" type="line"/>
      <point x="232" y="733" type="line"/>
      <point x="180" y="711"/>
      <point x="123" y="653"/>
      <point x="123" y="499" type="curve" smooth="yes"/>
      <point x="123" y="253" type="line" smooth="yes"/>
      <point x="123" y="76"/>
      <point x="199" y="-16"/>
      <point x="345" y="-16" type="curve" smooth="yes"/>
      <point x="491" y="-16"/>
      <point x="567" y="76"/>
      <point x="567" y="253" type="curve" smooth="yes"/>
      <point x="567" y="499" type="line" smooth="yes"/>
      <point x="567" y="653"/>
      <point x="510" y="711"/>
      <point x="457" y="733" type="curve"/>
      <point x="457" y="742" type="line"/>
    </contour>
    <contour>
      <point x="533" y="1511" type="line"/>
      <point x="564" y="1442"/>
      <point x="583" y="1367"/>
      <point x="583" y="1296" type="curve" smooth="yes"/>
      <point x="583" y="1214"/>
      <point x="550" y="1178"/>
      <point x="472" y="1178" type="curve" smooth="yes"/>
      <point x="410" y="1178" type="line"/>
      <point x="410" y="1146" type="line"/>
      <point x="474" y="1146" type="line" smooth="yes"/>
      <point x="573" y="1146"/>
      <point x="618" y="1193"/>
      <point x="618" y="1296" type="curve" smooth="yes"/>
      <point x="618" y="1372"/>
      <point x="597" y="1446"/>
      <point x="568" y="1511" type="curve"/>
    </contour>
  </outline>
</glyph>
<glyph name="Cha.kn" format="2">
  <advance width="892"/>
  <unicode hex="0C9B"/>
  <outline>
    <contour>
      <point x="780" y="220" type="curve" smooth="yes"/>
      <point x="780" y="848" type="line" smooth="yes"/>
      <point x="780" y="1028.63"/>
      <point x="736.089" y="1116.73"/>
      <point x="658" y="1144.97" type="curve"/>
      <point x="658" y="1147.54"/>
      <point x="658" y="1164.84"/>
      <point x="658" y="1167" type="curve"/>
      <point x="538" y="1167" type="line"/>
      <point x="538" y="1146" type="line"/>
      <point x="685" y="1146"/>
      <point x="745" y="1059"/>
      <point x="745" y="849" type="curve" smooth="yes"/>
      <point x="745" y="221" type="line" smooth="yes"/>
      <point x="745" y="82"/>
      <point x="699" y="19"/>
      <point x="607" y="19" type="curve" smooth="yes"/>
      <point x="513" y="19"/>
      <point x="468" y="82"/>
      <point x="467" y="221" type="curve" smooth="yes"/>
      <point x="465" y="411" type="line"/>
      <point x="433" y="411" type="line"/>
      <point x="431" y="221" type="line" smooth="yes"/>
      <point x="430" y="82"/>
      <point x="384" y="19"/>
      <point x="288" y="19" type="curve" smooth="yes"/>
      <point x="194" y="19"/>
      <point x="147" y="82"/>
      <point x="147" y="222" type="curve" smooth="yes"/>
      <point x="147" y="645.3" type="line"/>
      <point x="112" y="642.6" type="line"/>
      <point x="112" y="221" type="line" smooth="yes"/>
      <point x="112" y="59"/>
      <point x="170" y="-14"/>
      <point x="287" y="-14" type="curve" smooth="yes"/>
      <point x="383.095" y="-14"/>
      <point x="441.886" y="39.9877"/>
      <point x="447.836" y="146" type="curve"/>
      <point x="450.163" y="146" type="line"/>
      <point x="456.095" y="39.9877"/>
      <point x="513.886" y="-14"/>
      <point x="608" y="-14" type="curve" smooth="yes"/>
      <point x="723" y="-14"/>
      <point x="780" y="59"/>
    </contour>
    <contour>
      <point x="650" y="1146" type="line"/>
      <point x="650" y="1178" type="line"/>
      <point x="507" y="1178" type="line"/>
      <point x="507" y="1146" type="line"/>
    </contour>
    <contour>
      <point x="274" y="1196" type="curve" smooth="yes"/>
      <point x="164" y="1196"/>
      <point x="112" y="1125"/>
      <point x="112" y="977" type="curve" smooth="yes"/>
      <point x="112" y="632.583" type="line"/>
      <point x="147" y="635.305" type="line"/>
      <point x="147" y="974" type="line" smooth="yes"/>
      <point x="147" y="1102"/>
      <point x="187" y="1163"/>
      <point x="274" y="1163" type="curve" smooth="yes"/>
      <point x="361" y="1163"/>
      <point x="401" y="1102"/>
      <point x="401" y="974" type="curve" smooth="yes"/>
      <point x="401" y="712" type="line" smooth="yes"/>
      <point x="401" y="582"/>
      <point x="355" y="545"/>
      <point x="286" y="545" type="curve" smooth="yes"/>
      <point x="201.413" y="545"/>
      <point x="158.112" y="596"/>
      <point x="142" y="693" type="curve"/>
      <point x="143" y="606" type="line"/>
      <point x="148" y="606" type="line"/>
      <point x="165" y="555"/>
      <point x="206" y="512"/>
      <point x="286" y="512" type="curve" smooth="yes"/>
      <point x="388" y="512"/>
      <point x="436" y="573"/>
      <point x="436" y="712" type="curve" smooth="yes"/>
      <point x="436" y="977" type="line" smooth="yes"/>
      <point x="436" y="1125"/>
      <point x="384" y="1196"/>
    </contour>
    <contour>
      <point x="449" y="-349" type="curve" smooth="yes"/>
      <point x="464" y="-349"/>
      <point x="470" y="-338"/>
      <point x="470" y="-314" type="curve" smooth="yes"/>
      <point x="470" y="-244" type="line" smooth="yes"/>
      <point x="470" y="-118"/>
      <point x="465" y="-35"/>
      <point x="449" y="35" type="curve"/>
      <point x="433" y="-35"/>
      <point x="428" y="-118"/>
      <point x="428" y="-244" type="curve" smooth="yes"/>
      <point x="428" y="-314" type="line" smooth="yes"/>
      <point x="428" y="-338"/>
      <point x="434" y="-349"/>
    </contour>
    <contour>
      <point x="705" y="1511" type="line"/>
      <point x="736" y="1442"/>
      <point x="755" y="1367"/>
      <point x="755" y="1296" type="curve" smooth="yes"/>
      <point x="755" y="1214"/>
      <point x="722" y="1178"/>
      <point x="644" y="1178" type="curve" smooth="yes"/>
      <point x="582" y="1178" type="line"/>
      <point x="582" y="1146" type="line"/>
      <point x="646" y="1146" type="line" smooth="yes"/>
      <point x="745" y="1146"/>
      <point x="790" y="1193"/>
      <point x="790" y="1296" type="curve" smooth="yes"/>
      <point x="790" y="1372"/>
      <point x="769" y="1446"/>
      <point x="740" y="1511" type="curve"/>
    </contour>
  </outline>
</glyph>
<glyph name="Jha.kn" format="2">
  <advance width="1388"/>
  <unicode hex="0C9D"/>
  <outline>
    <component base="matraU.kn" xOffset="714"/>
    <component base="matraU.kn" xOffset="1050"/>
    <component base="Ra.kn"/>
    <contour>
      <point x="581" y="234" type="line"/>
      <point x="604" y="234" type="line"/>
      <point x="604" y="316" type="line"/>
      <point x="581" y="316" type="line"/>
    </contour>
    <contour>
      <point x="928" y="-349" type="curve" smooth="yes"/>
      <point x="943" y="-349"/>
      <point x="949" y="-338"/>
      <point x="949" y="-314" type="curve" smooth="yes"/>
      <point x="949" y="-244" type="line" smooth="yes"/>
      <point x="949" y="-118"/>
      <point x="944" y="-35"/>
      <point x="928" y="35" type="curve"/>
      <point x="912" y="-35"/>
      <point x="907" y="-118"/>
      <point x="907" y="-244" type="curve" smooth="yes"/>
      <point x="907" y="-314" type="line" smooth="yes"/>
      <point x="907" y="-338"/>
      <point x="913" y="-349"/>
    </contour>
  </outline>
  <guideline angle="0" x="0" y="-274"/>
  <guideline angle="90" x="907" y="0"/>
  <guideline angle="90" x="2123" y="0"/>
</glyph>
<glyph name="Ddha.kn" format="2">
  <advance width="848"/>
  <unicode hex="0CA2"/>
  <outline>
    <contour>
      <point x="713" y="215" type="line" smooth="yes"/>
      <point x="713" y="80"/>
      <point x="668" y="19"/>
      <point x="581" y="19" type="curve" smooth="yes"/>
      <point x="487" y="19"/>
      <point x="446" y="79"/>
      <point x="445" y="210" type="curve" smooth="yes"/>
      <point x="443" y="425" type="line"/>
      <point x="411" y="425" type="line"/>
      <point x="409" y="210" type="line" smooth="yes"/>
      <point x="408" y="79"/>
      <point x="365" y="19"/>
      <point x="277" y="19" type="curve" smooth="yes"/>
      <point x="192" y="19"/>
      <point x="147" y="79"/>
      <point x="147" y="211" type="curve" smooth="yes"/>
      <point x="147" y="799" type="line" smooth="yes"/>
      <point x="147" y="1044"/>
      <point x="229" y="1146"/>
      <point x="426" y="1146" type="curve"/>
      <point x="421" y="1167" type="line"/>
      <point x="286" y="1167" type="line"/>
      <point x="286" y="1144" type="line"/>
      <point x="176" y="1115"/>
      <point x="112" y="1015"/>
      <point x="112" y="798" type="curve" smooth="yes"/>
      <point x="112" y="210" type="line" smooth="yes"/>
      <point x="112" y="56"/>
      <point x="168" y="-14"/>
      <point x="276" y="-14" type="curve" smooth="yes"/>
      <point x="364" y="-14"/>
      <point x="420" y="37"/>
      <point x="426" y="135" type="curve"/>
      <point x="428" y="135" type="line"/>
      <point x="434" y="37"/>
      <point x="490" y="-14"/>
      <point x="582" y="-14" type="curve" smooth="yes"/>
      <point x="691" y="-14"/>
      <point x="748" y="57"/>
      <point x="748" y="214" type="curve" smooth="yes"/>
      <point x="748" y="395" type="line" smooth="yes"/>
      <point x="748" y="540"/>
      <point x="709" y="624"/>
      <point x="595" y="641" type="curve"/>
      <point x="595" y="643" type="line"/>
      <point x="694" y="660"/>
      <point x="728" y="733"/>
      <point x="728" y="858" type="curve" smooth="yes"/>
      <point x="728" y="898" type="line" smooth="yes"/>
      <point x="728" y="1038"/>
      <point x="675" y="1120"/>
      <point x="577" y="1144" type="curve"/>
      <point x="577" y="1167" type="line"/>
      <point x="439" y="1167" type="line"/>
      <point x="426" y="1146" type="line"/>
      <point x="615" y="1146"/>
      <point x="693" y="1073"/>
      <point x="693" y="899" type="curve" smooth="yes"/>
      <point x="693" y="858" type="line" smooth="yes"/>
      <point x="693" y="720"/>
      <point x="652" y="660"/>
      <point x="535" y="658" type="curve" smooth="yes"/>
      <point x="488" y="657" type="line"/>
      <point x="488" y="626" type="line"/>
      <point x="535" y="625" type="line" smooth="yes"/>
      <point x="667" y="622"/>
      <point x="713" y="558"/>
      <point x="713" y="395" type="curve" smooth="yes"/>
    </contour>
    <contour>
      <point x="577" y="1146" type="line"/>
      <point x="577" y="1178" type="line"/>
      <point x="112" y="1178" type="line"/>
      <point x="112" y="1146" type="line"/>
    </contour>
    <contour>
      <point x="427" y="-349" type="curve" smooth="yes"/>
      <point x="442" y="-349"/>
      <point x="448" y="-338"/>
      <point x="448" y="-314" type="curve" smooth="yes"/>
      <point x="448" y="-244" type="line" smooth="yes"/>
      <point x="448" y="-118"/>
      <point x="443" y="-35"/>
      <point x="427" y="35" type="curve"/>
      <point x="411" y="-35"/>
      <point x="406" y="-118"/>
      <point x="406" y="-244" type="curve" smooth="yes"/>
      <point x="406" y="-314" type="line" smooth="yes"/>
      <point x="406" y="-338"/>
      <point x="412" y="-349"/>
    </contour>
    <contour>
      <point x="661" y="1511" type="line"/>
      <point x="692" y="1442"/>
      <point x="711" y="1367"/>
      <point x="711" y="1296" type="curve" smooth="yes"/>
      <point x="711" y="1214"/>
      <point x="678" y="1178"/>
      <point x="600" y="1178" type="curve" smooth="yes"/>
      <point x="538" y="1178" type="line"/>
      <point x="538" y="1146" type="line"/>
      <point x="602" y="1146" type="line" smooth="yes"/>
      <point x="701" y="1146"/>
      <point x="746" y="1193"/>
      <point x="746" y="1296" type="curve" smooth="yes"/>
      <point x="746" y="1372"/>
      <point x="725" y="1446"/>
      <point x="696" y="1511" type="curve"/>
    </contour>
  </outline>
</glyph>
<glyph name="Ta.kn" format="2">
  <advance width="592"/>
  <unicode hex="0CA4"/>
  <outline>
    <contour>
      <point x="266" y="18" type="curve" smooth="yes"/>
      <point x="162" y="18"/>
      <point x="93" y="67"/>
      <point x="38" y="134" type="curve"/>
      <point x="40" y="87" type="line"/>
      <point x="85" y="34"/>
      <point x="155" y="-15"/>
      <point x="267" y="-15" type="curve" smooth="yes"/>
      <point x="419" y="-15"/>
      <point x="500" y="76"/>
      <point x="500" y="278" type="curve" smooth="yes"/>
      <point x="500" y="375" type="line" smooth="yes"/>
      <point x="500" y="532"/>
      <point x="456" y="623"/>
      <point x="331" y="641" type="curve"/>
      <point x="331" y="643" type="line"/>
      <point x="438" y="660"/>
      <point x="476" y="741"/>
      <point x="476" y="878" type="curve" smooth="yes"/>
      <point x="476" y="908" type="line" smooth="yes"/>
      <point x="476" y="1043"/>
      <point x="436" y="1122"/>
      <point x="363" y="1145" type="curve"/>
      <point x="363" y="1167" type="line"/>
      <point x="246" y="1167" type="line"/>
      <point x="246" y="1146" type="line"/>
      <point x="383" y="1146"/>
      <point x="441" y="1076"/>
      <point x="441" y="909" type="curve" smooth="yes"/>
      <point x="441" y="878" type="line" smooth="yes"/>
      <point x="441" y="724"/>
      <point x="393" y="659"/>
      <point x="267" y="658" type="curve" smooth="yes"/>
      <point x="160" y="657" type="line"/>
      <point x="160" y="626" type="line"/>
      <point x="267" y="625" type="line" smooth="yes"/>
      <point x="414" y="624"/>
      <point x="465" y="552"/>
      <point x="465" y="375" type="curve" smooth="yes"/>
      <point x="465" y="279" type="line" smooth="yes"/>
      <point x="465" y="100"/>
      <point x="396" y="18"/>
    </contour>
    <contour>
      <point x="363" y="1146" type="line"/>
      <point x="363" y="1178" type="line"/>
      <point x="74" y="1178" type="line"/>
      <point x="74" y="1146" type="line"/>
    </contour>
    <contour>
      <point x="425" y="1511" type="line"/>
      <point x="456" y="1442"/>
      <point x="475" y="1367"/>
      <point x="475" y="1296" type="curve" smooth="yes"/>
      <point x="475" y="1214"/>
      <point x="442" y="1178"/>
      <point x="364" y="1178" type="curve" smooth="yes"/>
      <point x="302" y="1178" type="line"/>
      <point x="302" y="1146" type="line"/>
      <point x="366" y="1146" type="line" smooth="yes"/>
      <point x="465" y="1146"/>
      <point x="510" y="1193"/>
      <point x="510" y="1296" type="curve" smooth="yes"/>
      <point x="510" y="1372"/>
      <point x="489" y="1446"/>
      <point x="460" y="1511" type="curve"/>
    </contour>
  </outline>
</glyph>
<glyph name="Da.kn" format="2">
  <advance width="842"/>
  <unicode hex="0CA6"/>
  <outline>
    <contour>
      <point x="147" y="799" type="line" smooth="yes"/>
      <point x="147" y="1042"/>
      <point x="229" y="1146"/>
      <point x="421" y="1146" type="curve"/>
      <point x="421" y="1167" type="line"/>
      <point x="286" y="1167" type="line"/>
      <point x="286" y="1144" type="line"/>
      <point x="176" y="1115"/>
      <point x="112" y="1015"/>
      <point x="112" y="798" type="curve" smooth="yes"/>
      <point x="112" y="210" type="line" smooth="yes"/>
      <point x="112" y="56"/>
      <point x="166" y="-14"/>
      <point x="273" y="-14" type="curve" smooth="yes"/>
      <point x="360" y="-14"/>
      <point x="414" y="37"/>
      <point x="420" y="135" type="curve"/>
      <point x="422" y="135" type="line"/>
      <point x="428" y="37"/>
      <point x="482" y="-14"/>
      <point x="569" y="-14" type="curve" smooth="yes"/>
      <point x="676" y="-14"/>
      <point x="730" y="56"/>
      <point x="730" y="210" type="curve" smooth="yes"/>
      <point x="730" y="798" type="line" smooth="yes"/>
      <point x="730" y="1015"/>
      <point x="666" y="1115"/>
      <point x="556" y="1144" type="curve"/>
      <point x="556" y="1167" type="line"/>
      <point x="421" y="1167" type="line"/>
      <point x="421" y="1146" type="line"/>
      <point x="613" y="1146"/>
      <point x="695" y="1042"/>
      <point x="695" y="799" type="curve" smooth="yes"/>
      <point x="695" y="211" type="line" smooth="yes"/>
      <point x="695" y="79"/>
      <point x="652" y="19"/>
      <point x="568" y="19" type="curve" smooth="yes"/>
      <point x="481" y="19"/>
      <point x="440" y="79"/>
      <point x="439" y="210" type="curve" smooth="yes"/>
      <point x="437" y="425" type="line"/>
      <point x="405" y="425" type="line"/>
      <point x="403" y="210" type="line" smooth="yes"/>
      <point x="402" y="79"/>
      <point x="361" y="19"/>
      <point x="274" y="19" type="curve" smooth="yes"/>
      <point x="190" y="19"/>
      <point x="147" y="79"/>
      <point x="147" y="211" type="curve" smooth="yes"/>
    </contour>
    <contour>
      <point x="562" y="1146" type="line"/>
      <point x="562" y="1178" type="line"/>
      <point x="112" y="1178" type="line"/>
      <point x="112" y="1146" type="line"/>
    </contour>
    <contour>
      <point x="645" y="1511" type="line"/>
      <point x="676" y="1442"/>
      <point x="695" y="1367"/>
      <point x="695" y="1296" type="curve" smooth="yes"/>
      <point x="695" y="1214"/>
      <point x="662" y="1178"/>
      <point x="584" y="1178" type="curve" smooth="yes"/>
      <point x="522" y="1178" type="line"/>
      <point x="522" y="1146" type="line"/>
      <point x="586" y="1146" type="line" smooth="yes"/>
      <point x="685" y="1146"/>
      <point x="730" y="1193"/>
      <point x="730" y="1296" type="curve" smooth="yes"/>
      <point x="730" y="1372"/>
      <point x="709" y="1446"/>
      <point x="680" y="1511" type="curve"/>
    </contour>
  </outline>
</glyph>
<glyph name="Na.kn" format="2">
  <advance width="821"/>
  <unicode hex="0CA8"/>
  <outline>
    <contour>
      <point x="559" y="-14" type="curve" smooth="yes"/>
      <point x="661" y="-14"/>
      <point x="711" y="58"/>
      <point x="711" y="203" type="curve" smooth="yes"/>
      <point x="711" y="598" type="line" smooth="yes"/>
      <point x="711" y="960"/>
      <point x="619" y="1117"/>
      <point x="431" y="1145" type="curve"/>
      <point x="431" y="1167" type="line"/>
      <point x="251" y="1167" type="line"/>
      <point x="251" y="1146" type="line"/>
      <point x="565" y="1146"/>
      <point x="676" y="1021"/>
      <point x="676" y="598" type="curve" smooth="yes"/>
      <point x="676" y="206" type="line" smooth="yes"/>
      <point x="676" y="80"/>
      <point x="639" y="19"/>
      <point x="560" y="19" type="curve" smooth="yes"/>
      <point x="472" y="19"/>
      <point x="439" y="83"/>
      <point x="426" y="213" type="curve" smooth="yes"/>
      <point x="398" y="498" type="line" smooth="yes"/>
      <point x="385" y="634"/>
      <point x="343" y="698"/>
      <point x="246" y="698" type="curve" smooth="yes"/>
      <point x="148" y="698"/>
      <point x="103" y="630"/>
      <point x="103" y="493" type="curve" smooth="yes"/>
      <point x="103" y="351" type="line" smooth="yes"/>
      <point x="103" y="193"/>
      <point x="123" y="82"/>
      <point x="165" y="-6" type="curve"/>
      <point x="203" y="-6" type="line"/>
      <point x="161" y="78"/>
      <point x="138" y="190"/>
      <point x="138" y="350" type="curve" smooth="yes"/>
      <point x="138" y="494" type="line" smooth="yes"/>
      <point x="138" y="607"/>
      <point x="172" y="665"/>
      <point x="245" y="665" type="curve" smooth="yes"/>
      <point x="322" y="665"/>
      <point x="353" y="610"/>
      <point x="364" y="498" type="curve" smooth="yes"/>
      <point x="392" y="213" type="line" smooth="yes"/>
      <point x="407" y="61"/>
      <point x="449" y="-14"/>
    </contour>
    <contour>
      <point x="558" y="1146" type="line"/>
      <point x="558" y="1178" type="line"/>
      <point x="113" y="1178" type="line"/>
      <point x="113" y="1146" type="line"/>
    </contour>
    <contour>
      <point x="638" y="1511" type="line"/>
      <point x="669" y="1442"/>
      <point x="688" y="1367"/>
      <point x="688" y="1296" type="curve" smooth="yes"/>
      <point x="688" y="1214"/>
      <point x="655" y="1178"/>
      <point x="577" y="1178" type="curve" smooth="yes"/>
      <point x="515" y="1178" type="line"/>
      <point x="515" y="1146" type="line"/>
      <point x="579" y="1146" type="line" smooth="yes"/>
      <point x="678" y="1146"/>
      <point x="723" y="1193"/>
      <point x="723" y="1296" type="curve" smooth="yes"/>
      <point x="723" y="1372"/>
      <point x="702" y="1446"/>
      <point x="673" y="1511" type="curve"/>
    </contour>
  </outline>
</glyph>
<glyph name="Pa.kn" format="2">
  <advance width="864"/>
  <unicode hex="0CAA"/>
  <outline>
    <contour>
      <point x="237" y="660" type="curve" smooth="yes"/>
      <point x="145" y="660"/>
      <point x="101" y="600"/>
      <point x="101" y="478" type="curve" smooth="yes"/>
      <point x="101" y="221" type="line" smooth="yes"/>
      <point x="101" y="59"/>
      <point x="158" y="-14"/>
      <point x="274" y="-14" type="curve" smooth="yes"/>
      <point x="368" y="-14"/>
      <point x="426" y="40"/>
      <point x="432" y="145" type="curve"/>
      <point x="434" y="145" type="line"/>
      <point x="440" y="40"/>
      <point x="496" y="-14"/>
      <point x="588" y="-14" type="curve" smooth="yes"/>
      <point x="701" y="-14"/>
      <point x="757" y="59"/>
      <point x="757" y="219" type="curve" smooth="yes"/>
      <point x="757" y="572" type="line" smooth="yes"/>
      <point x="757" y="712"/>
      <point x="729" y="833"/>
      <point x="658" y="916" type="curve"/>
      <point x="620" y="916" type="line"/>
      <point x="692" y="835"/>
      <point x="722" y="712"/>
      <point x="722" y="574" type="curve" smooth="yes"/>
      <point x="722" y="220" type="line" smooth="yes"/>
      <point x="722" y="82"/>
      <point x="677" y="19"/>
      <point x="587" y="19" type="curve" smooth="yes"/>
      <point x="494" y="19"/>
      <point x="452" y="82"/>
      <point x="451" y="220" type="curve" smooth="yes"/>
      <point x="449" y="425" type="line"/>
      <point x="417" y="425" type="line"/>
      <point x="415" y="220" type="line" smooth="yes"/>
      <point x="414" y="82"/>
      <point x="371" y="19"/>
      <point x="275" y="19" type="curve" smooth="yes"/>
      <point x="182" y="19"/>
      <point x="136" y="82"/>
      <point x="136" y="222" type="curve" smooth="yes"/>
      <point x="136" y="472" type="line" smooth="yes"/>
      <point x="136" y="577"/>
      <point x="168" y="626"/>
      <point x="237" y="626" type="curve" smooth="yes"/>
      <point x="275" y="626"/>
      <point x="303" y="614"/>
      <point x="334" y="591" type="curve"/>
      <point x="331" y="629" type="line"/>
      <point x="302" y="650"/>
      <point x="274" y="660"/>
    </contour>
    <contour>
      <point x="602" y="1146" type="line"/>
      <point x="602" y="1178" type="line"/>
      <point x="119" y="1178" type="line"/>
      <point x="119" y="1146" type="line"/>
    </contour>
    <contour>
      <point x="433" y="715" type="curve" smooth="yes"/>
      <point x="449" y="715"/>
      <point x="453" y="733"/>
      <point x="453" y="791" type="curve" smooth="yes"/>
      <point x="453" y="938" type="line" smooth="yes"/>
      <point x="453" y="996"/>
      <point x="449" y="1014"/>
      <point x="433" y="1014" type="curve" smooth="yes"/>
      <point x="417" y="1014"/>
      <point x="413" y="996"/>
      <point x="413" y="938" type="curve" smooth="yes"/>
      <point x="413" y="791" type="line" smooth="yes"/>
      <point x="413" y="733"/>
      <point x="417" y="715"/>
    </contour>
    <contour>
      <point x="666" y="1511" type="line"/>
      <point x="697" y="1442"/>
      <point x="716" y="1367"/>
      <point x="716" y="1296" type="curve" smooth="yes"/>
      <point x="716" y="1214"/>
      <point x="683" y="1178"/>
      <point x="605" y="1178" type="curve" smooth="yes"/>
      <point x="543" y="1178" type="line"/>
      <point x="543" y="1146" type="line"/>
      <point x="607" y="1146" type="line" smooth="yes"/>
      <point x="706" y="1146"/>
      <point x="751" y="1193"/>
      <point x="751" y="1296" type="curve" smooth="yes"/>
      <point x="751" y="1372"/>
      <point x="730" y="1446"/>
      <point x="701" y="1511" type="curve"/>
    </contour>
  </outline>
</glyph>
<glyph name="Ra.kn" format="2">
  <advance width="716"/>
  <unicode hex="0CB0"/>
  <outline>
    <contour>
      <point x="244" y="1178" type="line"/>
      <point x="244" y="1144" type="line"/>
      <point x="158" y="1110"/>
      <point x="112" y="1019"/>
      <point x="112" y="865" type="curve" smooth="yes"/>
      <point x="112" y="298" type="line" smooth="yes"/>
      <point x="112" y="89"/>
      <point x="195" y="-16"/>
      <point x="358" y="-16" type="curve" smooth="yes"/>
      <point x="521" y="-16"/>
      <point x="604" y="89"/>
      <point x="604" y="298" type="curve" smooth="yes"/>
      <point x="604" y="865" type="line" smooth="yes"/>
      <point x="604" y="1019"/>
      <point x="557" y="1110"/>
      <point x="471" y="1144" type="curve"/>
      <point x="471" y="1178" type="line"/>
    </contour>
    <contour>
      <point x="358" y="17" type="curve" smooth="yes"/>
      <point x="219" y="17"/>
      <point x="147" y="112"/>
      <point x="147" y="298" type="curve" smooth="yes"/>
      <point x="147" y="865" type="line" smooth="yes"/>
      <point x="147" y="1051"/>
      <point x="219" y="1146"/>
      <point x="358" y="1146" type="curve" smooth="yes"/>
      <point x="497" y="1146"/>
      <point x="569" y="1051"/>
      <point x="569" y="865" type="curve" smooth="yes"/>
      <point x="569" y="298" type="line" smooth="yes"/>
      <point x="569" y="112"/>
      <point x="497" y="17"/>
    </contour>
    <contour>
      <point x="471" y="1146" type="line"/>
      <point x="471" y="1178" type="line"/>
      <point x="112" y="1178" type="line"/>
      <point x="112" y="1146" type="line"/>
    </contour>
    <contour>
      <point x="525" y="1511" type="line"/>
      <point x="556" y="1442"/>
      <point x="575" y="1367"/>
      <point x="575" y="1296" type="curve" smooth="yes"/>
      <point x="575" y="1214"/>
      <point x="542" y="1178"/>
      <point x="464" y="1178" type="curve" smooth="yes"/>
      <point x="402" y="1178" type="line"/>
      <point x="402" y="1146" type="line"/>
      <point x="466" y="1146" type="line" smooth="yes"/>
      <point x="565" y="1146"/>
      <point x="610" y="1193"/>
      <point x="610" y="1296" type="curve" smooth="yes"/>
      <point x="610" y="1372"/>
      <point x="589" y="1446"/>
      <point x="560" y="1511" type="curve"/>
    </contour>
  </outline>
  <guideline angle="90" x="950" y="0"/>
  <guideline angle="90" x="1622" y="0"/>
  <guideline angle="90" x="251" y="0"/>
</glyph>
<glyph name="RraObsolete.kn" format="2">
  <advance width="994"/>
  <unicode hex="0CB1"/>
  <outline>
    <contour>
      <point x="112" y="635.45" type="line"/>
      <point x="112" y="241" type="line" smooth="yes"/>
      <point x="112" y="65"/>
      <point x="178" y="-14"/>
      <point x="311" y="-14" type="curve" smooth="yes"/>
      <point x="421.083" y="-14"/>
      <point x="489.845" y="46.0074"/>
      <point x="495.851" y="166" type="curve"/>
      <point x="498.149" y="166" type="line"/>
      <point x="504.155" y="46.0074"/>
      <point x="572.917" y="-14"/>
      <point x="683" y="-14" type="curve" smooth="yes"/>
      <point x="816" y="-14"/>
      <point x="882" y="65"/>
      <point x="882" y="241" type="curve" smooth="yes"/>
      <point x="882" y="981" type="line" smooth="yes"/>
      <point x="882" y="1127"/>
      <point x="831" y="1196"/>
      <point x="723" y="1196" type="curve" smooth="yes"/>
      <point x="615" y="1196"/>
      <point x="564" y="1127"/>
      <point x="564" y="981" type="curve" smooth="yes"/>
      <point x="564" y="707" type="line" smooth="yes"/>
      <point x="564" y="605"/>
      <point x="602" y="561"/>
      <point x="654" y="543" type="curve"/>
      <point x="654" y="535" type="line"/>
      <point x="736" y="537" type="line"/>
      <point x="736" y="543" type="line"/>
      <point x="648" y="543"/>
      <point x="599" y="598"/>
      <point x="599" y="707" type="curve" smooth="yes"/>
      <point x="599" y="978" type="line" smooth="yes"/>
      <point x="599" y="1104"/>
      <point x="638" y="1163"/>
      <point x="723" y="1163" type="curve" smooth="yes"/>
      <point x="808" y="1163"/>
      <point x="847" y="1104"/>
      <point x="847" y="978" type="curve" smooth="yes"/>
      <point x="847" y="242" type="line" smooth="yes"/>
      <point x="847" y="88"/>
      <point x="792" y="19"/>
      <point x="682" y="19" type="curve" smooth="yes"/>
      <point x="570" y="19"/>
      <point x="517" y="88"/>
      <point x="515" y="241" type="curve" smooth="yes"/>
      <point x="513" y="407" type="line"/>
      <point x="481" y="407" type="line"/>
      <point x="479" y="241" type="line" smooth="yes"/>
      <point x="477" y="88"/>
      <point x="424" y="19"/>
      <point x="312" y="19" type="curve" smooth="yes"/>
      <point x="202" y="19"/>
      <point x="147" y="88"/>
      <point x="147" y="242" type="curve" smooth="yes"/>
      <point x="147" y="629.6" type="line"/>
    </contour>
    <contour>
      <point x="757" y="512" type="line"/>
      <point x="757" y="543" type="line"/>
      <point x="284" y="543" type="line"/>
      <point x="284" y="512" type="line"/>
    </contour>
    <contour>
      <point x="284" y="512" type="curve"/>
      <point x="384" y="526"/>
      <point x="432" y="580"/>
      <point x="432" y="710" type="curve" smooth="yes"/>
      <point x="432" y="979" type="line" smooth="yes"/>
      <point x="432" y="1126"/>
      <point x="380" y="1196"/>
      <point x="272" y="1196" type="curve" smooth="yes"/>
      <point x="163" y="1196"/>
      <point x="112" y="1126"/>
      <point x="112" y="979" type="curve" smooth="yes"/>
      <point x="112" y="632.471" type="line"/>
      <point x="147" y="626.58" type="line"/>
      <point x="147" y="976" type="line" smooth="yes"/>
      <point x="147" y="1103"/>
      <point x="186" y="1163"/>
      <point x="272" y="1163" type="curve" smooth="yes"/>
      <point x="357" y="1163"/>
      <point x="397" y="1103"/>
      <point x="397" y="976" type="curve" smooth="yes"/>
      <point x="397" y="710" type="line" smooth="yes"/>
      <point x="397" y="582"/>
      <point x="351" y="545"/>
      <point x="284" y="545" type="curve" smooth="yes"/>
      <point x="199.823" y="545"/>
      <point x="157.227" y="596"/>
      <point x="141" y="694" type="curve"/>
      <point x="143" y="604" type="line"/>
      <point x="148" y="604" type="line"/>
      <point x="165" y="554"/>
      <point x="205" y="512"/>
    </contour>
  </outline>
  <guideline angle="90" x="491" y="0"/>
  <guideline angle="90" x="912" y="0"/>
</glyph>
<glyph name="La.kn" format="2">
  <advance width="823"/>
  <unicode hex="0CB2"/>
  <outline>
    <contour>
      <point x="147" y="611.208" type="line"/>
      <point x="147" y="974" type="line" smooth="yes"/>
      <point x="147" y="1102"/>
      <point x="187" y="1163"/>
      <point x="274" y="1163" type="curve" smooth="yes"/>
      <point x="361" y="1163"/>
      <point x="401" y="1102"/>
      <point x="401" y="974" type="curve" smooth="yes"/>
      <point x="401" y="697" type="line" smooth="yes"/>
      <point x="401" y="567"/>
      <point x="355" y="530"/>
      <point x="286" y="530" type="curve" smooth="yes"/>
      <point x="202" y="530"/>
      <point x="157.224" y="580.667"/>
      <point x="141" y="682" type="curve"/>
      <point x="143" y="591" type="line"/>
      <point x="148" y="591" type="line"/>
      <point x="165" y="540"/>
      <point x="206" y="497"/>
      <point x="286" y="497" type="curve" smooth="yes"/>
      <point x="388" y="497"/>
      <point x="436" y="558"/>
      <point x="436" y="697" type="curve" smooth="yes"/>
      <point x="436" y="977" type="line" smooth="yes"/>
      <point x="436" y="1125"/>
      <point x="384" y="1196"/>
      <point x="274" y="1196" type="curve" smooth="yes"/>
      <point x="164" y="1196"/>
      <point x="112" y="1125"/>
      <point x="112" y="977" type="curve" smooth="yes"/>
      <point x="112" y="613.595" type="line"/>
    </contour>
    <contour>
      <point x="112" y="623.595" type="line"/>
      <point x="112" y="341" type="line" smooth="yes"/>
      <point x="112" y="105"/>
      <point x="213" y="-15"/>
      <point x="412" y="-15" type="curve" smooth="yes"/>
      <point x="611" y="-15"/>
      <point x="711" y="105"/>
      <point x="711" y="341" type="curve" smooth="yes"/>
      <point x="711" y="943" type="line" smooth="yes"/>
      <point x="711" y="1108"/>
      <point x="653" y="1188"/>
      <point x="530" y="1188" type="curve" smooth="yes"/>
      <point x="527" y="1188"/>
      <point x="522" y="1188"/>
      <point x="519" y="1188" type="curve"/>
      <point x="519" y="1155" type="line"/>
      <point x="521" y="1155"/>
      <point x="526" y="1155"/>
      <point x="528" y="1155" type="curve"/>
      <point x="629" y="1155"/>
      <point x="676" y="1085"/>
      <point x="676" y="942" type="curve" smooth="yes"/>
      <point x="676" y="342" type="line" smooth="yes"/>
      <point x="676" y="128"/>
      <point x="588" y="18"/>
      <point x="412" y="18" type="curve" smooth="yes"/>
      <point x="236" y="18"/>
      <point x="147" y="128"/>
      <point x="147" y="342" type="curve" smooth="yes"/>
      <point x="147" y="621.208" type="line"/>
    </contour>
  </outline>
</glyph>
<glyph name="Sa.kn" format="2">
  <advance width="828"/>
  <unicode hex="0CB8"/>
  <outline>
    <contour>
      <point x="556" y="1146" type="line"/>
      <point x="556" y="1178" type="line"/>
      <point x="110" y="1178" type="line"/>
      <point x="110" y="1146" type="line"/>
    </contour>
    <contour>
      <point x="414" y="725" type="curve" smooth="yes"/>
      <point x="430" y="725"/>
      <point x="434" y="743"/>
      <point x="434" y="801" type="curve" smooth="yes"/>
      <point x="434" y="948" type="line" smooth="yes"/>
      <point x="434" y="1006"/>
      <point x="430" y="1024"/>
      <point x="414" y="1024" type="curve" smooth="yes"/>
      <point x="398" y="1024"/>
      <point x="394" y="1006"/>
      <point x="394" y="948" type="curve" smooth="yes"/>
      <point x="394" y="801" type="line" smooth="yes"/>
      <point x="394" y="743"/>
      <point x="398" y="725"/>
    </contour>
    <contour>
      <point x="721" y="217" type="curve" smooth="yes"/>
      <point x="721" y="572" type="line" smooth="yes"/>
      <point x="721" y="712"/>
      <point x="693" y="833"/>
      <point x="622" y="916" type="curve"/>
      <point x="584" y="916" type="line"/>
      <point x="656" y="835"/>
      <point x="686" y="712"/>
      <point x="686" y="574" type="curve" smooth="yes"/>
      <point x="686" y="220" type="line" smooth="yes"/>
      <point x="686" y="85"/>
      <point x="649" y="19"/>
      <point x="567" y="19" type="curve" smooth="yes"/>
      <point x="478" y="19"/>
      <point x="450" y="89"/>
      <point x="430" y="228" type="curve" smooth="yes"/>
      <point x="397" y="453" type="line" smooth="yes"/>
      <point x="376" y="594"/>
      <point x="342" y="658"/>
      <point x="244" y="658" type="curve" smooth="yes"/>
      <point x="145" y="658"/>
      <point x="101" y="589"/>
      <point x="101" y="447" type="curve" smooth="yes"/>
      <point x="101" y="352" type="line" smooth="yes"/>
      <point x="101" y="194"/>
      <point x="122" y="83"/>
      <point x="164" y="-5" type="curve"/>
      <point x="201" y="-5" type="line"/>
      <point x="159" y="79"/>
      <point x="136" y="191"/>
      <point x="136" y="351" type="curve" smooth="yes"/>
      <point x="136" y="448" type="line" smooth="yes"/>
      <point x="136" y="566"/>
      <point x="169" y="625"/>
      <point x="243" y="625" type="curve" smooth="yes"/>
      <point x="321" y="625"/>
      <point x="346" y="569"/>
      <point x="363" y="452" type="curve" smooth="yes"/>
      <point x="396" y="227" type="line" smooth="yes"/>
      <point x="420" y="66"/>
      <point x="455" y="-14"/>
      <point x="567" y="-14" type="curve" smooth="yes"/>
      <point x="671" y="-14"/>
      <point x="721" y="63"/>
    </contour>
    <contour>
      <point x="615" y="1511" type="line"/>
      <point x="646" y="1442"/>
      <point x="665" y="1367"/>
      <point x="665" y="1296" type="curve" smooth="yes"/>
      <point x="665" y="1214"/>
      <point x="632" y="1178"/>
      <point x="554" y="1178" type="curve" smooth="yes"/>
      <point x="492" y="1178" type="line"/>
      <point x="492" y="1146" type="line"/>
      <point x="556" y="1146" type="line" smooth="yes"/>
      <point x="655" y="1146"/>
      <point x="700" y="1193"/>
      <point x="700" y="1296" type="curve" smooth="yes"/>
      <point x="700" y="1372"/>
      <point x="679" y="1446"/>
      <point x="650" y="1511" type="curve"/>
    </contour>
  </outline>
  <guideline angle="90" x="1735" y="0"/>
  <guideline angle="90" x="424" y="0"/>
</glyph>
<glyph name="Ha.kn" format="2">
  <advance width="888"/>
  <unicode hex="0CB9"/>
  <outline>
    <contour>
      <point x="285" y="-14" type="curve" smooth="yes"/>
      <point x="381" y="-14"/>
      <point x="442" y="41"/>
      <point x="447" y="148" type="curve"/>
      <point x="449" y="148" type="line"/>
      <point x="454" y="41"/>
      <point x="513" y="-14"/>
      <point x="610" y="-14" type="curve" smooth="yes"/>
      <point x="724" y="-14"/>
      <point x="781" y="60"/>
      <point x="781" y="223" type="curve" smooth="yes"/>
      <point x="781" y="691" type="line" smooth="yes"/>
      <point x="781" y="835"/>
      <point x="722" y="908"/>
      <point x="609" y="908" type="curve" smooth="yes"/>
      <point x="497" y="908"/>
      <point x="446" y="842"/>
      <point x="436" y="708" type="curve"/>
      <point x="445.075" y="615.957" type="line"/>
      <point x="435" y="886" type="line" smooth="yes"/>
      <point x="428.321" y="1065.01"/>
      <point x="358" y="1127"/>
      <point x="290" y="1145" type="curve"/>
      <point x="290" y="1157" type="line"/>
      <point x="166" y="1157" type="line"/>
      <point x="166" y="1146" type="line"/>
      <point x="345" y="1146"/>
      <point x="396.267" y="1049.16"/>
      <point x="403" y="883" type="curve" smooth="yes"/>
      <point x="431" y="192" type="line"/>
      <point x="420" y="73"/>
      <point x="378" y="19"/>
      <point x="286" y="19" type="curve" smooth="yes"/>
      <point x="190" y="19"/>
      <point x="142" y="83"/>
      <point x="142" y="225" type="curve" smooth="yes"/>
      <point x="142" y="658" type="line" smooth="yes"/>
      <point x="142" y="797"/>
      <point x="193" y="861"/>
      <point x="303" y="861" type="curve" smooth="yes"/>
      <point x="339" y="861"/>
      <point x="375" y="861"/>
      <point x="411" y="861" type="curve"/>
      <point x="410" y="870" type="line"/>
      <point x="403" y="870" type="line"/>
      <point x="393" y="892" type="line"/>
      <point x="362" y="892"/>
      <point x="328" y="892"/>
      <point x="297" y="892" type="curve" smooth="yes"/>
      <point x="171" y="892"/>
      <point x="107" y="815"/>
      <point x="107" y="662" type="curve" smooth="yes"/>
      <point x="107" y="224" type="line" smooth="yes"/>
      <point x="107" y="60"/>
      <point x="166" y="-14"/>
    </contour>
    <contour>
      <point x="609" y="19" type="curve" smooth="yes"/>
      <point x="510" y="19"/>
      <point x="469.619" y="81.984"/>
      <point x="464" y="220" type="curve" smooth="yes"/>
      <point x="448" y="613" type="line"/>
      <point x="451" y="789"/>
      <point x="494" y="875"/>
      <point x="609" y="875" type="curve" smooth="yes"/>
      <point x="701" y="875"/>
      <point x="746" y="814"/>
      <point x="746" y="687" type="curve" smooth="yes"/>
      <point x="746" y="224" type="line" smooth="yes"/>
      <point x="746" y="83"/>
      <point x="700" y="19"/>
    </contour>
    <contour>
      <point x="634" y="1146" type="line"/>
      <point x="634" y="1178" type="line"/>
      <point x="97" y="1178" type="line"/>
      <point x="97" y="1146" type="line"/>
    </contour>
    <contour>
      <point x="695" y="1511" type="line"/>
      <point x="726" y="1442"/>
      <point x="745" y="1367"/>
      <point x="745" y="1296" type="curve" smooth="yes"/>
      <point x="745" y="1214"/>
      <point x="712" y="1178"/>
      <point x="634" y="1178" type="curve" smooth="yes"/>
      <point x="572" y="1178" type="line"/>
      <point x="572" y="1146" type="line"/>
      <point x="636" y="1146" type="line" smooth="yes"/>
      <point x="735" y="1146"/>
      <point x="780" y="1193"/>
      <point x="780" y="1296" type="curve" smooth="yes"/>
      <point x="780" y="1372"/>
      <point x="759" y="1446"/>
      <point x="730" y="1511" type="curve"/>
    </contour>
  </outline>
  <guideline angle="0" x="0" y="1709"/>
  <guideline angle="0" x="0" y="911"/>
</glyph>
<glyph name="Nukta1.kn" format="2">
  <unicode hex="0CBC"/>
  <anchor x="0" y="0" name="_nukta"/>
  <outline>
    <contour>
      <point x="-118" y="-120" type="curve" smooth="yes"/>
      <point x="-137" y="-120"/>
      <point x="-146" y="-135"/>
      <point x="-146" y="-174" type="curve" smooth="yes"/>
      <point x="-146" y="-213"/>
      <point x="-137" y="-228"/>
      <point x="-118" y="-228" type="curve" smooth="yes"/>
      <point x="-99" y="-228"/>
      <point x="-90" y="-213"/>
      <point x="-90" y="-174" type="curve" smooth="yes"/>
      <point x="-90" y="-135"/>
      <point x="-99" y="-120"/>
    </contour>
    <contour>
      <point x="118" y="-120" type="curve" smooth="yes"/>
      <point x="99" y="-120"/>
      <point x="90" y="-135"/>
      <point x="90" y="-174" type="curve" smooth="yes"/>
      <point x="90" y="-213"/>
      <point x="99" y="-228"/>
      <point x="118" y="-228" type="curve" smooth="yes"/>
      <point x="137" y="-228"/>
      <point x="146" y="-213"/>
      <point x="146" y="-174" type="curve" smooth="yes"/>
      <point x="146" y="-135"/>
      <point x="137" y="-120"/>
    </contour>
  </outline>
</glyph>
<glyph name="Avagraha" format="2">
  <advance width="540"/>
  <unicode hex="0CBD"/>
  <outline>
    <contour>
      <point x="440" y="1178" type="line"/>
      <point x="287" y="1178" type="line" smooth="yes"/>
      <point x="146" y="1178"/>
      <point x="73" y="1105"/>
      <point x="73" y="964" type="curve" smooth="yes"/>
      <point x="73" y="957" type="line" smooth="yes"/>
      <point x="73" y="653"/>
      <point x="425" y="638"/>
      <point x="425" y="289" type="curve" smooth="yes"/>
      <point x="425" y="240" type="line" smooth="yes"/>
      <point x="425" y="91"/>
      <point x="369" y="19"/>
      <point x="255" y="19" type="curve" smooth="yes"/>
      <point x="180" y="19"/>
      <point x="108" y="54"/>
      <point x="60" y="110" type="curve"/>
      <point x="68" y="61" type="line"/>
      <point x="115" y="14"/>
      <point x="184" y="-14"/>
      <point x="255" y="-14" type="curve" smooth="yes"/>
      <point x="391" y="-14"/>
      <point x="460" y="71"/>
      <point x="460" y="240" type="curve" smooth="yes"/>
      <point x="460" y="289" type="line" smooth="yes"/>
      <point x="460" y="656"/>
      <point x="108" y="671"/>
      <point x="108" y="958" type="curve" smooth="yes"/>
      <point x="108" y="964" type="line" smooth="yes"/>
      <point x="108" y="1085"/>
      <point x="168" y="1146"/>
      <point x="289" y="1146" type="curve" smooth="yes"/>
      <point x="440" y="1146" type="line"/>
    </contour>
  </outline>
</glyph>
<glyph name="matraAa.kn" format="2">
  <advance width="624"/>
  <unicode hex="0CBE"/>
  <outline>
    <contour>
      <point x="512" y="551.343" type="line"/>
      <point x="512" y="788" type="line" smooth="yes"/>
      <point x="512" y="1058"/>
      <point x="412" y="1178"/>
      <point x="183" y="1178" type="curve" smooth="yes"/>
      <point x="-146" y="1178" type="line"/>
      <point x="-146" y="1146" type="line"/>
      <point x="181" y="1146" type="line" smooth="yes"/>
      <point x="387" y="1146"/>
      <point x="477" y="1040"/>
      <point x="477" y="787" type="curve" smooth="yes"/>
      <point x="477" y="549.491" type="line"/>
    </contour>
    <contour>
      <point x="349" y="-14" type="curve" smooth="yes"/>
      <point x="459" y="-14"/>
      <point x="512" y="57"/>
      <point x="512" y="205" type="curve" smooth="yes"/>
      <point x="512" y="553.343" type="line"/>
      <point x="477" y="551.491" type="line"/>
      <point x="477" y="208" type="line" smooth="yes"/>
      <point x="477" y="80"/>
      <point x="436" y="19"/>
      <point x="349" y="19" type="curve" smooth="yes"/>
      <point x="262" y="19"/>
      <point x="221" y="80"/>
      <point x="221" y="208" type="curve" smooth="yes"/>
      <point x="221" y="473" type="line" smooth="yes"/>
      <point x="221" y="605"/>
      <point x="270" y="642"/>
      <point x="342" y="642" type="curve" smooth="yes"/>
      <point x="424.174" y="642"/>
      <point x="466.783" y="589"/>
      <point x="482" y="489" type="curve"/>
      <point x="480" y="580" type="line"/>
      <point x="476" y="580" type="line"/>
      <point x="460" y="631"/>
      <point x="419" y="675"/>
      <point x="342" y="675" type="curve" smooth="yes"/>
      <point x="237" y="675"/>
      <point x="186" y="613"/>
      <point x="186" y="473" type="curve" smooth="yes"/>
      <point x="186" y="205" type="line" smooth="yes"/>
      <point x="186" y="57"/>
      <point x="239" y="-14"/>
    </contour>
  </outline>
</glyph>
<glyph name="matraI.kn" format="2">
  <advance width="385"/>
  <unicode hex="0CBF"/>
  <outline>
    <contour>
      <point x="340" y="1191" type="line" smooth="yes"/>
      <point x="340" y="1318"/>
      <point x="292" y="1378"/>
      <point x="192" y="1378" type="curve" smooth="yes"/>
      <point x="92" y="1378"/>
      <point x="44" y="1318"/>
      <point x="44" y="1191" type="curve" smooth="yes"/>
      <point x="44" y="1103" type="line" smooth="yes"/>
      <point x="44" y="989"/>
      <point x="89" y="938"/>
      <point x="184" y="938" type="curve" smooth="yes"/>
      <point x="254" y="938"/>
      <point x="289" y="971"/>
      <point x="304" y="1009" type="curve"/>
      <point x="309" y="1009" type="line"/>
      <point x="309" y="1089" type="line"/>
      <point x="294" y="1013"/>
      <point x="258" y="971"/>
      <point x="184" y="971" type="curve" smooth="yes"/>
      <point x="122" y="971"/>
      <point x="79" y="1001"/>
      <point x="79" y="1103" type="curve" smooth="yes"/>
      <point x="79" y="1191" type="line" smooth="yes"/>
      <point x="79" y="1296"/>
      <point x="115" y="1345"/>
      <point x="192" y="1345" type="curve" smooth="yes"/>
      <point x="269" y="1345"/>
      <point x="305" y="1296"/>
      <point x="305" y="1191" type="curve" smooth="yes"/>
      <point x="305" y="945" type="line" smooth="yes"/>
      <point x="305" y="825"/>
      <point x="264" y="774"/>
      <point x="179" y="774" type="curve" smooth="yes"/>
      <point x="150" y="774"/>
      <point x="121" y="779"/>
      <point x="99" y="789" type="curve"/>
      <point x="107" y="754" type="line"/>
      <point x="125" y="747"/>
      <point x="152" y="741"/>
      <point x="179" y="741" type="curve" smooth="yes"/>
      <point x="289" y="741"/>
      <point x="340" y="800"/>
      <point x="340" y="942" type="curve" smooth="yes"/>
    </contour>
  </outline>
  <guideline angle="90" x="131" y="0"/>
</glyph>
<glyph name="matraUu.kn" format="2">
  <advance width="797"/>
  <unicode hex="0CC2"/>
  <outline>
    <contour>
      <point x="23" y="19" type="curve" smooth="yes"/>
      <point x="-67" y="19"/>
      <point x="-110" y="78"/>
      <point x="-110" y="198" type="curve" smooth="yes"/>
      <point x="-110" y="251" type="line"/>
      <point x="-132" y="251" type="line"/>
      <point x="-132" y="184" type="line" smooth="yes"/>
      <point x="-132" y="51"/>
      <point x="-81" y="-14"/>
      <point x="23" y="-14" type="curve" smooth="yes"/>
      <point x="121" y="-14"/>
      <point x="172" y="58"/>
      <point x="172" y="195" type="curve" smooth="yes"/>
      <point x="172" y="589" type="line"/>
      <point x="137" y="589" type="line"/>
      <point x="137" y="194" type="line" smooth="yes"/>
      <point x="137" y="76"/>
      <point x="99" y="19"/>
    </contour>
    <contour>
      <point x="411.005" y="1196" type="curve" smooth="yes"/>
      <point x="228.005" y="1196"/>
      <point x="137.005" y="1089"/>
      <point x="137.005" y="877" type="curve" smooth="yes"/>
      <point x="137.005" y="579.006" type="line"/>
      <point x="172.005" y="579.006" type="line"/>
      <point x="172.005" y="877" type="line" smooth="yes"/>
      <point x="172.005" y="1065"/>
      <point x="252.005" y="1163"/>
      <point x="411.005" y="1163" type="curve" smooth="yes"/>
      <point x="569.005" y="1163"/>
      <point x="650.005" y="1064"/>
      <point x="650.005" y="876" type="curve" smooth="yes"/>
      <point x="650.005" y="547.25" type="line"/>
      <point x="685.005" y="545.294" type="line"/>
      <point x="685.005" y="877" type="line" smooth="yes"/>
      <point x="685.005" y="1089"/>
      <point x="593.005" y="1196"/>
    </contour>
    <contour>
      <point x="685.005" y="555.294" type="line"/>
      <point x="650.005" y="557.25" type="line"/>
      <point x="650.005" y="208" type="line" smooth="yes"/>
      <point x="650.005" y="80"/>
      <point x="609.005" y="19"/>
      <point x="522.005" y="19" type="curve" smooth="yes"/>
      <point x="435.005" y="19"/>
      <point x="394.005" y="80"/>
      <point x="394.005" y="208" type="curve" smooth="yes"/>
      <point x="394.005" y="473" type="line" smooth="yes"/>
      <point x="394.005" y="605"/>
      <point x="443.005" y="642"/>
      <point x="515.005" y="642" type="curve" smooth="yes"/>
      <point x="598.178" y="642"/>
      <point x="638.787" y="589.364"/>
      <point x="655.005" y="489" type="curve"/>
      <point x="655.005" y="580" type="line"/>
      <point x="649.005" y="580" type="line"/>
      <point x="633.005" y="631"/>
      <point x="592.005" y="675"/>
      <point x="515.005" y="675" type="curve" smooth="yes"/>
      <point x="410.005" y="675"/>
      <point x="359.005" y="613"/>
      <point x="359.005" y="473" type="curve" smooth="yes"/>
      <point x="359.005" y="205" type="line" smooth="yes"/>
      <point x="359.005" y="57"/>
      <point x="412.005" y="-14"/>
      <point x="522.005" y="-14" type="curve" smooth="yes"/>
      <point x="632.005" y="-14"/>
      <point x="685.005" y="57"/>
      <point x="685.005" y="205" type="curve" smooth="yes"/>
    </contour>
  </outline>
  <guideline angle="90" x="-50" y="0"/>
</glyph>
<glyph name="matraRu.kn" format="2">
  <advance width="20"/>
  <unicode hex="0CC3"/>
  <outline>
    <contour>
      <point x="-300" y="-391.255" type="line"/>
      <point x="-300" y="-480" type="line" smooth="yes"/>
      <point x="-300" y="-628"/>
      <point x="-236" y="-705"/>
      <point x="-113" y="-705" type="curve" smooth="yes"/>
      <point x="10" y="-705"/>
      <point x="74" y="-628"/>
      <point x="74" y="-480" type="curve" smooth="yes"/>
      <point x="74" y="-265" type="line" smooth="yes"/>
      <point x="74" y="-85"/>
      <point x="59" y="31"/>
      <point x="16" y="130" type="curve"/>
      <point x="-19" y="130" type="line"/>
      <point x="26" y="13"/>
      <point x="41" y="-88"/>
      <point x="41" y="-265" type="curve" smooth="yes"/>
      <point x="41" y="-478" type="line" smooth="yes"/>
      <point x="41" y="-607"/>
      <point x="-10" y="-673"/>
      <point x="-113" y="-673" type="curve" smooth="yes"/>
      <point x="-216" y="-673"/>
      <point x="-267" y="-607"/>
      <point x="-267" y="-478" type="curve" smooth="yes"/>
      <point x="-267" y="-399.577" type="line"/>
    </contour>
    <contour>
      <point x="-192" y="-130" type="curve" smooth="yes"/>
      <point x="-265" y="-130"/>
      <point x="-300" y="-174"/>
      <point x="-300" y="-266" type="curve" smooth="yes"/>
      <point x="-300" y="-392" type="line"/>
      <point x="-267" y="-401" type="line"/>
      <point x="-267" y="-268" type="line" smooth="yes"/>
      <point x="-267" y="-197"/>
      <point x="-243" y="-162"/>
      <point x="-192" y="-162" type="curve" smooth="yes"/>
      <point x="-141" y="-162"/>
      <point x="-117" y="-197"/>
      <point x="-117" y="-268" type="curve" smooth="yes"/>
      <point x="-117" y="-353" type="line" smooth="yes"/>
      <point x="-117" y="-424"/>
      <point x="-144" y="-445"/>
      <point x="-184" y="-445" type="curve" smooth="yes"/>
      <point x="-237" y="-445"/>
      <point x="-262" y="-412"/>
      <point x="-271" y="-351" type="curve"/>
      <point x="-279" y="-422" type="line"/>
      <point x="-266" y="-422" type="line"/>
      <point x="-254" y="-456"/>
      <point x="-223" y="-477"/>
      <point x="-182" y="-477" type="curve" smooth="yes"/>
      <point x="-117" y="-477"/>
      <point x="-84" y="-439"/>
      <point x="-84" y="-353" type="curve" smooth="yes"/>
      <point x="-84" y="-266" type="line" smooth="yes"/>
      <point x="-84" y="-174"/>
      <point x="-119" y="-130"/>
    </contour>
  </outline>
</glyph>
<glyph name="matraRuu.kn" format="2">
  <advance width="337"/>
  <unicode hex="0CC4"/>
  <outline>
    <contour>
      <point x="-18" y="128" type="line"/>
      <point x="26.2074" y="12.0988"/>
      <point x="41" y="-89.1271"/>
      <point x="41" y="-265" type="curve" smooth="yes"/>
      <point x="41" y="-478" type="line" smooth="yes"/>
      <point x="41" y="-607"/>
      <point x="-10" y="-673"/>
      <point x="-113" y="-673" type="curve" smooth="yes"/>
      <point x="-216" y="-673"/>
      <point x="-267" y="-607"/>
      <point x="-267" y="-478" type="curve" smooth="yes"/>
      <point x="-267" y="-396" type="line"/>
      <point x="-300" y="-390" type="line"/>
      <point x="-300" y="-480" type="line" smooth="yes"/>
      <point x="-300" y="-628"/>
      <point x="-236" y="-705"/>
      <point x="-113" y="-705" type="curve" smooth="yes"/>
      <point x="10" y="-705"/>
      <point x="74" y="-628"/>
      <point x="74" y="-480" type="curve" smooth="yes"/>
      <point x="74" y="-265" type="line" smooth="yes"/>
      <point x="74" y="-85"/>
      <point x="58.4828" y="31"/>
      <point x="14" y="130" type="curve"/>
      <point x="-17" y="130" type="line"/>
    </contour>
    <contour>
      <point x="397" y="-164" type="line"/>
      <point x="397" y="-95" type="line" smooth="yes"/>
      <point x="397" y="53"/>
      <point x="333" y="130"/>
      <point x="210" y="130" type="curve" smooth="yes"/>
      <point x="-6" y="130" type="line"/>
      <point x="4" y="99" type="line"/>
      <point x="210" y="99" type="line" smooth="yes"/>
      <point x="313" y="99"/>
      <point x="364" y="32"/>
      <point x="364" y="-97" type="curve" smooth="yes"/>
      <point x="364" y="-166" type="line"/>
    </contour>
    <contour>
      <point x="364" y="-160" type="line"/>
      <point x="364" y="-307" type="line" smooth="yes"/>
      <point x="364" y="-378"/>
      <point x="340" y="-413"/>
      <point x="289" y="-413" type="curve" smooth="yes"/>
      <point x="238" y="-413"/>
      <point x="214" y="-378"/>
      <point x="214" y="-307" type="curve" smooth="yes"/>
      <point x="214" y="-212" type="line" smooth="yes"/>
      <point x="214" y="-141"/>
      <point x="242.612" y="-120"/>
      <point x="285" y="-120" type="curve" smooth="yes"/>
      <point x="335.563" y="-120"/>
      <point x="359.414" y="-150.543"/>
      <point x="368" y="-207" type="curve"/>
      <point x="376" y="-140" type="line"/>
      <point x="363" y="-140" type="line"/>
      <point x="351.429" y="-107.855"/>
      <point x="321.536" y="-88"/>
      <point x="282" y="-88" type="curve" smooth="yes"/>
      <point x="215.01" y="-88"/>
      <point x="181" y="-126"/>
      <point x="181" y="-212" type="curve" smooth="yes"/>
      <point x="181" y="-309" type="line" smooth="yes"/>
      <point x="181" y="-401"/>
      <point x="216" y="-445"/>
      <point x="289" y="-445" type="curve" smooth="yes"/>
      <point x="362" y="-445"/>
      <point x="397" y="-401"/>
      <point x="397" y="-309" type="curve" smooth="yes"/>
      <point x="397" y="-159" type="line"/>
    </contour>
    <contour>
      <point x="-192" y="-130" type="curve" smooth="yes"/>
      <point x="-265" y="-130"/>
      <point x="-300" y="-174"/>
      <point x="-300" y="-266" type="curve" smooth="yes"/>
      <point x="-300" y="-392" type="line"/>
      <point x="-267" y="-401" type="line"/>
      <point x="-267" y="-268" type="line" smooth="yes"/>
      <point x="-267" y="-197"/>
      <point x="-243" y="-162"/>
      <point x="-192" y="-162" type="curve" smooth="yes"/>
      <point x="-141" y="-162"/>
      <point x="-117" y="-197"/>
      <point x="-117" y="-268" type="curve" smooth="yes"/>
      <point x="-117" y="-353" type="line" smooth="yes"/>
      <point x="-117" y="-424"/>
      <point x="-144" y="-445"/>
      <point x="-184" y="-445" type="curve" smooth="yes"/>
      <point x="-237" y="-445"/>
      <point x="-262" y="-412"/>
      <point x="-271" y="-351" type="curve"/>
      <point x="-279" y="-422" type="line"/>
      <point x="-266" y="-422" type="line"/>
      <point x="-254" y="-456"/>
      <point x="-223" y="-477"/>
      <point x="-182" y="-477" type="curve" smooth="yes"/>
      <point x="-117" y="-477"/>
      <point x="-84" y="-439"/>
      <point x="-84" y="-353" type="curve" smooth="yes"/>
      <point x="-84" y="-266" type="line" smooth="yes"/>
      <point x="-84" y="-174"/>
      <point x="-119" y="-130"/>
    </contour>
  </outline>
</glyph>
<glyph name="matraE.kn" format="2">
  <advance width="453"/>
  <unicode hex="0CC6"/>
  <outline>
    <contour>
      <point x="209" y="1146" type="line" smooth="yes"/>
      <point x="321" y="1146"/>
      <point x="372" y="1207"/>
      <point x="372" y="1340" type="curve" smooth="yes"/>
      <point x="372" y="1433" type="line" smooth="yes"/>
      <point x="372" y="1549"/>
      <point x="327" y="1604"/>
      <point x="234" y="1604" type="curve" smooth="yes"/>
      <point x="141" y="1604"/>
      <point x="96" y="1549"/>
      <point x="96" y="1433" type="curve" smooth="yes"/>
      <point x="96" y="1406" type="line" smooth="yes"/>
      <point x="96" y="1361"/>
      <point x="106" y="1314"/>
      <point x="122" y="1284" type="curve"/>
      <point x="159" y="1284" type="line"/>
      <point x="141" y="1317"/>
      <point x="131" y="1358"/>
      <point x="131" y="1408" type="curve" smooth="yes"/>
      <point x="131" y="1432" type="line" smooth="yes"/>
      <point x="131" y="1527"/>
      <point x="164" y="1571"/>
      <point x="234" y="1571" type="curve" smooth="yes"/>
      <point x="304" y="1571"/>
      <point x="337" y="1527"/>
      <point x="337" y="1432" type="curve" smooth="yes"/>
      <point x="337" y="1340" type="line" smooth="yes"/>
      <point x="337" y="1227"/>
      <point x="298" y="1178"/>
      <point x="207" y="1178" type="curve" smooth="yes"/>
      <point x="121" y="1178" type="line"/>
      <point x="121" y="1146" type="line"/>
    </contour>
  </outline>
</glyph>
<glyph name="matraAu.kn" format="2">
  <advance width="793"/>
  <unicode hex="0CCC"/>
  <outline>
    <contour>
      <point x="124" y="1146" type="line" smooth="yes"/>
      <point x="235" y="1146"/>
      <point x="289" y="1209"/>
      <point x="289" y="1327" type="curve" smooth="yes"/>
      <point x="289" y="1339" type="line" smooth="yes"/>
      <point x="289" y="1423"/>
      <point x="255" y="1477"/>
      <point x="200" y="1489" type="curve"/>
      <point x="200" y="1506" type="line"/>
      <point x="120" y="1506" type="line"/>
      <point x="120" y="1490" type="line"/>
      <point x="210" y="1490"/>
      <point x="254" y="1438"/>
      <point x="254" y="1339" type="curve" smooth="yes"/>
      <point x="254" y="1329" type="line" smooth="yes"/>
      <point x="254" y="1230"/>
      <point x="210" y="1178"/>
      <point x="120" y="1178" type="curve" smooth="yes"/>
      <point x="25" y="1178" type="line"/>
      <point x="25" y="1146" type="line"/>
    </contour>
    <contour>
      <point x="584" y="558" type="curve" smooth="yes"/>
      <point x="686" y="558"/>
      <point x="736" y="625"/>
      <point x="736" y="762" type="curve" smooth="yes"/>
      <point x="736" y="1057.39" type="line"/>
      <point x="701" y="1065.16" type="line"/>
      <point x="701" y="765" type="line" smooth="yes"/>
      <point x="701" y="648"/>
      <point x="663" y="591"/>
      <point x="584" y="591" type="curve" smooth="yes"/>
      <point x="505" y="591"/>
      <point x="467" y="648"/>
      <point x="467" y="765" type="curve" smooth="yes"/>
      <point x="467" y="981" type="line" smooth="yes"/>
      <point x="467" y="1101"/>
      <point x="512" y="1134"/>
      <point x="577" y="1134" type="curve" smooth="yes"/>
      <point x="656" y="1134"/>
      <point x="694.591" y="1082.78"/>
      <point x="708" y="994" type="curve"/>
      <point x="709" y="1087" type="line"/>
      <point x="700" y="1087" type="line"/>
      <point x="685" y="1128"/>
      <point x="647" y="1167"/>
      <point x="577" y="1167" type="curve" smooth="yes"/>
      <point x="480" y="1167"/>
      <point x="432" y="1110"/>
      <point x="432" y="981" type="curve" smooth="yes"/>
      <point x="432" y="762" type="line" smooth="yes"/>
      <point x="432" y="625"/>
      <point x="482" y="558"/>
    </contour>
    <contour>
      <point x="736" y="1052.39" type="line"/>
      <point x="736" y="1154" type="line" smooth="yes"/>
      <point x="736" y="1408"/>
      <point x="640" y="1521"/>
      <point x="422" y="1521" type="curve" smooth="yes"/>
      <point x="10" y="1521" type="line"/>
      <point x="10" y="1490" type="line"/>
      <point x="420" y="1490" type="line" smooth="yes"/>
      <point x="615" y="1490"/>
      <point x="701" y="1390"/>
      <point x="701" y="1153" type="curve" smooth="yes"/>
      <point x="701" y="1060.16" type="line"/>
    </contour>
  </outline>
</glyph>
<glyph name="Halant.kn" format="2">
  <advance width="318"/>
  <unicode hex="0CCD"/>
  <outline>
    <contour>
      <point x="9" y="1165" type="line"/>
      <point x="9" y="1262" type="line" smooth="yes"/>
      <point x="9" y="1398"/>
      <point x="52" y="1458"/>
      <point x="150" y="1458" type="curve" smooth="yes"/>
      <point x="184" y="1458"/>
      <point x="218" y="1454"/>
      <point x="261" y="1433" type="curve"/>
      <point x="256" y="1468" type="line"/>
      <point x="220" y="1484"/>
      <point x="186" y="1491"/>
      <point x="146" y="1491" type="curve" smooth="yes"/>
      <point x="32" y="1491"/>
      <point x="-26" y="1418"/>
      <point x="-26" y="1263" type="curve" smooth="yes"/>
      <point x="-26" y="1165" type="line"/>
    </contour>
    <contour>
      <point x="123" y="663" type="curve" smooth="yes"/>
      <point x="224" y="663"/>
      <point x="272" y="725"/>
      <point x="272" y="848" type="curve" smooth="yes"/>
      <point x="272" y="971" type="line" smooth="yes"/>
      <point x="272" y="1120"/>
      <point x="223" y="1178"/>
      <point x="76" y="1178" type="curve" smooth="yes"/>
      <point x="-390" y="1178" type="line"/>
      <point x="-390" y="1146" type="line"/>
      <point x="-13" y="1146" type="line"/>
      <point x="-2" y="1146" type="line"/>
      <point x="76" y="1146" type="line" smooth="yes"/>
      <point x="199" y="1146"/>
      <point x="237" y="1096"/>
      <point x="237" y="969" type="curve" smooth="yes"/>
      <point x="237" y="849" type="line" smooth="yes"/>
      <point x="237" y="746"/>
      <point x="201" y="696"/>
      <point x="123" y="696" type="curve" smooth="yes"/>
      <point x="46" y="696"/>
      <point x="9" y="746"/>
      <point x="9" y="849" type="curve" smooth="yes"/>
      <point x="9" y="1168" type="line"/>
      <point x="-26" y="1168" type="line"/>
      <point x="-26" y="848" type="line" smooth="yes"/>
      <point x="-26" y="725"/>
      <point x="23" y="663"/>
    </contour>
  </outline>
</glyph>
<glyph name="Lengthmark.kn" format="2">
  <advance width="529"/>
  <unicode hex="0CD5"/>
  <outline>
    <contour>
      <point x="145" y="623.683" type="line"/>
      <point x="145" y="974" type="line" smooth="yes"/>
      <point x="145" y="1102"/>
      <point x="185" y="1163"/>
      <point x="272" y="1163" type="curve" smooth="yes"/>
      <point x="359" y="1163"/>
      <point x="399" y="1102"/>
      <point x="399" y="974" type="curve" smooth="yes"/>
      <point x="399" y="697" type="line" smooth="yes"/>
      <point x="399" y="567"/>
      <point x="353" y="530"/>
      <point x="284" y="530" type="curve" smooth="yes"/>
      <point x="195" y="530"/>
      <point x="153" y="585"/>
      <point x="137" y="694" type="curve"/>
      <point x="141" y="591" type="line"/>
      <point x="146" y="591" type="line"/>
      <point x="163" y="540"/>
      <point x="204" y="497"/>
      <point x="284" y="497" type="curve" smooth="yes"/>
      <point x="386" y="497"/>
      <point x="434" y="558"/>
      <point x="434" y="697" type="curve" smooth="yes"/>
      <point x="434" y="977" type="line" smooth="yes"/>
      <point x="434" y="1125"/>
      <point x="382" y="1196"/>
      <point x="272" y="1196" type="curve" smooth="yes"/>
      <point x="162" y="1196"/>
      <point x="110" y="1125"/>
      <point x="110" y="977" type="curve" smooth="yes"/>
      <point x="110" y="617.91" type="line"/>
    </contour>
    <contour>
      <point x="110" y="618.91" type="line"/>
      <point x="110" y="335" type="line" smooth="yes"/>
      <point x="110" y="86"/>
      <point x="192" y="-6"/>
      <point x="383" y="-6" type="curve" smooth="yes"/>
      <point x="424" y="-6" type="line"/>
      <point x="432" y="26" type="line"/>
      <point x="383" y="26" type="line" smooth="yes"/>
      <point x="217" y="26"/>
      <point x="145" y="109"/>
      <point x="145" y="336" type="curve" smooth="yes"/>
      <point x="145" y="624.683" type="line"/>
    </contour>
  </outline>
  <guideline angle="90" x="749" y="0"/>
</glyph>
<glyph name="LllaObsolete.kn" format="2">
  <advance width="994"/>
  <unicode hex="0CDE"/>
  <outline>
    <contour>
      <point x="112" y="638.4" type="line"/>
      <point x="112" y="241" type="line" smooth="yes"/>
      <point x="112" y="65"/>
      <point x="178" y="-14"/>
      <point x="311" y="-14" type="curve" smooth="yes"/>
      <point x="421.083" y="-14"/>
      <point x="489.845" y="46.0074"/>
      <point x="495.851" y="166" type="curve"/>
      <point x="498.149" y="166" type="line"/>
      <point x="504.155" y="46.0074"/>
      <point x="572.917" y="-14"/>
      <point x="683" y="-14" type="curve" smooth="yes"/>
      <point x="816" y="-14"/>
      <point x="882" y="65"/>
      <point x="882" y="241" type="curve" smooth="yes"/>
      <point x="882" y="634.35" type="line"/>
      <point x="847" y="631.4" type="line"/>
      <point x="847" y="242" type="line" smooth="yes"/>
      <point x="847" y="88"/>
      <point x="792" y="19"/>
      <point x="682" y="19" type="curve" smooth="yes"/>
      <point x="570" y="19"/>
      <point x="517" y="88"/>
      <point x="515" y="241" type="curve" smooth="yes"/>
      <point x="513" y="411" type="line"/>
      <point x="481" y="411" type="line"/>
      <point x="479" y="241" type="line" smooth="yes"/>
      <point x="477" y="88"/>
      <point x="424" y="19"/>
      <point x="312" y="19" type="curve" smooth="yes"/>
      <point x="202" y="19"/>
      <point x="147" y="88"/>
      <point x="147" y="242" type="curve" smooth="yes"/>
      <point x="147" y="636.65" type="line"/>
    </contour>
    <contour>
      <point x="272" y="1196" type="curve" smooth="yes"/>
      <point x="163" y="1196"/>
      <point x="112" y="1126"/>
      <point x="112" y="979" type="curve" smooth="yes"/>
      <point x="112" y="636.392" type="line"/>
      <point x="147" y="634.642" type="line"/>
      <point x="147" y="976" type="line" smooth="yes"/>
      <point x="147" y="1103"/>
      <point x="186" y="1163"/>
      <point x="272" y="1163" type="curve" smooth="yes"/>
      <point x="357" y="1163"/>
      <point x="397" y="1103"/>
      <point x="397" y="976" type="curve" smooth="yes"/>
      <point x="397" y="710" type="line" smooth="yes"/>
      <point x="397" y="582"/>
      <point x="351" y="545"/>
      <point x="284" y="545" type="curve" smooth="yes"/>
      <point x="199.823" y="545"/>
      <point x="157.227" y="595"/>
      <point x="141" y="695" type="curve"/>
      <point x="143" y="604" type="line"/>
      <point x="148" y="604" type="line"/>
      <point x="165" y="554"/>
      <point x="205" y="512"/>
      <point x="284" y="512" type="curve" smooth="yes"/>
      <point x="384" y="512"/>
      <point x="432" y="572"/>
      <point x="432" y="710" type="curve" smooth="yes"/>
      <point x="432" y="979" type="line" smooth="yes"/>
      <point x="432" y="1126"/>
      <point x="380" y="1196"/>
    </contour>
    <contour>
      <point x="722" y="1196" type="curve" smooth="yes"/>
      <point x="613" y="1196"/>
      <point x="562" y="1126"/>
      <point x="562" y="979" type="curve" smooth="yes"/>
      <point x="562" y="710" type="line" smooth="yes"/>
      <point x="562" y="572"/>
      <point x="609" y="512"/>
      <point x="710" y="512" type="curve" smooth="yes"/>
      <point x="789" y="512"/>
      <point x="829" y="554"/>
      <point x="846" y="604" type="curve"/>
      <point x="851" y="604" type="line"/>
      <point x="853" y="695" type="line"/>
      <point x="836.773" y="595"/>
      <point x="794.177" y="545"/>
      <point x="710" y="545" type="curve" smooth="yes"/>
      <point x="642" y="545"/>
      <point x="597" y="582"/>
      <point x="597" y="710" type="curve" smooth="yes"/>
      <point x="597" y="976" type="line" smooth="yes"/>
      <point x="597" y="1103"/>
      <point x="636" y="1163"/>
      <point x="722" y="1163" type="curve" smooth="yes"/>
      <point x="808" y="1163"/>
      <point x="847" y="1103"/>
      <point x="847" y="976" type="curve" smooth="yes"/>
      <point x="847" y="628.4" type="line"/>
      <point x="882" y="631.337" type="line"/>
      <point x="882" y="979" type="line" smooth="yes"/>
      <point x="882" y="1126"/>
      <point x="831" y="1196"/>
    </contour>
  </outline>
</glyph>
<glyph name="vowelLruu.kn" format="2">
  <advance width="843"/>
  <unicode hex="0CE1"/>
  <outline>
    <contour>
      <point x="409" y="-17" type="line"/>
      <point x="403" y="-17" type="line"/>
      <point x="388" y="24"/>
      <point x="352" y="51"/>
      <point x="298" y="51" type="curve" smooth="yes"/>
      <point x="210" y="51"/>
      <point x="161" y="-9"/>
      <point x="161" y="-128" type="curve" smooth="yes"/>
      <point x="161" y="-215" type="line" smooth="yes"/>
      <point x="161" y="-334"/>
      <point x="210" y="-394"/>
      <point x="298" y="-394" type="curve" smooth="yes"/>
      <point x="350" y="-394"/>
      <point x="387" y="-370"/>
      <point x="403" y="-327" type="curve"/>
      <point x="406" y="-327" type="line"/>
      <point x="410" y="-246" type="line"/>
      <point x="398" y="-322"/>
      <point x="361" y="-361"/>
      <point x="300" y="-361" type="curve" smooth="yes"/>
      <point x="231" y="-361"/>
      <point x="196" y="-311"/>
      <point x="196" y="-215" type="curve" smooth="yes"/>
      <point x="196" y="-128" type="line" smooth="yes"/>
      <point x="196" y="-32"/>
      <point x="231" y="18"/>
      <point x="300" y="18" type="curve" smooth="yes"/>
      <point x="369" y="18"/>
      <point x="404" y="-32"/>
      <point x="404" y="-128" type="curve"/>
    </contour>
    <contour>
      <point x="404" y="1178" type="line"/>
      <point x="404" y="873" type="line" smooth="yes"/>
      <point x="404" y="816"/>
      <point x="405" y="772"/>
      <point x="407" y="728" type="curve"/>
      <point x="406" y="728" type="line"/>
      <point x="386" y="789"/>
      <point x="339" y="821"/>
      <point x="265" y="821" type="curve" smooth="yes"/>
      <point x="155" y="821"/>
      <point x="95" y="750"/>
      <point x="95" y="609" type="curve" smooth="yes"/>
      <point x="95" y="467" type="line" smooth="yes"/>
      <point x="95" y="322"/>
      <point x="124" y="221"/>
      <point x="178" y="140" type="curve"/>
      <point x="219" y="140" type="line"/>
      <point x="161" y="217"/>
      <point x="130" y="319"/>
      <point x="130" y="466" type="curve" smooth="yes"/>
      <point x="130" y="609" type="line" smooth="yes"/>
      <point x="130" y="727"/>
      <point x="176" y="788"/>
      <point x="267" y="788" type="curve" smooth="yes"/>
      <point x="358" y="788"/>
      <point x="404" y="727"/>
      <point x="404" y="609" type="curve" smooth="yes"/>
      <point x="404" y="-500" type="line"/>
      <point x="439" y="-500" type="line"/>
      <point x="439" y="609" type="line" smooth="yes"/>
      <point x="439" y="727"/>
      <point x="485" y="788"/>
      <point x="576" y="788" type="curve" smooth="yes"/>
      <point x="667" y="788"/>
      <point x="713" y="727"/>
      <point x="713" y="609" type="curve" smooth="yes"/>
      <point x="713" y="466" type="line" smooth="yes"/>
      <point x="713" y="319"/>
      <point x="682" y="217"/>
      <point x="624" y="140" type="curve"/>
      <point x="665" y="140" type="line"/>
      <point x="719" y="221"/>
      <point x="748" y="322"/>
      <point x="748" y="467" type="curve" smooth="yes"/>
      <point x="748" y="609" type="line" smooth="yes"/>
      <point x="748" y="750"/>
      <point x="688" y="821"/>
      <point x="578" y="821" type="curve" smooth="yes"/>
      <point x="504" y="821"/>
      <point x="457" y="789"/>
      <point x="437" y="728" type="curve"/>
      <point x="436" y="728" type="line"/>
      <point x="438" y="772"/>
      <point x="439" y="816"/>
      <point x="439" y="873" type="curve" smooth="yes"/>
      <point x="439" y="1178" type="line"/>
    </contour>
  </outline>
</glyph>
<glyph name="matraLru.kn" format="2">
  <unicode hex="0CE2"/>
  <outline>
    <contour>
      <point x="-185" y="-134" type="line"/>
      <point x="-185" y="-244" type="line" smooth="yes"/>
      <point x="-185" y="-274"/>
      <point x="-184" y="-309"/>
      <point x="-180" y="-341" type="curve"/>
      <point x="-181" y="-341" type="line"/>
      <point x="-193" y="-305"/>
      <point x="-216" y="-286"/>
      <point x="-260" y="-286" type="curve" smooth="yes"/>
      <point x="-325" y="-286"/>
      <point x="-360" y="-329"/>
      <point x="-360" y="-410" type="curve" smooth="yes"/>
      <point x="-360" y="-507" type="line" smooth="yes"/>
      <point x="-360" y="-587"/>
      <point x="-347" y="-636"/>
      <point x="-320" y="-676" type="curve"/>
      <point x="-286" y="-676" type="line"/>
      <point x="-311" y="-635"/>
      <point x="-328" y="-588"/>
      <point x="-328" y="-508" type="curve" smooth="yes"/>
      <point x="-328" y="-410" type="line" smooth="yes"/>
      <point x="-328" y="-348"/>
      <point x="-304" y="-316"/>
      <point x="-257" y="-316" type="curve" smooth="yes"/>
      <point x="-210" y="-316"/>
      <point x="-186" y="-348"/>
      <point x="-186" y="-411" type="curve" smooth="yes"/>
      <point x="-184" y="-673" type="line"/>
      <point x="-155" y="-673" type="line"/>
      <point x="-153" y="-411" type="line" smooth="yes"/>
      <point x="-153" y="-348"/>
      <point x="-129" y="-316"/>
      <point x="-82" y="-316" type="curve" smooth="yes"/>
      <point x="-35" y="-316"/>
      <point x="-11" y="-348"/>
      <point x="-11" y="-410" type="curve" smooth="yes"/>
      <point x="-11" y="-508" type="line" smooth="yes"/>
      <point x="-11" y="-588"/>
      <point x="-28" y="-635"/>
      <point x="-53" y="-676" type="curve"/>
      <point x="-19" y="-676" type="line"/>
      <point x="8" y="-636"/>
      <point x="21" y="-587"/>
      <point x="21" y="-507" type="curve" smooth="yes"/>
      <point x="21" y="-410" type="line" smooth="yes"/>
      <point x="21" y="-329"/>
      <point x="-14" y="-286"/>
      <point x="-79" y="-286" type="curve" smooth="yes"/>
      <point x="-123" y="-286"/>
      <point x="-146" y="-305"/>
      <point x="-158" y="-341" type="curve"/>
      <point x="-159" y="-341" type="line"/>
      <point x="-155" y="-309"/>
      <point x="-153" y="-274"/>
      <point x="-153" y="-244" type="curve" smooth="yes"/>
      <point x="-153" y="-134" type="line"/>
    </contour>
  </outline>
</glyph>
<glyph name="matraLruu.kn" format="2">
  <unicode hex="0CE3"/>
  <outline>
    <contour>
      <point x="-247" y="-544" type="curve" smooth="yes"/>
      <point x="-303" y="-544"/>
      <point x="-333" y="-579"/>
      <point x="-333" y="-648" type="curve" smooth="yes"/>
      <point x="-333" y="-663" type="line" smooth="yes"/>
      <point x="-333" y="-732"/>
      <point x="-303" y="-767"/>
      <point x="-248" y="-767" type="curve" smooth="yes"/>
      <point x="-219" y="-767"/>
      <point x="-194" y="-752"/>
      <point x="-185" y="-727" type="curve"/>
      <point x="-182" y="-727" type="line"/>
      <point x="-179" y="-670" type="line"/>
      <point x="-186" y="-715"/>
      <point x="-209" y="-739"/>
      <point x="-247" y="-739" type="curve" smooth="yes"/>
      <point x="-284" y="-739"/>
      <point x="-303" y="-713"/>
      <point x="-303" y="-663" type="curve" smooth="yes"/>
      <point x="-303" y="-648" type="line" smooth="yes"/>
      <point x="-303" y="-598"/>
      <point x="-283" y="-572"/>
      <point x="-243" y="-572" type="curve" smooth="yes"/>
      <point x="-204" y="-572"/>
      <point x="-184" y="-597"/>
      <point x="-184" y="-643" type="curve"/>
      <point x="-180" y="-585" type="line"/>
      <point x="-185" y="-585" type="line"/>
      <point x="-193" y="-559"/>
      <point x="-214" y="-544"/>
    </contour>
    <contour>
      <point x="-185" y="-134" type="line"/>
      <point x="-185" y="-224" type="line" smooth="yes"/>
      <point x="-185" y="-254"/>
      <point x="-184" y="-289"/>
      <point x="-180" y="-321" type="curve"/>
      <point x="-181" y="-321" type="line"/>
      <point x="-193" y="-285"/>
      <point x="-216" y="-266"/>
      <point x="-260" y="-266" type="curve" smooth="yes"/>
      <point x="-325" y="-266"/>
      <point x="-360" y="-309"/>
      <point x="-360" y="-390" type="curve" smooth="yes"/>
      <point x="-360" y="-417" type="line" smooth="yes"/>
      <point x="-360" y="-461"/>
      <point x="-356" y="-495"/>
      <point x="-346" y="-524" type="curve"/>
      <point x="-314" y="-524" type="line"/>
      <point x="-323" y="-495"/>
      <point x="-328" y="-462"/>
      <point x="-328" y="-418" type="curve" smooth="yes"/>
      <point x="-328" y="-390" type="line" smooth="yes"/>
      <point x="-328" y="-328"/>
      <point x="-304" y="-296"/>
      <point x="-257" y="-296" type="curve" smooth="yes"/>
      <point x="-210" y="-296"/>
      <point x="-186" y="-328"/>
      <point x="-186" y="-391" type="curve" smooth="yes"/>
      <point x="-183" y="-804" type="line"/>
      <point x="-154" y="-804" type="line"/>
      <point x="-153" y="-391" type="line" smooth="yes"/>
      <point x="-153" y="-328"/>
      <point x="-129" y="-296"/>
      <point x="-82" y="-296" type="curve" smooth="yes"/>
      <point x="-35" y="-296"/>
      <point x="-11" y="-328"/>
      <point x="-11" y="-390" type="curve" smooth="yes"/>
      <point x="-11" y="-418" type="line" smooth="yes"/>
      <point x="-11" y="-462"/>
      <point x="-16" y="-495"/>
      <point x="-25" y="-524" type="curve"/>
      <point x="7" y="-524" type="line"/>
      <point x="17" y="-495"/>
      <point x="21" y="-461"/>
      <point x="21" y="-417" type="curve" smooth="yes"/>
      <point x="21" y="-390" type="line" smooth="yes"/>
      <point x="21" y="-309"/>
      <point x="-14" y="-266"/>
      <point x="-79" y="-266" type="curve" smooth="yes"/>
      <point x="-123" y="-266"/>
      <point x="-146" y="-285"/>
      <point x="-158" y="-321" type="curve"/>
      <point x="-159" y="-321" type="line"/>
      <point x="-155" y="-289"/>
      <point x="-153" y="-254"/>
      <point x="-153" y="-224" type="curve" smooth="yes"/>
      <point x="-153" y="-134" type="line"/>
    </contour>
  </outline>
</glyph>
<glyph name="Shunya.kn" format="2">
  <advance width="692"/>
  <unicode hex="0CE6"/>
  <outline>
    <contour>
      <point x="147" y="602" type="line"/>
      <point x="147" y="906" type="line" smooth="yes"/>
      <point x="147" y="1075"/>
      <point x="215" y="1163"/>
      <point x="346" y="1163" type="curve" smooth="yes"/>
      <point x="477" y="1163"/>
      <point x="545" y="1075"/>
      <point x="545" y="906" type="curve" smooth="yes"/>
      <point x="545" y="602" type="line"/>
      <point x="580" y="602" type="line"/>
      <point x="580" y="906" type="line" smooth="yes"/>
      <point x="580" y="1098"/>
      <point x="501" y="1196"/>
      <point x="346" y="1196" type="curve" smooth="yes"/>
      <point x="191" y="1196"/>
      <point x="112" y="1098"/>
      <point x="112" y="906" type="curve" smooth="yes"/>
      <point x="112" y="602" type="line"/>
    </contour>
    <contour>
      <point x="147" y="626" type="line"/>
      <point x="112" y="626" type="line"/>
      <point x="112" y="276" type="line" smooth="yes"/>
      <point x="112" y="83"/>
      <point x="191" y="-16"/>
      <point x="346" y="-16" type="curve" smooth="yes"/>
      <point x="501" y="-16"/>
      <point x="580" y="83"/>
      <point x="580" y="276" type="curve" smooth="yes"/>
      <point x="580" y="626" type="line"/>
      <point x="545" y="626" type="line"/>
      <point x="545" y="276" type="line" smooth="yes"/>
      <point x="545" y="106"/>
      <point x="477" y="17"/>
      <point x="346" y="17" type="curve" smooth="yes"/>
      <point x="215" y="17"/>
      <point x="147" y="106"/>
      <point x="147" y="276" type="curve" smooth="yes"/>
    </contour>
  </outline>
</glyph>
<glyph name="Ondu.kn" format="2">
  <advance width="692"/>
  <unicode hex="0CE7"/>
  <outline>
    <contour>
      <point x="346" y="1196" type="curve" smooth="yes"/>
      <point x="191" y="1196"/>
      <point x="112" y="1097"/>
      <point x="112" y="904" type="curve" smooth="yes"/>
      <point x="112" y="377" type="line" smooth="yes"/>
      <point x="112" y="209"/>
      <point x="137" y="94"/>
      <point x="185" y="0" type="curve"/>
      <point x="222" y="0" type="line"/>
      <point x="173" y="89"/>
      <point x="147" y="207"/>
      <point x="147" y="376" type="curve" smooth="yes"/>
      <point x="147" y="904" type="line" smooth="yes"/>
      <point x="147" y="1074"/>
      <point x="215" y="1163"/>
      <point x="346" y="1163" type="curve" smooth="yes"/>
      <point x="477" y="1163"/>
      <point x="545" y="1074"/>
      <point x="545" y="904" type="curve" smooth="yes"/>
      <point x="545" y="376" type="line" smooth="yes"/>
      <point x="545" y="207"/>
      <point x="519" y="89"/>
      <point x="470" y="0" type="curve"/>
      <point x="507" y="0" type="line"/>
      <point x="555" y="94"/>
      <point x="580" y="209"/>
      <point x="580" y="377" type="curve" smooth="yes"/>
      <point x="580" y="904" type="line" smooth="yes"/>
      <point x="580" y="1097"/>
      <point x="501" y="1196"/>
    </contour>
  </outline>
</glyph>
<glyph name="Eradu.kn" format="2">
  <advance width="833"/>
  <unicode hex="0CE8"/>
  <outline>
    <contour>
      <point x="192" y="834.825" type="line"/>
      <point x="192" y="588" type="line" smooth="yes"/>
      <point x="192" y="441"/>
      <point x="244" y="370"/>
      <point x="353" y="370" type="curve" smooth="yes"/>
      <point x="462" y="370"/>
      <point x="514" y="441"/>
      <point x="514" y="588" type="curve" smooth="yes"/>
      <point x="514" y="760" type="line" smooth="yes"/>
      <point x="514" y="898"/>
      <point x="466" y="959"/>
      <point x="365" y="959" type="curve" smooth="yes"/>
      <point x="286" y="959"/>
      <point x="245" y="916"/>
      <point x="228" y="865" type="curve"/>
      <point x="223" y="865" type="line"/>
      <point x="220" y="770" type="line"/>
      <point x="236.338" y="873"/>
      <point x="280.246" y="926"/>
      <point x="365" y="926" type="curve" smooth="yes"/>
      <point x="433" y="926"/>
      <point x="479" y="889"/>
      <point x="479" y="760" type="curve" smooth="yes"/>
      <point x="479" y="591" type="line" smooth="yes"/>
      <point x="479" y="464"/>
      <point x="439" y="403"/>
      <point x="353" y="403" type="curve" smooth="yes"/>
      <point x="267" y="403"/>
      <point x="227" y="464"/>
      <point x="227" y="591" type="curve" smooth="yes"/>
      <point x="227" y="837.552" type="line"/>
    </contour>
    <contour>
      <point x="227" y="835.552" type="line"/>
      <point x="227" y="870" type="line" smooth="yes"/>
      <point x="227" y="1063"/>
      <point x="305" y="1163"/>
      <point x="460" y="1163" type="curve" smooth="yes"/>
      <point x="615" y="1163"/>
      <point x="693" y="1063"/>
      <point x="693" y="870" type="curve" smooth="yes"/>
      <point x="693" y="491" type="line" smooth="yes"/>
      <point x="693" y="167"/>
      <point x="582" y="32"/>
      <point x="319" y="32" type="curve" smooth="yes"/>
      <point x="0" y="32" type="line"/>
      <point x="5" y="0" type="line"/>
      <point x="321" y="0" type="line" smooth="yes"/>
      <point x="605" y="0"/>
      <point x="728" y="151"/>
      <point x="728" y="493" type="curve" smooth="yes"/>
      <point x="728" y="870" type="line" smooth="yes"/>
      <point x="728" y="1086"/>
      <point x="639" y="1196"/>
      <point x="460" y="1196" type="curve" smooth="yes"/>
      <point x="281" y="1196"/>
      <point x="192" y="1086"/>
      <point x="192" y="870" type="curve" smooth="yes"/>
      <point x="192" y="832.825" type="line"/>
    </contour>
  </outline>
</glyph>
<glyph name="Aidu.kn" format="2">
  <advance width="1031"/>
  <unicode hex="0CEB"/>
  <outline>
    <contour>
      <point x="280" y="1196" type="curve" smooth="yes"/>
      <point x="162" y="1196"/>
      <point x="103" y="1120"/>
      <point x="103" y="973" type="curve" smooth="yes"/>
      <point x="103" y="910" type="line" smooth="yes"/>
      <point x="103" y="801"/>
      <point x="118" y="734"/>
      <point x="143" y="680" type="curve"/>
      <point x="180" y="680" type="line"/>
      <point x="154" y="733"/>
      <point x="138" y="801"/>
      <point x="138" y="912" type="curve" smooth="yes"/>
      <point x="138" y="973" type="line" smooth="yes"/>
      <point x="138" y="1097"/>
      <point x="184" y="1163"/>
      <point x="280" y="1163" type="curve" smooth="yes"/>
      <point x="379" y="1163"/>
      <point x="425" y="1097"/>
      <point x="425" y="972" type="curve" smooth="yes"/>
      <point x="425" y="538" type="line"/>
      <point x="425" y="531" type="line"/>
      <point x="425" y="209" type="line" smooth="yes"/>
      <point x="425" y="84"/>
      <point x="376" y="19"/>
      <point x="276" y="19" type="curve" smooth="yes"/>
      <point x="176" y="19"/>
      <point x="127" y="84"/>
      <point x="127" y="209" type="curve" smooth="yes"/>
      <point x="127" y="308" type="line" smooth="yes"/>
      <point x="127" y="452"/>
      <point x="181" y="519"/>
      <point x="295" y="519" type="curve" smooth="yes"/>
      <point x="435" y="519" type="line"/>
      <point x="445" y="519" type="line"/>
      <point x="722" y="519" type="line" smooth="yes"/>
      <point x="732" y="519"/>
      <point x="741" y="519"/>
      <point x="750" y="520" type="curve"/>
      <point x="758" y="522" type="line"/>
      <point x="869" y="535"/>
      <point x="924" y="614"/>
      <point x="924" y="762" type="curve" smooth="yes"/>
      <point x="924" y="993" type="line" smooth="yes"/>
      <point x="924" y="1126"/>
      <point x="869" y="1196"/>
      <point x="760" y="1196" type="curve" smooth="yes"/>
      <point x="651" y="1196"/>
      <point x="596" y="1126"/>
      <point x="596" y="993" type="curve" smooth="yes"/>
      <point x="596" y="841" type="line" smooth="yes"/>
      <point x="596" y="677"/>
      <point x="655" y="604"/>
      <point x="718" y="541" type="curve"/>
      <point x="731" y="529" type="line" smooth="yes"/>
      <point x="812" y="454"/>
      <point x="885" y="387"/>
      <point x="885" y="244" type="curve" smooth="yes"/>
      <point x="885" y="226" type="line" smooth="yes"/>
      <point x="885" y="79"/>
      <point x="842" y="25"/>
      <point x="742" y="25" type="curve" smooth="yes"/>
      <point x="693" y="25"/>
      <point x="645" y="40"/>
      <point x="607" y="62" type="curve"/>
      <point x="613" y="25" type="line"/>
      <point x="644" y="7"/>
      <point x="694" y="-8"/>
      <point x="742" y="-8" type="curve" smooth="yes"/>
      <point x="867" y="-8"/>
      <point x="920" y="57"/>
      <point x="920" y="225" type="curve" smooth="yes"/>
      <point x="920" y="244" type="line" smooth="yes"/>
      <point x="920" y="392"/>
      <point x="848" y="466"/>
      <point x="769" y="539" type="curve"/>
      <point x="757" y="549" type="line"/>
      <point x="692" y="613"/>
      <point x="631" y="683"/>
      <point x="631" y="844" type="curve" smooth="yes"/>
      <point x="631" y="993" type="line" smooth="yes"/>
      <point x="631" y="1105"/>
      <point x="674" y="1163"/>
      <point x="760" y="1163" type="curve" smooth="yes"/>
      <point x="846" y="1163"/>
      <point x="889" y="1105"/>
      <point x="889" y="993" type="curve" smooth="yes"/>
      <point x="889" y="762" type="line" smooth="yes"/>
      <point x="889" y="618"/>
      <point x="835" y="551"/>
      <point x="721" y="551" type="curve" smooth="yes"/>
      <point x="448" y="551" type="line"/>
      <point x="436" y="551" type="line"/>
      <point x="294" y="551" type="line" smooth="yes"/>
      <point x="159" y="551"/>
      <point x="92" y="471"/>
      <point x="92" y="308" type="curve" smooth="yes"/>
      <point x="92" y="209" type="line" smooth="yes"/>
      <point x="92" y="63"/>
      <point x="153" y="-14"/>
      <point x="276" y="-14" type="curve" smooth="yes"/>
      <point x="399" y="-14"/>
      <point x="460" y="63"/>
      <point x="460" y="209" type="curve" smooth="yes"/>
      <point x="460" y="972" type="line" smooth="yes"/>
      <point x="460" y="1120"/>
      <point x="401" y="1196"/>
    </contour>
  </outline>
</glyph>
<glyph name="Aaru.kn" format="2">
  <advance width="724"/>
  <unicode hex="0CEC"/>
  <outline>
    <contour>
      <point x="137" y="265" type="curve" smooth="yes"/>
      <point x="137" y="394" type="line" smooth="yes"/>
      <point x="137" y="546"/>
      <point x="183" y="613"/>
      <point x="315" y="614" type="curve" smooth="yes"/>
      <point x="456" y="615" type="line"/>
      <point x="456" y="646" type="line"/>
      <point x="311" y="647" type="line" smooth="yes"/>
      <point x="183" y="648"/>
      <point x="139" y="715"/>
      <point x="139" y="867" type="curve" smooth="yes"/>
      <point x="139" y="942" type="line" smooth="yes"/>
      <point x="139" y="1104"/>
      <point x="193" y="1163"/>
      <point x="317" y="1163" type="curve" smooth="yes"/>
      <point x="360" y="1163"/>
      <point x="404" y="1154"/>
      <point x="436" y="1139" type="curve"/>
      <point x="431" y="1173" type="line"/>
      <point x="403" y="1185"/>
      <point x="358" y="1196"/>
      <point x="317" y="1196" type="curve" smooth="yes"/>
      <point x="168" y="1196"/>
      <point x="104" y="1125"/>
      <point x="104" y="943" type="curve" smooth="yes"/>
      <point x="104" y="867" type="line" smooth="yes"/>
      <point x="104" y="729"/>
      <point x="141" y="648"/>
      <point x="253" y="631" type="curve"/>
      <point x="253" y="629" type="line"/>
      <point x="141" y="614"/>
      <point x="102" y="534"/>
      <point x="102" y="394" type="curve" smooth="yes"/>
      <point x="102" y="264" type="line" smooth="yes"/>
      <point x="102" y="83"/>
      <point x="185" y="0"/>
      <point x="345" y="0" type="curve" smooth="yes"/>
      <point x="689" y="0" type="line"/>
      <point x="694" y="32" type="line"/>
      <point x="345" y="32" type="line" smooth="yes"/>
      <point x="209" y="32"/>
      <point x="137" y="105"/>
    </contour>
  </outline>
</glyph>
<glyph name="Yelu.kn" format="2">
  <advance width="712"/>
  <unicode hex="0CED"/>
  <outline>
    <contour>
      <point x="294" y="1196" type="curve" smooth="yes"/>
      <point x="179" y="1196"/>
      <point x="121" y="1126"/>
      <point x="121" y="989" type="curve" smooth="yes"/>
      <point x="121" y="912" type="line" smooth="yes"/>
      <point x="121" y="829"/>
      <point x="138" y="748"/>
      <point x="161" y="701" type="curve"/>
      <point x="198" y="701" type="line"/>
      <point x="172" y="750"/>
      <point x="156" y="824"/>
      <point x="156" y="914" type="curve" smooth="yes"/>
      <point x="156" y="989" type="line" smooth="yes"/>
      <point x="156" y="1104"/>
      <point x="202" y="1163"/>
      <point x="294" y="1163" type="curve" smooth="yes"/>
      <point x="385" y="1163"/>
      <point x="432" y="1104"/>
      <point x="432" y="989" type="curve" smooth="yes"/>
      <point x="432" y="905" type="line" smooth="yes"/>
      <point x="432" y="777"/>
      <point x="388" y="706"/>
      <point x="308" y="621" type="curve" smooth="yes"/>
      <point x="234" y="542" type="line" smooth="yes"/>
      <point x="141" y="443"/>
      <point x="90" y="379"/>
      <point x="90" y="244" type="curve" smooth="yes"/>
      <point x="90" y="224" type="line" smooth="yes"/>
      <point x="90" y="71"/>
      <point x="167" y="0"/>
      <point x="313" y="0" type="curve" smooth="yes"/>
      <point x="677" y="0" type="line"/>
      <point x="682" y="32" type="line"/>
      <point x="313" y="32" type="line" smooth="yes"/>
      <point x="191" y="32"/>
      <point x="125" y="93"/>
      <point x="125" y="225" type="curve" smooth="yes"/>
      <point x="125" y="244" type="line" smooth="yes"/>
      <point x="125" y="364"/>
      <point x="171" y="425"/>
      <point x="260" y="520" type="curve" smooth="yes"/>
      <point x="333" y="598" type="line" smooth="yes"/>
      <point x="418" y="688"/>
      <point x="467" y="767"/>
      <point x="467" y="904" type="curve" smooth="yes"/>
      <point x="467" y="989" type="line" smooth="yes"/>
      <point x="467" y="1126"/>
      <point x="408" y="1196"/>
    </contour>
  </outline>
</glyph>
<glyph name="Ombattu.kn" format="2">
  <advance width="714"/>
  <unicode hex="0CEF"/>
  <outline>
    <contour>
      <point x="137" y="913" type="line" smooth="yes"/>
      <point x="137" y="1073"/>
      <point x="209" y="1146"/>
      <point x="345" y="1146" type="curve" smooth="yes"/>
      <point x="689" y="1146" type="line"/>
      <point x="689" y="1178" type="line"/>
      <point x="345" y="1178" type="line" smooth="yes"/>
      <point x="185" y="1178"/>
      <point x="102" y="1095"/>
      <point x="102" y="914" type="curve" smooth="yes"/>
      <point x="102" y="822" type="line" smooth="yes"/>
      <point x="102" y="681.87"/>
      <point x="140.748" y="601.464"/>
      <point x="253" y="586.552" type="curve"/>
      <point x="253" y="585.412" type="line"/>
      <point x="139.141" y="568.117"/>
      <point x="102" y="487.388"/>
      <point x="102" y="349" type="curve" smooth="yes"/>
      <point x="102" y="253" type="line" smooth="yes"/>
      <point x="102" y="71"/>
      <point x="166" y="0"/>
      <point x="315" y="0" type="curve" smooth="yes"/>
      <point x="396" y="0" type="line"/>
      <point x="401" y="32" type="line"/>
      <point x="315" y="32" type="line" smooth="yes"/>
      <point x="191" y="32"/>
      <point x="137" y="91"/>
      <point x="137" y="254" type="curve" smooth="yes"/>
      <point x="137" y="349" type="line" smooth="yes"/>
      <point x="137" y="501"/>
      <point x="182" y="568"/>
      <point x="311" y="569" type="curve" smooth="yes"/>
      <point x="446" y="570" type="line"/>
      <point x="446" y="601" type="line"/>
      <point x="315" y="602" type="line" smooth="yes"/>
      <point x="183" y="603"/>
      <point x="137" y="670"/>
      <point x="137" y="822" type="curve" smooth="yes"/>
    </contour>
  </outline>
</glyph>
<glyph name="Jihvamuliya.kn" format="2">
  <advance width="629"/>
  <unicode hex="0CF1"/>
  <outline>
    <contour>
      <point x="44" y="1178" type="line"/>
      <point x="44" y="1146" type="line"/>
      <point x="293" y="599" type="line"/>
      <point x="44" y="32" type="line"/>
      <point x="44" y="0" type="line"/>
      <point x="579" y="0" type="line"/>
      <point x="579" y="32" type="line"/>
      <point x="331" y="598" type="line"/>
      <point x="579" y="1146" type="line"/>
      <point x="579" y="1178" type="line"/>
    </contour>
    <contour>
      <point x="80" y="1146" type="line"/>
      <point x="543" y="1146" type="line"/>
      <point x="312" y="634" type="line"/>
    </contour>
    <contour>
      <point x="80" y="32" type="line"/>
      <point x="312" y="562" type="line"/>
      <point x="543" y="32" type="line"/>
    </contour>
  </outline>
</glyph>
<glyph name="quoteleft" format="2">
  <advance width="254"/>
  <unicode hex="2018"/>
  <outline>
    <contour>
      <point x="128" y="904" type="line"/>
      <point x="123" y="943"/>
      <point x="119" y="979"/>
      <point x="119" y="1014" type="curve" smooth="yes"/>
      <point x="119" y="1138"/>
      <point x="148" y="1235"/>
      <point x="198" y="1318" type="curve"/>
      <point x="174" y="1336" type="line"/>
      <point x="108" y="1243"/>
      <point x="82" y="1140"/>
      <point x="82" y="1013" type="curve" smooth="yes"/>
      <point x="82" y="967"/>
      <point x="88" y="928"/>
      <point x="91" y="904" type="curve"/>
    </contour>
  </outline>
</glyph>
<glyph name="guilsinglright" format="2">
  <advance width="366"/>
  <unicode hex="203A"/>
  <outline>
    <contour>
      <point x="79" y="877" type="line"/>
      <point x="114" y="877" type="line"/>
      <point x="279" y="508" type="line"/>
      <point x="279" y="480" type="line"/>
      <point x="114" y="111" type="line"/>
      <point x="79" y="111" type="line"/>
      <point x="247" y="494" type="line"/>
    </contour>
  </outline>
</glyph>
<glyph name="sixsuperior" format="2">
  <advance width="359"/>
  <unicode hex="2076"/>
  <outline>
    <contour>
      <point x="184" y="689" type="curve" smooth="yes"/>
      <point x="269" y="689"/>
      <point x="309" y="741"/>
      <point x="309" y="840" type="curve"/>
      <point x="309" y="974" type="line"/>
      <point x="309" y="1072"/>
      <point x="270" y="1128"/>
      <point x="196" y="1128" type="curve" smooth="yes"/>
      <point x="130" y="1128"/>
      <point x="91" y="1086"/>
      <point x="87" y="1016" type="curve"/>
      <point x="76" y="1016" type="line"/>
      <point x="90" y="989" type="line"/>
      <point x="102" y="1068"/>
      <point x="137" y="1098"/>
      <point x="188" y="1098" type="curve" smooth="yes"/>
      <point x="248" y="1098"/>
      <point x="275" y="1051"/>
      <point x="275" y="971" type="curve"/>
      <point x="275" y="838" type="line"/>
      <point x="275" y="761"/>
      <point x="247" y="719"/>
      <point x="184" y="719" type="curve" smooth="yes"/>
      <point x="112" y="719"/>
      <point x="94" y="772"/>
      <point x="94" y="834" type="curve" smooth="yes"/>
      <point x="94" y="1222" type="line" smooth="yes"/>
      <point x="94" y="1286"/>
      <point x="106" y="1360"/>
      <point x="201" y="1360" type="curve" smooth="yes"/>
      <point x="238" y="1360"/>
      <point x="271" y="1346"/>
      <point x="299" y="1327" type="curve"/>
      <point x="295" y="1362" type="line"/>
      <point x="275" y="1376"/>
      <point x="239" y="1391"/>
      <point x="198" y="1391" type="curve" smooth="yes"/>
      <point x="93" y="1391"/>
      <point x="60" y="1321"/>
      <point x="60" y="1222" type="curve" smooth="yes"/>
      <point x="60" y="835" type="line" smooth="yes"/>
      <point x="60" y="740"/>
      <point x="99" y="689"/>
    </contour>
  </outline>
</glyph>
<glyph name="euro" format="2">
  <advance width="541"/>
  <unicode hex="20AC"/>
  <outline>
    <contour>
      <point x="347" y="-15" type="curve" smooth="yes"/>
      <point x="404" y="-15"/>
      <point x="452" y="5"/>
      <point x="485" y="30" type="curve"/>
      <point x="491" y="72" type="line"/>
      <point x="449" y="41"/>
      <point x="406" y="21"/>
      <point x="349" y="21" type="curve" smooth="yes"/>
      <point x="223" y="21"/>
      <point x="175" y="110"/>
      <point x="175" y="266" type="curve" smooth="yes"/>
      <point x="175" y="1012" type="line" smooth="yes"/>
      <point x="175" y="1170"/>
      <point x="221" y="1257"/>
      <point x="342" y="1257" type="curve" smooth="yes"/>
      <point x="397" y="1257"/>
      <point x="441" y="1238"/>
      <point x="480" y="1209" type="curve"/>
      <point x="474" y="1250" type="line"/>
      <point x="443" y="1274"/>
      <point x="395" y="1293"/>
      <point x="342" y="1293" type="curve" smooth="yes"/>
      <point x="195" y="1293"/>
      <point x="136" y="1191"/>
      <point x="136" y="1012" type="curve" smooth="yes"/>
      <point x="136" y="266" type="line" smooth="yes"/>
      <point x="136" y="89"/>
      <point x="195" y="-15"/>
    </contour>
    <contour>
      <point x="442" y="489" type="line"/>
      <point x="448" y="520" type="line"/>
      <point x="37" y="520" type="line"/>
      <point x="30" y="489" type="line"/>
    </contour>
    <contour>
      <point x="442" y="796" type="line"/>
      <point x="448" y="827" type="line"/>
      <point x="37" y="827" type="line"/>
      <point x="30" y="796" type="line"/>
    </contour>
  </outline>
</glyph>
<glyph name="BaHalant.kn" format="2">
  <advance width="1237"/>
  <outline>
    <component base="Halant.kn" xOffset="919"/>
    <contour>
      <point x="266" y="1196" type="curve" smooth="yes"/>
      <point x="158" y="1196"/>
      <point x="103" y="1129"/>
      <point x="103" y="999" type="curve" smooth="yes"/>
      <point x="103" y="912" type="line" smooth="yes"/>
      <point x="103" y="829"/>
      <point x="120" y="748"/>
      <point x="143" y="701" type="curve"/>
      <point x="180" y="701" type="line"/>
      <point x="154" y="750"/>
      <point x="138" y="824"/>
      <point x="138" y="914" type="curve" smooth="yes"/>
      <point x="138" y="999" type="line" smooth="yes"/>
      <point x="138" y="1107"/>
      <point x="181" y="1163"/>
      <point x="266" y="1163" type="curve" smooth="yes"/>
      <point x="350" y="1163"/>
      <point x="394" y="1107"/>
      <point x="394" y="999" type="curve" smooth="yes"/>
      <point x="394" y="925" type="line" smooth="yes"/>
      <point x="394" y="797"/>
      <point x="354" y="725"/>
      <point x="280" y="641" type="curve" smooth="yes"/>
      <point x="211" y="562" type="line" smooth="yes"/>
      <point x="126" y="465"/>
      <point x="82" y="392"/>
      <point x="82" y="254" type="curve" smooth="yes"/>
      <point x="82" y="217" type="line" smooth="yes"/>
      <point x="82" y="58"/>
      <point x="141" y="-14"/>
      <point x="260" y="-14" type="curve" smooth="yes"/>
      <point x="355" y="-14"/>
      <point x="413" y="39"/>
      <point x="420" y="142" type="curve"/>
      <point x="422" y="142" type="line"/>
      <point x="429" y="39"/>
      <point x="485" y="-14"/>
      <point x="576" y="-14" type="curve" smooth="yes"/>
      <point x="690" y="-14"/>
      <point x="748" y="57"/>
      <point x="748" y="215" type="curve" smooth="yes"/>
      <point x="748" y="848" type="line" smooth="yes"/>
      <point x="748" y="1029"/>
      <point x="704" y="1117"/>
      <point x="626" y="1145" type="curve"/>
      <point x="626" y="1167" type="line"/>
      <point x="506" y="1167" type="line"/>
      <point x="506" y="1146" type="line"/>
      <point x="653" y="1146"/>
      <point x="713" y="1059"/>
      <point x="713" y="849" type="curve" smooth="yes"/>
      <point x="713" y="216" type="line" smooth="yes"/>
      <point x="713" y="83"/>
      <point x="668" y="19"/>
      <point x="575" y="19" type="curve" smooth="yes"/>
      <point x="483" y="19"/>
      <point x="440" y="81"/>
      <point x="439" y="217" type="curve" smooth="yes"/>
      <point x="437" y="411" type="line"/>
      <point x="405" y="411" type="line"/>
      <point x="403" y="217" type="line" smooth="yes"/>
      <point x="402" y="81"/>
      <point x="357" y="19"/>
      <point x="261" y="19" type="curve" smooth="yes"/>
      <point x="165" y="19"/>
      <point x="117" y="81"/>
      <point x="117" y="218" type="curve" smooth="yes"/>
      <point x="117" y="254" type="line" smooth="yes"/>
      <point x="117" y="378"/>
      <point x="156" y="448"/>
      <point x="237" y="540" type="curve" smooth="yes"/>
      <point x="305" y="618" type="line" smooth="yes"/>
      <point x="383" y="708"/>
      <point x="429" y="787"/>
      <point x="429" y="924" type="curve" smooth="yes"/>
      <point x="429" y="999" type="line" smooth="yes"/>
      <point x="429" y="1129"/>
      <point x="373" y="1196"/>
    </contour>
    <contour>
      <point x="477" y="1146" type="line"/>
      <point x="620" y="1146" type="line"/>
      <point x="620" y="1178" type="line"/>
      <point x="477" y="1178" type="line"/>
    </contour>
  </outline>
  <guideline angle="90" x="1161" y="0"/>
  <guideline angle="90" x="838" y="0"/>
  <guideline angle="90" x="419" y="0"/>
  <guideline angle="90" x="748" y="0"/>
</glyph>
<glyph name="BamatraI.kn" format="2">
  <advance width="886"/>
  <outline>
    <contour>
      <point x="266" y="1196" type="curve" smooth="yes"/>
      <point x="158" y="1196"/>
      <point x="103" y="1129"/>
      <point x="103" y="999" type="curve" smooth="yes"/>
      <point x="103" y="912" type="line" smooth="yes"/>
      <point x="103" y="829"/>
      <point x="120" y="748"/>
      <point x="143" y="701" type="curve"/>
      <point x="180" y="701" type="line"/>
      <point x="154" y="750"/>
      <point x="138" y="824"/>
      <point x="138" y="914" type="curve" smooth="yes"/>
      <point x="138" y="999" type="line" smooth="yes"/>
      <point x="138" y="1107"/>
      <point x="181" y="1163"/>
      <point x="266" y="1163" type="curve" smooth="yes"/>
      <point x="350" y="1163"/>
      <point x="394" y="1107"/>
      <point x="394" y="999" type="curve" smooth="yes"/>
      <point x="394" y="925" type="line" smooth="yes"/>
      <point x="394" y="810.825"/>
      <point x="363.787" y="736.93"/>
      <point x="280" y="641" type="curve" smooth="yes"/>
      <point x="211" y="562" type="line" smooth="yes"/>
      <point x="126" y="465"/>
      <point x="82" y="392"/>
      <point x="82" y="254" type="curve" smooth="yes"/>
      <point x="82" y="222" type="line" smooth="yes"/>
      <point x="82" y="59.5584"/>
      <point x="142.657" y="-14"/>
      <point x="265" y="-14" type="curve" smooth="yes"/>
      <point x="362.969" y="-14"/>
      <point x="422.781" y="40.6987"/>
      <point x="430" y="147" type="curve"/>
      <point x="434" y="147" type="line"/>
      <point x="434" y="411" type="line"/>
      <point x="415" y="411" type="line"/>
      <point x="413" y="222" type="line" smooth="yes"/>
      <point x="411.525" y="82.5698"/>
      <point x="365.38" y="19"/>
      <point x="266" y="19" type="curve" smooth="yes"/>
      <point x="166.667" y="19"/>
      <point x="117" y="82.5578"/>
      <point x="117" y="223" type="curve" smooth="yes"/>
      <point x="117" y="254" type="line" smooth="yes"/>
      <point x="117" y="378"/>
      <point x="156" y="448"/>
      <point x="237" y="540" type="curve" smooth="yes"/>
      <point x="305" y="618" type="line" smooth="yes"/>
      <point x="383" y="708"/>
      <point x="429" y="787"/>
      <point x="429" y="924" type="curve" smooth="yes"/>
      <point x="429" y="999" type="line" smooth="yes"/>
      <point x="429" y="1129"/>
      <point x="373" y="1196"/>
    </contour>
    <contour>
      <point x="768" y="220" type="curve" smooth="yes"/>
      <point x="768" y="780" type="line" smooth="yes"/>
      <point x="768" y="941"/>
      <point x="768" y="1033"/>
      <point x="768" y="1194" type="curve" smooth="yes"/>
      <point x="768" y="1319"/>
      <point x="722" y="1378"/>
      <point x="625" y="1378" type="curve" smooth="yes"/>
      <point x="528" y="1378"/>
      <point x="482" y="1319"/>
      <point x="482" y="1194" type="curve" smooth="yes"/>
      <point x="482" y="1050" type="line" smooth="yes"/>
      <point x="482" y="938"/>
      <point x="527" y="888"/>
      <point x="621" y="888" type="curve" smooth="yes"/>
      <point x="686" y="888"/>
      <point x="718" y="921"/>
      <point x="732" y="957" type="curve"/>
      <point x="737" y="957" type="line"/>
      <point x="737" y="1036" type="line"/>
      <point x="722" y="963"/>
      <point x="690" y="921"/>
      <point x="621" y="921" type="curve" smooth="yes"/>
      <point x="560" y="921"/>
      <point x="517" y="951"/>
      <point x="517" y="1050" type="curve" smooth="yes"/>
      <point x="517" y="1194" type="line" smooth="yes"/>
      <point x="517" y="1297"/>
      <point x="551" y="1345"/>
      <point x="625" y="1345" type="curve" smooth="yes"/>
      <point x="699" y="1345"/>
      <point x="733" y="1297"/>
      <point x="733" y="1194" type="curve" smooth="yes"/>
      <point x="733" y="1115"/>
      <point x="733" y="1070"/>
      <point x="733" y="991" type="curve" smooth="yes"/>
      <point x="733" y="987"/>
      <point x="733" y="985"/>
      <point x="733" y="981" type="curve"/>
      <point x="733" y="980.56"/>
      <point x="733" y="971.44"/>
      <point x="733" y="971" type="curve"/>
      <point x="733" y="961" type="line" smooth="yes"/>
      <point x="733" y="891"/>
      <point x="733" y="850"/>
      <point x="733" y="780" type="curve" smooth="yes"/>
      <point x="733" y="221" type="line" smooth="yes"/>
      <point x="733" y="84.6244"/>
      <point x="686.37" y="19"/>
      <point x="590" y="19" type="curve" smooth="yes"/>
      <point x="494.618" y="19"/>
      <point x="450.475" y="82.5698"/>
      <point x="449" y="222" type="curve" smooth="yes"/>
      <point x="447" y="411" type="line"/>
      <point x="428" y="411" type="line"/>
      <point x="432" y="147" type="line"/>
      <point x="439.227" y="40.6987"/>
      <point x="497.045" y="-14"/>
      <point x="591" y="-14" type="curve" smooth="yes"/>
      <point x="708.314" y="-14"/>
      <point x="768" y="58.5502"/>
    </contour>
  </outline>
</glyph>
<glyph name="Basmall1.kn" format="2">
  <outline>
    <contour>
      <point x="-48" y="-136" type="curve" smooth="yes"/>
      <point x="-52" y="-136"/>
      <point x="-55" y="-136"/>
      <point x="-58" y="-136" type="curve"/>
      <point x="-58" y="-166" type="line"/>
      <point x="-56" y="-166"/>
      <point x="-54" y="-166"/>
      <point x="-51" y="-166" type="curve" smooth="yes"/>
      <point x="2" y="-166"/>
      <point x="27" y="-203"/>
      <point x="27" y="-279" type="curve" smooth="yes"/>
      <point x="27" y="-579" type="line" smooth="yes"/>
      <point x="27" y="-644"/>
      <point x="2" y="-675"/>
      <point x="-45" y="-675" type="curve" smooth="yes"/>
      <point x="-92" y="-675"/>
      <point x="-115" y="-644"/>
      <point x="-117" y="-577" type="curve" smooth="yes"/>
      <point x="-119" y="-490" type="line"/>
      <point x="-136" y="-490" type="line"/>
      <point x="-133" y="-620" type="line"/>
      <point x="-130" y="-673"/>
      <point x="-98" y="-705"/>
      <point x="-42" y="-705" type="curve" smooth="yes"/>
      <point x="24" y="-705"/>
      <point x="59" y="-663"/>
      <point x="59" y="-580" type="curve" smooth="yes"/>
      <point x="59" y="-279" type="line" smooth="yes"/>
      <point x="59" y="-181"/>
      <point x="26" y="-136"/>
    </contour>
    <contour>
      <point x="-224" y="-130" type="curve" smooth="yes"/>
      <point x="-288" y="-130"/>
      <point x="-322" y="-170"/>
      <point x="-322" y="-245" type="curve"/>
      <point x="-322" y="-245"/>
      <point x="-322" y="-275"/>
      <point x="-322" y="-275" type="curve"/>
      <point x="-322" y="-312"/>
      <point x="-314" y="-350"/>
      <point x="-300" y="-372" type="curve"/>
      <point x="-266" y="-372" type="line"/>
      <point x="-281" y="-348"/>
      <point x="-290" y="-315"/>
      <point x="-290" y="-275" type="curve"/>
      <point x="-290" y="-275"/>
      <point x="-290" y="-246"/>
      <point x="-290" y="-246" type="curve"/>
      <point x="-290" y="-189"/>
      <point x="-268" y="-160"/>
      <point x="-225" y="-160" type="curve" smooth="yes"/>
      <point x="-181" y="-160"/>
      <point x="-158" y="-188"/>
      <point x="-158" y="-246" type="curve" smooth="yes"/>
      <point x="-158" y="-270" type="line" smooth="yes"/>
      <point x="-158" y="-325"/>
      <point x="-179" y="-356"/>
      <point x="-220" y="-394" type="curve" smooth="yes"/>
      <point x="-259" y="-431" type="line" smooth="yes"/>
      <point x="-306" y="-476"/>
      <point x="-332" y="-510"/>
      <point x="-332" y="-574" type="curve" smooth="yes"/>
      <point x="-332" y="-584" type="line" smooth="yes"/>
      <point x="-332" y="-664"/>
      <point x="-296" y="-705"/>
      <point x="-227" y="-705" type="curve" smooth="yes"/>
      <point x="-170" y="-705"/>
      <point x="-138" y="-673"/>
      <point x="-135" y="-620" type="curve"/>
      <point x="-121" y="-620" type="line"/>
      <point x="-134" y="-490" type="line"/>
      <point x="-149" y="-490" type="line"/>
      <point x="-151" y="-577" type="line" smooth="yes"/>
      <point x="-153" y="-644"/>
      <point x="-176" y="-675"/>
      <point x="-224" y="-675" type="curve" smooth="yes"/>
      <point x="-274" y="-675"/>
      <point x="-300" y="-643"/>
      <point x="-300" y="-583" type="curve" smooth="yes"/>
      <point x="-300" y="-573" type="line" smooth="yes"/>
      <point x="-300" y="-518"/>
      <point x="-277" y="-488"/>
      <point x="-234" y="-448" type="curve" smooth="yes"/>
      <point x="-196" y="-412" type="line" smooth="yes"/>
      <point x="-151" y="-370"/>
      <point x="-126" y="-333"/>
      <point x="-126" y="-270" type="curve" smooth="yes"/>
      <point x="-126" y="-246" type="line" smooth="yes"/>
      <point x="-126" y="-170"/>
      <point x="-160" y="-130"/>
    </contour>
  </outline>
</glyph>
<glyph name="BhaHalant.kn" format="2">
  <advance width="1237"/>
  <outline>
    <component base="BaHalant.kn"/>
    <contour>
      <point x="421" y="-349" type="curve" smooth="yes"/>
      <point x="436" y="-349"/>
      <point x="442" y="-338"/>
      <point x="442" y="-314" type="curve" smooth="yes"/>
      <point x="442" y="-244" type="line" smooth="yes"/>
      <point x="442" y="-118"/>
      <point x="437" y="-35"/>
      <point x="421" y="35" type="curve"/>
      <point x="405" y="-35"/>
      <point x="400" y="-118"/>
      <point x="400" y="-244" type="curve" smooth="yes"/>
      <point x="400" y="-314" type="line" smooth="yes"/>
      <point x="400" y="-338"/>
      <point x="406" y="-349"/>
    </contour>
  </outline>
</glyph>
<glyph name="BhamatraAu.kn" format="2">
  <advance width="1282"/>
  <outline>
    <component base="BamatraAu.kn"/>
    <contour>
      <point x="421" y="-349" type="curve" smooth="yes"/>
      <point x="436" y="-349"/>
      <point x="442" y="-338"/>
      <point x="442" y="-314" type="curve" smooth="yes"/>
      <point x="442" y="-244" type="line" smooth="yes"/>
      <point x="442" y="-118"/>
      <point x="437" y="-35"/>
      <point x="421" y="35" type="curve"/>
      <point x="405" y="-35"/>
      <point x="400" y="-118"/>
      <point x="400" y="-244" type="curve" smooth="yes"/>
      <point x="400" y="-314" type="line" smooth="yes"/>
      <point x="400" y="-338"/>
      <point x="406" y="-349"/>
    </contour>
  </outline>
</glyph>
<glyph name="Bhasmall1.kn" format="2">
  <outline>
    <component base="Basmall1.kn"/>
    <contour>
      <point x="-135" y="-678" type="curve"/>
      <point x="-147" y="-710"/>
      <point x="-153" y="-749"/>
      <point x="-153" y="-807" type="curve" smooth="yes"/>
      <point x="-153" y="-840" type="line" smooth="yes"/>
      <point x="-153" y="-860"/>
      <point x="-147" y="-869"/>
      <point x="-135" y="-869" type="curve" smooth="yes"/>
      <point x="-123" y="-869"/>
      <point x="-117" y="-860"/>
      <point x="-117" y="-840" type="curve" smooth="yes"/>
      <point x="-117" y="-807" type="line" smooth="yes"/>
      <point x="-117" y="-749"/>
      <point x="-124" y="-710"/>
    </contour>
  </outline>
</glyph>
<glyph name="CamatraAu.kn" format="2">
  <advance width="1270"/>
  <outline>
    <component base="matraAu.kn" xOffset="477"/>
    <contour>
      <point x="617" y="625" type="line"/>
      <point x="652" y="625" type="line"/>
      <point x="652" y="628" type="line"/>
      <point x="801" y="625" type="line"/>
      <point x="801" y="656" type="line"/>
      <point x="652" y="653" type="line"/>
      <point x="632" y="656" type="line"/>
      <point x="480" y="656" type="line"/>
      <point x="480" y="625" type="line"/>
    </contour>
    <contour>
      <point x="648" y="1146" type="line"/>
      <point x="648" y="1178" type="line"/>
      <point x="485" y="1178" type="line"/>
      <point x="485" y="1146" type="line"/>
    </contour>
    <contour>
      <point x="748" y="425" type="line" smooth="yes"/>
      <point x="748" y="542"/>
      <point x="715" y="608"/>
      <point x="652" y="627" type="curve"/>
      <point x="575" y="637" type="line"/>
      <point x="575" y="625" type="line"/>
      <point x="668" y="625"/>
      <point x="713" y="560"/>
      <point x="713" y="424" type="curve" smooth="yes"/>
      <point x="713" y="216" type="line" smooth="yes"/>
      <point x="713" y="83"/>
      <point x="668" y="19"/>
      <point x="575" y="19" type="curve" smooth="yes"/>
      <point x="483" y="19"/>
      <point x="440" y="81"/>
      <point x="439" y="217" type="curve" smooth="yes"/>
      <point x="437" y="411" type="line"/>
      <point x="418" y="411" type="line"/>
      <point x="422" y="142" type="line"/>
      <point x="429" y="39"/>
      <point x="485" y="-14"/>
      <point x="576" y="-14" type="curve" smooth="yes"/>
      <point x="690" y="-14"/>
      <point x="748" y="57"/>
      <point x="748" y="215" type="curve" smooth="yes"/>
    </contour>
    <contour>
      <point x="733" y="951" type="line" smooth="yes"/>
      <point x="733" y="1066"/>
      <point x="708" y="1124"/>
      <point x="648" y="1149" type="curve"/>
      <point x="648" y="1153" type="line"/>
      <point x="575" y="1153" type="line"/>
      <point x="575" y="1146" type="line"/>
      <point x="658" y="1146"/>
      <point x="698" y="1083"/>
      <point x="698" y="950" type="curve" smooth="yes"/>
      <point x="698" y="852" type="line" smooth="yes"/>
      <point x="698" y="719"/>
      <point x="658" y="656"/>
      <point x="575" y="656" type="curve"/>
      <point x="575" y="649" type="line"/>
      <point x="652" y="646" type="line"/>
      <point x="652" y="654" type="line"/>
      <point x="703" y="673"/>
      <point x="733" y="737"/>
      <point x="733" y="851" type="curve" smooth="yes"/>
    </contour>
    <contour>
      <point x="266" y="1196" type="curve" smooth="yes"/>
      <point x="158" y="1196"/>
      <point x="103" y="1129"/>
      <point x="103" y="999" type="curve" smooth="yes"/>
      <point x="103" y="912" type="line" smooth="yes"/>
      <point x="103" y="829"/>
      <point x="120" y="748"/>
      <point x="143" y="701" type="curve"/>
      <point x="180" y="701" type="line"/>
      <point x="154" y="750"/>
      <point x="138" y="824"/>
      <point x="138" y="914" type="curve" smooth="yes"/>
      <point x="138" y="999" type="line" smooth="yes"/>
      <point x="138" y="1107"/>
      <point x="181" y="1163"/>
      <point x="266" y="1163" type="curve" smooth="yes"/>
      <point x="350" y="1163"/>
      <point x="394" y="1107"/>
      <point x="394" y="999" type="curve" smooth="yes"/>
      <point x="394" y="925" type="line" smooth="yes"/>
      <point x="394" y="810.825"/>
      <point x="363.787" y="736.93"/>
      <point x="280" y="641" type="curve" smooth="yes"/>
      <point x="211" y="562" type="line" smooth="yes"/>
      <point x="126" y="465"/>
      <point x="82" y="392"/>
      <point x="82" y="254" type="curve" smooth="yes"/>
      <point x="82" y="217" type="line" smooth="yes"/>
      <point x="82" y="58"/>
      <point x="141" y="-14"/>
      <point x="260" y="-14" type="curve" smooth="yes"/>
      <point x="355" y="-14"/>
      <point x="413" y="39"/>
      <point x="420" y="142" type="curve"/>
      <point x="424" y="142" type="line"/>
      <point x="424" y="411" type="line"/>
      <point x="405" y="411" type="line"/>
      <point x="403" y="217" type="line" smooth="yes"/>
      <point x="402" y="81"/>
      <point x="357" y="19"/>
      <point x="261" y="19" type="curve" smooth="yes"/>
      <point x="165" y="19"/>
      <point x="117" y="81"/>
      <point x="117" y="218" type="curve" smooth="yes"/>
      <point x="117" y="254" type="line" smooth="yes"/>
      <point x="117" y="378"/>
      <point x="156" y="448"/>
      <point x="237" y="540" type="curve" smooth="yes"/>
      <point x="305" y="618" type="line" smooth="yes"/>
      <point x="383" y="708"/>
      <point x="429" y="787"/>
      <point x="429" y="924" type="curve" smooth="yes"/>
      <point x="429" y="999" type="line" smooth="yes"/>
      <point x="429" y="1129"/>
      <point x="373" y="1196"/>
    </contour>
  </outline>
</glyph>
<glyph name="CamatraI.kn" format="2">
  <advance width="875"/>
  <outline>
    <contour>
      <point x="627" y="625" type="line"/>
      <point x="662" y="625" type="line"/>
      <point x="662" y="628" type="line"/>
      <point x="821" y="625" type="line"/>
      <point x="821" y="656" type="line"/>
      <point x="673" y="653" type="line"/>
      <point x="622" y="656" type="line"/>
      <point x="480" y="656" type="line"/>
      <point x="480" y="625" type="line"/>
    </contour>
    <contour>
      <point x="768" y="405" type="line" smooth="yes"/>
      <point x="768" y="534"/>
      <point x="733" y="606"/>
      <point x="662" y="627" type="curve"/>
      <point x="585" y="637" type="line"/>
      <point x="585" y="625" type="line"/>
      <point x="685" y="625"/>
      <point x="733" y="554"/>
      <point x="733" y="404" type="curve" smooth="yes"/>
      <point x="733" y="221" type="line" smooth="yes"/>
      <point x="733" y="84.3816"/>
      <point x="686.622" y="19"/>
      <point x="590" y="19" type="curve" smooth="yes"/>
      <point x="494.39" y="19"/>
      <point x="450.477" y="82.4322"/>
      <point x="449" y="222" type="curve" smooth="yes"/>
      <point x="447" y="411" type="line"/>
      <point x="428" y="411" type="line"/>
      <point x="432" y="147" type="line"/>
      <point x="438.787" y="40.3133"/>
      <point x="496.957" y="-14"/>
      <point x="591" y="-14" type="curve" smooth="yes"/>
      <point x="708.676" y="-14"/>
      <point x="768" y="58.4519"/>
      <point x="768" y="220" type="curve" smooth="yes"/>
    </contour>
    <contour>
      <point x="266" y="1196" type="curve" smooth="yes"/>
      <point x="158" y="1196"/>
      <point x="103" y="1129"/>
      <point x="103" y="999" type="curve" smooth="yes"/>
      <point x="103" y="912" type="line" smooth="yes"/>
      <point x="103" y="829"/>
      <point x="120" y="748"/>
      <point x="143" y="701" type="curve"/>
      <point x="180" y="701" type="line"/>
      <point x="154" y="750"/>
      <point x="138" y="824"/>
      <point x="138" y="914" type="curve" smooth="yes"/>
      <point x="138" y="999" type="line" smooth="yes"/>
      <point x="138" y="1107"/>
      <point x="181" y="1163"/>
      <point x="266" y="1163" type="curve" smooth="yes"/>
      <point x="350" y="1163"/>
      <point x="394" y="1107"/>
      <point x="394" y="999" type="curve" smooth="yes"/>
      <point x="394" y="925" type="line" smooth="yes"/>
      <point x="394" y="797"/>
      <point x="354" y="725"/>
      <point x="280" y="641" type="curve" smooth="yes"/>
      <point x="211" y="562" type="line" smooth="yes"/>
      <point x="126" y="465"/>
      <point x="82" y="392"/>
      <point x="82" y="254" type="curve" smooth="yes"/>
      <point x="82" y="222" type="line" smooth="yes"/>
      <point x="82" y="59.444"/>
      <point x="142.351" y="-14"/>
      <point x="265" y="-14" type="curve" smooth="yes"/>
      <point x="363.029" y="-14"/>
      <point x="423.206" y="40.3133"/>
      <point x="430" y="147" type="curve"/>
      <point x="434" y="147" type="line"/>
      <point x="434" y="411" type="line"/>
      <point x="415" y="411" type="line"/>
      <point x="413" y="222" type="line" smooth="yes"/>
      <point x="411.523" y="82.4321"/>
      <point x="365.612" y="19"/>
      <point x="266" y="19" type="curve" smooth="yes"/>
      <point x="166.344" y="19"/>
      <point x="117" y="82.445"/>
      <point x="117" y="223" type="curve" smooth="yes"/>
      <point x="117" y="254" type="line" smooth="yes"/>
      <point x="117" y="378"/>
      <point x="156" y="448"/>
      <point x="237" y="540" type="curve" smooth="yes"/>
      <point x="305" y="618" type="line" smooth="yes"/>
      <point x="383" y="708"/>
      <point x="429" y="787"/>
      <point x="429" y="924" type="curve" smooth="yes"/>
      <point x="429" y="999" type="line" smooth="yes"/>
      <point x="429" y="1129"/>
      <point x="373" y="1196"/>
    </contour>
    <contour>
      <point x="622" y="1318" type="curve" smooth="yes"/>
      <point x="525.378" y="1318"/>
      <point x="479" y="1258"/>
      <point x="479" y="1131" type="curve" smooth="yes"/>
      <point x="479" y="1043" type="line" smooth="yes"/>
      <point x="479" y="929"/>
      <point x="522.393" y="878"/>
      <point x="614" y="878" type="curve" smooth="yes"/>
      <point x="681.083" y="878"/>
      <point x="714.625" y="911"/>
      <point x="729" y="949" type="curve"/>
      <point x="734" y="949" type="line"/>
      <point x="734" y="1029" type="line"/>
      <point x="719.6" y="953"/>
      <point x="685.04" y="911"/>
      <point x="614" y="911" type="curve" smooth="yes"/>
      <point x="554.952" y="911"/>
      <point x="514" y="941"/>
      <point x="514" y="1043" type="curve" smooth="yes"/>
      <point x="514" y="1131" type="line" smooth="yes"/>
      <point x="514" y="1236"/>
      <point x="548.407" y="1285"/>
      <point x="622" y="1285" type="curve" smooth="yes"/>
      <point x="695.593" y="1285"/>
      <point x="730" y="1236"/>
      <point x="730" y="1131" type="curve" smooth="yes"/>
      <point x="730" y="885" type="line" smooth="yes"/>
      <point x="730" y="725"/>
      <point x="685" y="656"/>
      <point x="594" y="656" type="curve"/>
      <point x="673" y="645" type="line"/>
      <point x="673" y="654" type="line"/>
      <point x="736" y="681"/>
      <point x="765" y="759"/>
      <point x="765" y="882" type="curve" smooth="yes"/>
      <point x="765" y="1131" type="line" smooth="yes"/>
      <point x="765" y="1258"/>
      <point x="718.622" y="1318"/>
    </contour>
  </outline>
</glyph>
<glyph name="CamatraU.kn" format="2">
  <advance width="1195"/>
  <outline>
    <component base="Ca.kn"/>
    <contour>
      <point x="899" y="1188" type="curve" smooth="yes"/>
      <point x="895" y="1188"/>
      <point x="890" y="1188"/>
      <point x="886" y="1188" type="curve"/>
      <point x="886" y="1155" type="line"/>
      <point x="889" y="1155"/>
      <point x="894" y="1155"/>
      <point x="897" y="1155" type="curve" smooth="yes"/>
      <point x="1000" y="1155"/>
      <point x="1048" y="1085"/>
      <point x="1048" y="942" type="curve" smooth="yes"/>
      <point x="1048" y="226" type="line" smooth="yes"/>
      <point x="1048" y="87"/>
      <point x="1001" y="19"/>
      <point x="907" y="19" type="curve" smooth="yes"/>
      <point x="799" y="19"/>
      <point x="747" y="93"/>
      <point x="747" y="242" type="curve"/>
      <point x="726" y="242" type="line"/>
      <point x="726" y="219" type="line" smooth="yes"/>
      <point x="726" y="63"/>
      <point x="787" y="-14"/>
      <point x="907" y="-14" type="curve" smooth="yes"/>
      <point x="1023" y="-14"/>
      <point x="1083" y="69"/>
      <point x="1083" y="227" type="curve" smooth="yes"/>
      <point x="1083" y="943" type="line" smooth="yes"/>
      <point x="1083" y="1108"/>
      <point x="1024" y="1188"/>
    </contour>
  </outline>
</glyph>
<glyph name="ChaHalant.kn" format="2">
  <advance width="1269"/>
  <outline>
    <component base="Halant.kn" xOffset="951"/>
    <contour>
      <point x="780" y="220" type="curve" smooth="yes"/>
      <point x="780" y="848" type="line" smooth="yes"/>
      <point x="780" y="1028.63"/>
      <point x="736.089" y="1116.73"/>
      <point x="658" y="1144.97" type="curve"/>
      <point x="658" y="1147.54"/>
      <point x="658" y="1164.84"/>
      <point x="658" y="1167" type="curve"/>
      <point x="538" y="1167" type="line"/>
      <point x="538" y="1146" type="line"/>
      <point x="685" y="1146"/>
      <point x="745" y="1059"/>
      <point x="745" y="849" type="curve" smooth="yes"/>
      <point x="745" y="221" type="line" smooth="yes"/>
      <point x="745" y="82"/>
      <point x="699" y="19"/>
      <point x="607" y="19" type="curve" smooth="yes"/>
      <point x="513" y="19"/>
      <point x="468" y="82"/>
      <point x="467" y="221" type="curve" smooth="yes"/>
      <point x="465" y="411" type="line"/>
      <point x="433" y="411" type="line"/>
      <point x="431" y="221" type="line" smooth="yes"/>
      <point x="430" y="82"/>
      <point x="384" y="19"/>
      <point x="288" y="19" type="curve" smooth="yes"/>
      <point x="194" y="19"/>
      <point x="147" y="82"/>
      <point x="147" y="222" type="curve" smooth="yes"/>
      <point x="147" y="645.3" type="line"/>
      <point x="112" y="642.6" type="line"/>
      <point x="112" y="221" type="line" smooth="yes"/>
      <point x="112" y="59"/>
      <point x="170" y="-14"/>
      <point x="287" y="-14" type="curve" smooth="yes"/>
      <point x="383.095" y="-14"/>
      <point x="441.886" y="39.9877"/>
      <point x="447.836" y="146" type="curve"/>
      <point x="450.163" y="146" type="line"/>
      <point x="456.095" y="39.9877"/>
      <point x="513.886" y="-14"/>
      <point x="608" y="-14" type="curve" smooth="yes"/>
      <point x="723" y="-14"/>
      <point x="780" y="59"/>
    </contour>
    <contour>
      <point x="650" y="1146" type="line"/>
      <point x="650" y="1178" type="line"/>
      <point x="507" y="1178" type="line"/>
      <point x="507" y="1146" type="line"/>
    </contour>
    <contour>
      <point x="274" y="1196" type="curve" smooth="yes"/>
      <point x="164" y="1196"/>
      <point x="112" y="1125"/>
      <point x="112" y="977" type="curve" smooth="yes"/>
      <point x="112" y="632.583" type="line"/>
      <point x="147" y="635.305" type="line"/>
      <point x="147" y="974" type="line" smooth="yes"/>
      <point x="147" y="1102"/>
      <point x="187" y="1163"/>
      <point x="274" y="1163" type="curve" smooth="yes"/>
      <point x="361" y="1163"/>
      <point x="401" y="1102"/>
      <point x="401" y="974" type="curve" smooth="yes"/>
      <point x="401" y="712" type="line" smooth="yes"/>
      <point x="401" y="582"/>
      <point x="355" y="545"/>
      <point x="286" y="545" type="curve" smooth="yes"/>
      <point x="201.413" y="545"/>
      <point x="158.112" y="596"/>
      <point x="142" y="693" type="curve"/>
      <point x="143" y="606" type="line"/>
      <point x="148" y="606" type="line"/>
      <point x="165" y="555"/>
      <point x="206" y="512"/>
      <point x="286" y="512" type="curve" smooth="yes"/>
      <point x="388" y="512"/>
      <point x="436" y="573"/>
      <point x="436" y="712" type="curve" smooth="yes"/>
      <point x="436" y="977" type="line" smooth="yes"/>
      <point x="436" y="1125"/>
      <point x="384" y="1196"/>
    </contour>
    <contour>
      <point x="449" y="-349" type="curve" smooth="yes"/>
      <point x="464" y="-349"/>
      <point x="470" y="-338"/>
      <point x="470" y="-314" type="curve" smooth="yes"/>
      <point x="470" y="-244" type="line" smooth="yes"/>
      <point x="470" y="-118"/>
      <point x="465" y="-35"/>
      <point x="449" y="35" type="curve"/>
      <point x="433" y="-35"/>
      <point x="428" y="-118"/>
      <point x="428" y="-244" type="curve" smooth="yes"/>
      <point x="428" y="-314" type="line" smooth="yes"/>
      <point x="428" y="-338"/>
      <point x="434" y="-349"/>
    </contour>
  </outline>
</glyph>
